%TF.GenerationSoftware,KiCad,Pcbnew,9.0.5*%
%TF.CreationDate,2026-04-07T16:58:09+01:00*%
%TF.ProjectId,Unibots_PCB,556e6962-6f74-4735-9f50-43422e6b6963,rev?*%
%TF.SameCoordinates,Original*%
%TF.FileFunction,Soldermask,Bot*%
%TF.FilePolarity,Negative*%
%FSLAX46Y46*%
G04 Gerber Fmt 4.6, Leading zero omitted, Abs format (unit mm)*
G04 Created by KiCad (PCBNEW 9.0.5) date 2026-04-07 16:58:09*
%MOMM*%
%LPD*%
G01*
G04 APERTURE LIST*
G04 Aperture macros list*
%AMRoundRect*
0 Rectangle with rounded corners*
0 $1 Rounding radius*
0 $2 $3 $4 $5 $6 $7 $8 $9 X,Y pos of 4 corners*
0 Add a 4 corners polygon primitive as box body*
4,1,4,$2,$3,$4,$5,$6,$7,$8,$9,$2,$3,0*
0 Add four circle primitives for the rounded corners*
1,1,$1+$1,$2,$3*
1,1,$1+$1,$4,$5*
1,1,$1+$1,$6,$7*
1,1,$1+$1,$8,$9*
0 Add four rect primitives between the rounded corners*
20,1,$1+$1,$2,$3,$4,$5,0*
20,1,$1+$1,$4,$5,$6,$7,0*
20,1,$1+$1,$6,$7,$8,$9,0*
20,1,$1+$1,$8,$9,$2,$3,0*%
G04 Aperture macros list end*
%ADD10R,1.700000X1.700000*%
%ADD11C,1.700000*%
%ADD12RoundRect,0.250001X1.149999X1.149999X-1.149999X1.149999X-1.149999X-1.149999X1.149999X-1.149999X0*%
%ADD13C,2.800000*%
%ADD14RoundRect,0.250001X1.149999X-1.149999X1.149999X1.149999X-1.149999X1.149999X-1.149999X-1.149999X0*%
%ADD15RoundRect,0.250000X0.600000X-0.600000X0.600000X0.600000X-0.600000X0.600000X-0.600000X-0.600000X0*%
%ADD16RoundRect,0.250001X-1.149999X-1.149999X1.149999X-1.149999X1.149999X1.149999X-1.149999X1.149999X0*%
%ADD17R,1.600000X1.600000*%
%ADD18O,1.600000X1.600000*%
%ADD19RoundRect,0.250001X-1.149999X1.149999X-1.149999X-1.149999X1.149999X-1.149999X1.149999X1.149999X0*%
G04 APERTURE END LIST*
D10*
%TO.C,J3*%
X242960000Y-86020000D03*
D11*
X240420000Y-86020000D03*
X237880000Y-86020000D03*
X235340000Y-86020000D03*
%TD*%
D12*
%TO.C,J15*%
X260380000Y-139615526D03*
D13*
X255380000Y-139615526D03*
%TD*%
D14*
%TO.C,J8*%
X212810000Y-81610000D03*
D13*
X212810000Y-76610000D03*
%TD*%
D10*
%TO.C,J4*%
X242960000Y-81720000D03*
D11*
X240420000Y-81720000D03*
X237880000Y-81720000D03*
X235340000Y-81720000D03*
%TD*%
D12*
%TO.C,J17*%
X235020000Y-139545526D03*
D13*
X230020000Y-139545526D03*
%TD*%
D10*
%TO.C,J6*%
X260455000Y-71965000D03*
D11*
X257915000Y-71965000D03*
X255375000Y-71965000D03*
%TD*%
D10*
%TO.C,J5*%
X261730000Y-114595526D03*
D11*
X261730000Y-117135526D03*
X261730000Y-119675526D03*
X261730000Y-122215526D03*
X261730000Y-124755526D03*
X261730000Y-127295526D03*
X261730000Y-129835526D03*
X261730000Y-132375526D03*
%TD*%
D15*
%TO.C,J9*%
X211240000Y-53890000D03*
D11*
X211240000Y-51350000D03*
X213780000Y-53890000D03*
X213780000Y-51350000D03*
X216320000Y-53890000D03*
X216320000Y-51350000D03*
X218860000Y-53890000D03*
X218860000Y-51350000D03*
X221400000Y-53890000D03*
X221400000Y-51350000D03*
X223940000Y-53890000D03*
X223940000Y-51350000D03*
X226480000Y-53890000D03*
X226480000Y-51350000D03*
X229020000Y-53890000D03*
X229020000Y-51350000D03*
X231560000Y-53890000D03*
X231560000Y-51350000D03*
X234100000Y-53890000D03*
X234100000Y-51350000D03*
X236640000Y-53890000D03*
X236640000Y-51350000D03*
X239180000Y-53890000D03*
X239180000Y-51350000D03*
X241720000Y-53890000D03*
X241720000Y-51350000D03*
X244260000Y-53890000D03*
X244260000Y-51350000D03*
X246800000Y-53890000D03*
X246800000Y-51350000D03*
X249340000Y-53890000D03*
X249340000Y-51350000D03*
X251880000Y-53890000D03*
X251880000Y-51350000D03*
X254420000Y-53890000D03*
X254420000Y-51350000D03*
X256960000Y-53890000D03*
X256960000Y-51350000D03*
X259500000Y-53890000D03*
X259500000Y-51350000D03*
%TD*%
D10*
%TO.C,J7*%
X260390000Y-75860000D03*
D11*
X257850000Y-75860000D03*
X255310000Y-75860000D03*
%TD*%
D10*
%TO.C,J1*%
X247020000Y-81665000D03*
D11*
X249560000Y-81665000D03*
X252100000Y-81665000D03*
X254640000Y-81665000D03*
%TD*%
D10*
%TO.C,J12*%
X259125000Y-65155000D03*
D11*
X256585000Y-65155000D03*
X254045000Y-65155000D03*
%TD*%
D16*
%TO.C,J16*%
X217710000Y-139653026D03*
D13*
X222710000Y-139653026D03*
%TD*%
D10*
%TO.C,J11*%
X259125000Y-60515000D03*
D11*
X256585000Y-60515000D03*
X254045000Y-60515000D03*
%TD*%
D16*
%TO.C,J14*%
X243340000Y-139730526D03*
D13*
X248340000Y-139730526D03*
%TD*%
D17*
%TO.C,J10*%
X255570000Y-90635526D03*
D18*
X253030000Y-90635526D03*
X250490000Y-90635526D03*
X247950000Y-90635526D03*
X245410000Y-90635526D03*
X242870000Y-90635526D03*
X240330000Y-90635526D03*
X237790000Y-90635526D03*
X235250000Y-90635526D03*
X232710000Y-90635526D03*
X230170000Y-90635526D03*
X227630000Y-90635526D03*
X225090000Y-90635526D03*
X222550000Y-90635526D03*
X220010000Y-90635526D03*
X217470000Y-90635526D03*
X214930000Y-90635526D03*
X212390000Y-90635526D03*
X209850000Y-90635526D03*
X209850000Y-116035526D03*
X212390000Y-116035526D03*
X214930000Y-116035526D03*
X217470000Y-116035526D03*
X220010000Y-116035526D03*
X222550000Y-116035526D03*
X225090000Y-116035526D03*
X227630000Y-116035526D03*
X230170000Y-116035526D03*
X232710000Y-116035526D03*
X235250000Y-116035526D03*
X237790000Y-116035526D03*
X240330000Y-116035526D03*
X242870000Y-116035526D03*
X245410000Y-116035526D03*
X247950000Y-116035526D03*
X250490000Y-116035526D03*
X253030000Y-116035526D03*
X255570000Y-116035526D03*
%TD*%
D10*
%TO.C,J2*%
X247020000Y-85965000D03*
D11*
X249560000Y-85965000D03*
X252100000Y-85965000D03*
X254640000Y-85965000D03*
%TD*%
D19*
%TO.C,J18*%
X212510000Y-64310000D03*
D13*
X212510000Y-69310000D03*
%TD*%
M02*
