%TF.GenerationSoftware,KiCad,Pcbnew,9.0.5*%
%TF.CreationDate,2026-04-07T16:58:08+01:00*%
%TF.ProjectId,Unibots_PCB,556e6962-6f74-4735-9f50-43422e6b6963,rev?*%
%TF.SameCoordinates,Original*%
%TF.FileFunction,Copper,L2,Bot*%
%TF.FilePolarity,Positive*%
%FSLAX46Y46*%
G04 Gerber Fmt 4.6, Leading zero omitted, Abs format (unit mm)*
G04 Created by KiCad (PCBNEW 9.0.5) date 2026-04-07 16:58:08*
%MOMM*%
%LPD*%
G01*
G04 APERTURE LIST*
G04 Aperture macros list*
%AMRoundRect*
0 Rectangle with rounded corners*
0 $1 Rounding radius*
0 $2 $3 $4 $5 $6 $7 $8 $9 X,Y pos of 4 corners*
0 Add a 4 corners polygon primitive as box body*
4,1,4,$2,$3,$4,$5,$6,$7,$8,$9,$2,$3,0*
0 Add four circle primitives for the rounded corners*
1,1,$1+$1,$2,$3*
1,1,$1+$1,$4,$5*
1,1,$1+$1,$6,$7*
1,1,$1+$1,$8,$9*
0 Add four rect primitives between the rounded corners*
20,1,$1+$1,$2,$3,$4,$5,0*
20,1,$1+$1,$4,$5,$6,$7,0*
20,1,$1+$1,$6,$7,$8,$9,0*
20,1,$1+$1,$8,$9,$2,$3,0*%
G04 Aperture macros list end*
%TA.AperFunction,ComponentPad*%
%ADD10R,1.700000X1.700000*%
%TD*%
%TA.AperFunction,ComponentPad*%
%ADD11C,1.700000*%
%TD*%
%TA.AperFunction,ComponentPad*%
%ADD12RoundRect,0.250001X1.149999X1.149999X-1.149999X1.149999X-1.149999X-1.149999X1.149999X-1.149999X0*%
%TD*%
%TA.AperFunction,ComponentPad*%
%ADD13C,2.800000*%
%TD*%
%TA.AperFunction,ComponentPad*%
%ADD14RoundRect,0.250001X1.149999X-1.149999X1.149999X1.149999X-1.149999X1.149999X-1.149999X-1.149999X0*%
%TD*%
%TA.AperFunction,ComponentPad*%
%ADD15RoundRect,0.250000X0.600000X-0.600000X0.600000X0.600000X-0.600000X0.600000X-0.600000X-0.600000X0*%
%TD*%
%TA.AperFunction,ComponentPad*%
%ADD16RoundRect,0.250001X-1.149999X-1.149999X1.149999X-1.149999X1.149999X1.149999X-1.149999X1.149999X0*%
%TD*%
%TA.AperFunction,ComponentPad*%
%ADD17R,1.600000X1.600000*%
%TD*%
%TA.AperFunction,ComponentPad*%
%ADD18O,1.600000X1.600000*%
%TD*%
%TA.AperFunction,ComponentPad*%
%ADD19RoundRect,0.250001X-1.149999X1.149999X-1.149999X-1.149999X1.149999X-1.149999X1.149999X1.149999X0*%
%TD*%
%TA.AperFunction,ViaPad*%
%ADD20C,0.600000*%
%TD*%
%TA.AperFunction,ViaPad*%
%ADD21C,0.500000*%
%TD*%
%TA.AperFunction,Conductor*%
%ADD22C,0.250000*%
%TD*%
%TA.AperFunction,Conductor*%
%ADD23C,0.500000*%
%TD*%
%TA.AperFunction,Conductor*%
%ADD24C,1.200000*%
%TD*%
%TA.AperFunction,Conductor*%
%ADD25C,0.200000*%
%TD*%
G04 APERTURE END LIST*
D10*
%TO.P,J3,1,Pin_1*%
%TO.N,/5V_PI*%
X242960000Y-86020000D03*
D11*
%TO.P,J3,2,Pin_2*%
%TO.N,/Trig3*%
X240420000Y-86020000D03*
%TO.P,J3,3,Pin_3*%
%TO.N,/Echo3*%
X237880000Y-86020000D03*
%TO.P,J3,4,Pin_4*%
%TO.N,GND*%
X235340000Y-86020000D03*
%TD*%
D12*
%TO.P,J15,1,Pin_1*%
%TO.N,/MotorBackLeft+*%
X260380000Y-139615526D03*
D13*
%TO.P,J15,2,Pin_2*%
%TO.N,/MotorBackLeft-*%
X255380000Y-139615526D03*
%TD*%
D14*
%TO.P,J8,1,Pin_1*%
%TO.N,/Bat+*%
X212810000Y-81610000D03*
D13*
%TO.P,J8,2,Pin_2*%
%TO.N,GND*%
X212810000Y-76610000D03*
%TD*%
D10*
%TO.P,J4,1,Pin_1*%
%TO.N,/5V_PI*%
X242960000Y-81720000D03*
D11*
%TO.P,J4,2,Pin_2*%
%TO.N,/Trig4*%
X240420000Y-81720000D03*
%TO.P,J4,3,Pin_3*%
%TO.N,/Echo4*%
X237880000Y-81720000D03*
%TO.P,J4,4,Pin_4*%
%TO.N,GND*%
X235340000Y-81720000D03*
%TD*%
D12*
%TO.P,J17,1,Pin_1*%
%TO.N,/MotorBackRight+*%
X235020000Y-139545526D03*
D13*
%TO.P,J17,2,Pin_2*%
%TO.N,/MotorBackRight-*%
X230020000Y-139545526D03*
%TD*%
D10*
%TO.P,J6,1,Pin_1*%
%TO.N,/Servo1_Sig*%
X260455000Y-71965000D03*
D11*
%TO.P,J6,2,Pin_2*%
%TO.N,/5V_PI*%
X257915000Y-71965000D03*
%TO.P,J6,3,Pin_3*%
%TO.N,GND*%
X255375000Y-71965000D03*
%TD*%
D10*
%TO.P,J5,1,Pin_1*%
%TO.N,/5V_LDO*%
X261730000Y-114595526D03*
D11*
%TO.P,J5,2,Pin_2*%
%TO.N,GND*%
X261730000Y-117135526D03*
%TO.P,J5,3,Pin_3*%
%TO.N,/SCL_ESP32*%
X261730000Y-119675526D03*
%TO.P,J5,4,Pin_4*%
%TO.N,/SDA_ESP32*%
X261730000Y-122215526D03*
%TO.P,J5,5,Pin_5*%
%TO.N,unconnected-(J5-Pin_5-Pad5)*%
X261730000Y-124755526D03*
%TO.P,J5,6,Pin_6*%
%TO.N,unconnected-(J5-Pin_6-Pad6)*%
X261730000Y-127295526D03*
%TO.P,J5,7,Pin_7*%
%TO.N,unconnected-(J5-Pin_7-Pad7)*%
X261730000Y-129835526D03*
%TO.P,J5,8,Pin_8*%
%TO.N,unconnected-(J5-Pin_8-Pad8)*%
X261730000Y-132375526D03*
%TD*%
D15*
%TO.P,J9,1,Pin_1*%
%TO.N,/3V3_PI*%
X211240000Y-53890000D03*
D11*
%TO.P,J9,2,Pin_2*%
%TO.N,/5V_PI*%
X211240000Y-51350000D03*
%TO.P,J9,3,Pin_3*%
%TO.N,/SDA_PI*%
X213780000Y-53890000D03*
%TO.P,J9,4,Pin_4*%
%TO.N,/5V_PI*%
X213780000Y-51350000D03*
%TO.P,J9,5,Pin_5*%
%TO.N,/SCL_PI*%
X216320000Y-53890000D03*
%TO.P,J9,6,Pin_6*%
%TO.N,GND*%
X216320000Y-51350000D03*
%TO.P,J9,7,Pin_7*%
%TO.N,/Echo3Pi*%
X218860000Y-53890000D03*
%TO.P,J9,8,Pin_8*%
%TO.N,/TXD_PI*%
X218860000Y-51350000D03*
%TO.P,J9,9,Pin_9*%
%TO.N,GND*%
X221400000Y-53890000D03*
%TO.P,J9,10,Pin_10*%
%TO.N,/RXD_PI*%
X221400000Y-51350000D03*
%TO.P,J9,11,Pin_11*%
%TO.N,/Echo4Pi*%
X223940000Y-53890000D03*
%TO.P,J9,12,Pin_12*%
%TO.N,unconnected-(J9-Pin_12-Pad12)*%
X223940000Y-51350000D03*
%TO.P,J9,13,Pin_13*%
%TO.N,/Trig3*%
X226480000Y-53890000D03*
%TO.P,J9,14,Pin_14*%
%TO.N,GND*%
X226480000Y-51350000D03*
%TO.P,J9,15,Pin_15*%
%TO.N,/Trig4*%
X229020000Y-53890000D03*
%TO.P,J9,16,Pin_16*%
%TO.N,unconnected-(J9-Pin_16-Pad16)*%
X229020000Y-51350000D03*
%TO.P,J9,17,Pin_17*%
%TO.N,/3V3_PI*%
X231560000Y-53890000D03*
%TO.P,J9,18,Pin_18*%
%TO.N,unconnected-(J9-Pin_18-Pad18)*%
X231560000Y-51350000D03*
%TO.P,J9,19,Pin_19*%
%TO.N,/Trig1*%
X234100000Y-53890000D03*
%TO.P,J9,20,Pin_20*%
%TO.N,GND*%
X234100000Y-51350000D03*
%TO.P,J9,21,Pin_21*%
%TO.N,/Trig2*%
X236640000Y-53890000D03*
%TO.P,J9,22,Pin_22*%
%TO.N,unconnected-(J9-Pin_22-Pad22)*%
X236640000Y-51350000D03*
%TO.P,J9,23,Pin_23*%
%TO.N,/Echo2Pi*%
X239180000Y-53890000D03*
%TO.P,J9,24,Pin_24*%
%TO.N,/EXTRA_PI_GPIO5*%
X239180000Y-51350000D03*
%TO.P,J9,25,Pin_25*%
%TO.N,GND*%
X241720000Y-53890000D03*
%TO.P,J9,26,Pin_26*%
%TO.N,/EXTRA_PI_GPIO4*%
X241720000Y-51350000D03*
%TO.P,J9,27,Pin_27*%
%TO.N,unconnected-(J9-Pin_27-Pad27)*%
X244260000Y-53890000D03*
%TO.P,J9,28,Pin_28*%
%TO.N,unconnected-(J9-Pin_28-Pad28)*%
X244260000Y-51350000D03*
%TO.P,J9,29,Pin_29*%
%TO.N,/Echo1Pi*%
X246800000Y-53890000D03*
%TO.P,J9,30,Pin_30*%
%TO.N,GND*%
X246800000Y-51350000D03*
%TO.P,J9,31,Pin_31*%
%TO.N,/COM2*%
X249340000Y-53890000D03*
%TO.P,J9,32,Pin_32*%
%TO.N,/EXTRA_PI_GPIO2*%
X249340000Y-51350000D03*
%TO.P,J9,33,Pin_33*%
%TO.N,/COM*%
X251880000Y-53890000D03*
%TO.P,J9,34,Pin_34*%
%TO.N,GND*%
X251880000Y-51350000D03*
%TO.P,J9,35,Pin_35*%
%TO.N,/Servo1_Sig*%
X254420000Y-53890000D03*
%TO.P,J9,36,Pin_36*%
%TO.N,unconnected-(J9-Pin_36-Pad36)*%
X254420000Y-51350000D03*
%TO.P,J9,37,Pin_37*%
%TO.N,/Servo2_Sig*%
X256960000Y-53890000D03*
%TO.P,J9,38,Pin_38*%
%TO.N,unconnected-(J9-Pin_38-Pad38)*%
X256960000Y-51350000D03*
%TO.P,J9,39,Pin_39*%
%TO.N,GND*%
X259500000Y-53890000D03*
%TO.P,J9,40,Pin_40*%
%TO.N,unconnected-(J9-Pin_40-Pad40)*%
X259500000Y-51350000D03*
%TD*%
D10*
%TO.P,J7,1,Pin_1*%
%TO.N,/Servo2_Sig*%
X260390000Y-75860000D03*
D11*
%TO.P,J7,2,Pin_2*%
%TO.N,/5V_PI*%
X257850000Y-75860000D03*
%TO.P,J7,3,Pin_3*%
%TO.N,GND*%
X255310000Y-75860000D03*
%TD*%
D10*
%TO.P,J1,1,Pin_1*%
%TO.N,/5V_PI*%
X247020000Y-81665000D03*
D11*
%TO.P,J1,2,Pin_2*%
%TO.N,/Trig1*%
X249560000Y-81665000D03*
%TO.P,J1,3,Pin_3*%
%TO.N,/Echo1*%
X252100000Y-81665000D03*
%TO.P,J1,4,Pin_4*%
%TO.N,GND*%
X254640000Y-81665000D03*
%TD*%
D10*
%TO.P,J12,1,Pin_1*%
%TO.N,/COM2*%
X259125000Y-65155000D03*
D11*
%TO.P,J12,2,Pin_2*%
%TO.N,/NC2*%
X256585000Y-65155000D03*
%TO.P,J12,3,Pin_3*%
%TO.N,GND*%
X254045000Y-65155000D03*
%TD*%
D16*
%TO.P,J16,1,Pin_1*%
%TO.N,/MotorFrontRight+*%
X217710000Y-139653026D03*
D13*
%TO.P,J16,2,Pin_2*%
%TO.N,/MotorFrontRight-*%
X222710000Y-139653026D03*
%TD*%
D10*
%TO.P,J11,1,Pin_1*%
%TO.N,/COM*%
X259125000Y-60515000D03*
D11*
%TO.P,J11,2,Pin_2*%
%TO.N,/NC*%
X256585000Y-60515000D03*
%TO.P,J11,3,Pin_3*%
%TO.N,GND*%
X254045000Y-60515000D03*
%TD*%
D16*
%TO.P,J14,1,Pin_1*%
%TO.N,/MotorFrontLeft+*%
X243340000Y-139730526D03*
D13*
%TO.P,J14,2,Pin_2*%
%TO.N,/MotorFrontLeft-*%
X248340000Y-139730526D03*
%TD*%
D17*
%TO.P,J10,1,Pin_1*%
%TO.N,/3V3_ESP32*%
X255570000Y-90635526D03*
D18*
%TO.P,J10,2,Pin_2*%
%TO.N,unconnected-(J10-Pin_2-Pad2)*%
X253030000Y-90635526D03*
%TO.P,J10,3,Pin_3*%
%TO.N,/V_bat_measure*%
X250490000Y-90635526D03*
%TO.P,J10,4,Pin_4*%
%TO.N,unconnected-(J10-Pin_4-Pad4)*%
X247950000Y-90635526D03*
%TO.P,J10,5,Pin_5*%
%TO.N,unconnected-(J10-Pin_5-Pad5)*%
X245410000Y-90635526D03*
%TO.P,J10,6,Pin_6*%
%TO.N,unconnected-(J10-Pin_6-Pad6)*%
X242870000Y-90635526D03*
%TO.P,J10,7,Pin_7*%
%TO.N,/ENB*%
X240330000Y-90635526D03*
%TO.P,J10,8,Pin_8*%
%TO.N,/IND*%
X237790000Y-90635526D03*
%TO.P,J10,9,Pin_9*%
%TO.N,/INC*%
X235250000Y-90635526D03*
%TO.P,J10,10,Pin_10*%
%TO.N,/INA*%
X232710000Y-90635526D03*
%TO.P,J10,11,Pin_11*%
%TO.N,/INB*%
X230170000Y-90635526D03*
%TO.P,J10,12,Pin_12*%
%TO.N,/ENA*%
X227630000Y-90635526D03*
%TO.P,J10,13,Pin_13*%
%TO.N,unconnected-(J10-Pin_13-Pad13)*%
X225090000Y-90635526D03*
%TO.P,J10,14,Pin_14*%
%TO.N,GND*%
X222550000Y-90635526D03*
%TO.P,J10,15,Pin_15*%
%TO.N,/END*%
X220010000Y-90635526D03*
%TO.P,J10,16,Pin_16*%
%TO.N,unconnected-(J10-Pin_16-Pad16)*%
X217470000Y-90635526D03*
%TO.P,J10,17,Pin_17*%
%TO.N,unconnected-(J10-Pin_17-Pad17)*%
X214930000Y-90635526D03*
%TO.P,J10,18,Pin_18*%
%TO.N,unconnected-(J10-Pin_18-Pad18)*%
X212390000Y-90635526D03*
%TO.P,J10,19,Pin_19*%
%TO.N,/5V_LDO*%
X209850000Y-90635526D03*
%TO.P,J10,20,Pin_20*%
%TO.N,unconnected-(J10-Pin_20-Pad20)*%
X209850000Y-116035526D03*
%TO.P,J10,21,Pin_21*%
%TO.N,unconnected-(J10-Pin_21-Pad21)*%
X212390000Y-116035526D03*
%TO.P,J10,22,Pin_22*%
%TO.N,unconnected-(J10-Pin_22-Pad22)*%
X214930000Y-116035526D03*
%TO.P,J10,23,Pin_23*%
%TO.N,unconnected-(J10-Pin_23-Pad23)*%
X217470000Y-116035526D03*
%TO.P,J10,24,Pin_24*%
%TO.N,/ENC*%
X220010000Y-116035526D03*
%TO.P,J10,25,Pin_25*%
%TO.N,unconnected-(J10-Pin_25-Pad25)*%
X222550000Y-116035526D03*
%TO.P,J10,26,Pin_26*%
%TO.N,/INF*%
X225090000Y-116035526D03*
%TO.P,J10,27,Pin_27*%
%TO.N,/GPIO_16*%
X227630000Y-116035526D03*
%TO.P,J10,28,Pin_28*%
%TO.N,/GPIO_17*%
X230170000Y-116035526D03*
%TO.P,J10,29,Pin_29*%
%TO.N,unconnected-(J10-Pin_29-Pad29)*%
X232710000Y-116035526D03*
%TO.P,J10,30,Pin_30*%
%TO.N,/INE*%
X235250000Y-116035526D03*
%TO.P,J10,31,Pin_31*%
%TO.N,/ING*%
X237790000Y-116035526D03*
%TO.P,J10,32,Pin_32*%
%TO.N,GND*%
X240330000Y-116035526D03*
%TO.P,J10,33,Pin_33*%
%TO.N,/SDA_ESP32*%
X242870000Y-116035526D03*
%TO.P,J10,34,Pin_34*%
%TO.N,/RX0*%
X245410000Y-116035526D03*
%TO.P,J10,35,Pin_35*%
%TO.N,/TX0*%
X247950000Y-116035526D03*
%TO.P,J10,36,Pin_36*%
%TO.N,/SCL_ESP32*%
X250490000Y-116035526D03*
%TO.P,J10,37,Pin_37*%
%TO.N,/INH*%
X253030000Y-116035526D03*
%TO.P,J10,38,Pin_38*%
%TO.N,GND*%
X255570000Y-116035526D03*
%TD*%
D10*
%TO.P,J2,1,Pin_1*%
%TO.N,/5V_PI*%
X247020000Y-85965000D03*
D11*
%TO.P,J2,2,Pin_2*%
%TO.N,/Trig2*%
X249560000Y-85965000D03*
%TO.P,J2,3,Pin_3*%
%TO.N,/Echo2*%
X252100000Y-85965000D03*
%TO.P,J2,4,Pin_4*%
%TO.N,GND*%
X254640000Y-85965000D03*
%TD*%
D19*
%TO.P,J18,1,Pin_1*%
%TO.N,/Vin*%
X212510000Y-64310000D03*
D13*
%TO.P,J18,2,Pin_2*%
%TO.N,Net-(J18-Pin_2)*%
X212510000Y-69310000D03*
%TD*%
D20*
%TO.N,GND*%
X222800000Y-92200000D03*
X221400000Y-89400000D03*
X261000000Y-54200000D03*
X251460000Y-58928000D03*
X227800000Y-126600000D03*
X232800000Y-86200000D03*
X231000000Y-127200000D03*
X229600000Y-86600000D03*
%TO.N,/5V_LDO*%
X231090000Y-121295526D03*
X234575000Y-121322824D03*
X259071000Y-120655526D03*
%TO.N,/Vin*%
X215390000Y-105010000D03*
X207860000Y-104130000D03*
D21*
%TO.N,/Bat+*%
X220472000Y-86868000D03*
X217610000Y-85910000D03*
X221742000Y-86868000D03*
X221710000Y-85910000D03*
X214810000Y-85910000D03*
X220410000Y-85910000D03*
X216210000Y-85910000D03*
X219110000Y-85910000D03*
X213610000Y-85910000D03*
D20*
%TO.N,/SDA_ESP32*%
X242870000Y-119425526D03*
%TO.N,/Echo3Pi*%
X227050000Y-85280000D03*
%TO.N,/Echo4Pi*%
X227190000Y-82790000D03*
%TO.N,/TXD_PI*%
X219510000Y-59690000D03*
%TO.N,/RXD_PI*%
X228854000Y-108712000D03*
%TO.N,/Echo1Pi*%
X257670000Y-82770000D03*
%TO.N,/Echo2Pi*%
X257890000Y-85060000D03*
%TO.N,/INC*%
X251430000Y-126445526D03*
%TO.N,/GPIO_16*%
X227838000Y-112776000D03*
X226411620Y-83722380D03*
X226314000Y-100584000D03*
X223266000Y-59944000D03*
%TO.N,/INB*%
X247960000Y-121485526D03*
%TO.N,/END*%
X232490000Y-126145526D03*
%TO.N,/IND*%
X252550000Y-126455526D03*
%TO.N,/INE*%
X229330000Y-126295526D03*
%TO.N,/ENB*%
X253550000Y-126435526D03*
%TO.N,/INA*%
X248825000Y-121935526D03*
%TO.N,/ENA*%
X247310000Y-122615526D03*
D21*
%TO.N,Net-(J18-Pin_2)*%
X218510000Y-68410000D03*
X217810000Y-69010000D03*
X217710000Y-70810000D03*
X219110000Y-70810000D03*
X219110000Y-69210000D03*
X217810000Y-67610000D03*
X218310000Y-71410000D03*
X218410000Y-70010000D03*
X219110000Y-72110000D03*
X219110000Y-67659997D03*
X217710000Y-72110000D03*
%TD*%
D22*
%TO.N,/INC*%
X251430000Y-126445526D02*
X254250000Y-123625526D01*
X254250000Y-123625526D02*
X254250000Y-110145526D01*
X254250000Y-110145526D02*
X251540000Y-107435526D01*
D23*
%TO.N,/5V_LDO*%
X234397298Y-121322824D02*
X234370000Y-121295526D01*
X259071000Y-117254526D02*
X261730000Y-114595526D01*
X259071000Y-120655526D02*
X259071000Y-117254526D01*
X234370000Y-121295526D02*
X231090000Y-121295526D01*
X234575000Y-121322824D02*
X234397298Y-121322824D01*
D24*
%TO.N,/Vin*%
X214530000Y-105870000D02*
X215390000Y-105010000D01*
X207870000Y-104350000D02*
X209390000Y-105870000D01*
X207870000Y-66290000D02*
X207870000Y-104350000D01*
X209390000Y-105870000D02*
X214530000Y-105870000D01*
X209850000Y-64310000D02*
X207870000Y-66290000D01*
X212510000Y-64310000D02*
X209850000Y-64310000D01*
D25*
%TO.N,/Trig1*%
X234100000Y-66205000D02*
X234100000Y-53890000D01*
X249560000Y-81665000D02*
X234100000Y-66205000D01*
%TO.N,/Trig2*%
X236640000Y-66350000D02*
X236640000Y-53890000D01*
X250899000Y-84626000D02*
X250899000Y-80609000D01*
X249560000Y-85965000D02*
X250899000Y-84626000D01*
X250899000Y-80609000D02*
X236640000Y-66350000D01*
%TO.N,/Trig3*%
X226480000Y-67830000D02*
X226480000Y-53890000D01*
X240420000Y-86020000D02*
X239081000Y-84681000D01*
X239081000Y-84681000D02*
X239081000Y-80431000D01*
X239081000Y-80431000D02*
X226480000Y-67830000D01*
%TO.N,/Trig4*%
X240420000Y-77980000D02*
X229020000Y-66580000D01*
X240420000Y-81720000D02*
X240420000Y-77980000D01*
X229020000Y-66580000D02*
X229020000Y-53890000D01*
D22*
%TO.N,/SDA_ESP32*%
X242870000Y-119425526D02*
X242870000Y-116035526D01*
D25*
%TO.N,/Servo1_Sig*%
X258920000Y-58390000D02*
X254420000Y-53890000D01*
X260140000Y-58390000D02*
X258920000Y-58390000D01*
X260720000Y-58970000D02*
X260140000Y-58390000D01*
X260720000Y-71700000D02*
X260720000Y-58970000D01*
X260455000Y-71965000D02*
X260720000Y-71700000D01*
%TO.N,/Servo2_Sig*%
X260390000Y-75860000D02*
X262480000Y-73770000D01*
X262480000Y-73770000D02*
X262480000Y-59410000D01*
X262450000Y-59380000D02*
X256960000Y-53890000D01*
X262480000Y-59410000D02*
X262450000Y-59380000D01*
%TO.N,/Echo3Pi*%
X225044000Y-83274000D02*
X227050000Y-85280000D01*
X218860000Y-53890000D02*
X218860000Y-64174000D01*
X225044000Y-70358000D02*
X225044000Y-83274000D01*
X218860000Y-64174000D02*
X225044000Y-70358000D01*
%TO.N,/COM*%
X252670000Y-53890000D02*
X251880000Y-53890000D01*
X259125000Y-60515000D02*
X259125000Y-60345000D01*
X259125000Y-60345000D02*
X252670000Y-53890000D01*
%TO.N,/Echo4Pi*%
X226370000Y-69800000D02*
X226370000Y-82220000D01*
X223940000Y-53890000D02*
X223940000Y-67370000D01*
X226940000Y-82790000D02*
X227190000Y-82790000D01*
X226370000Y-82220000D02*
X226940000Y-82790000D01*
X225800000Y-69230000D02*
X226370000Y-69800000D01*
X223940000Y-67370000D02*
X225800000Y-69230000D01*
D22*
%TO.N,/TXD_PI*%
X220174000Y-57956000D02*
X219456000Y-58674000D01*
X220174000Y-52664000D02*
X220174000Y-57956000D01*
X219456000Y-59636000D02*
X219510000Y-59690000D01*
X219456000Y-58674000D02*
X219456000Y-59636000D01*
X218860000Y-51350000D02*
X220174000Y-52664000D01*
D25*
%TO.N,/COM2*%
X257090000Y-62480000D02*
X252210000Y-62480000D01*
X249340000Y-59610000D02*
X249340000Y-53890000D01*
X259125000Y-64515000D02*
X257090000Y-62480000D01*
X252210000Y-62480000D02*
X249340000Y-59610000D01*
X259125000Y-65155000D02*
X259125000Y-64515000D01*
D22*
%TO.N,/RXD_PI*%
X221400000Y-50204000D02*
X221400000Y-51350000D01*
X223726000Y-88811298D02*
X224536000Y-88001298D01*
X224536000Y-88001298D02*
X224536000Y-70718000D01*
X220726000Y-49530000D02*
X221400000Y-50204000D01*
X228854000Y-108712000D02*
X223726000Y-103584000D01*
X224536000Y-70718000D02*
X217546000Y-63728000D01*
X217546000Y-50424000D02*
X218440000Y-49530000D01*
X223726000Y-103584000D02*
X223726000Y-88811298D01*
X218440000Y-49530000D02*
X220726000Y-49530000D01*
X217546000Y-63728000D02*
X217546000Y-50424000D01*
D25*
%TO.N,/Echo1Pi*%
X257670000Y-81030000D02*
X257670000Y-82770000D01*
X246800000Y-71620000D02*
X254550000Y-79370000D01*
X246800000Y-53890000D02*
X246800000Y-71620000D01*
X256010000Y-79370000D02*
X257670000Y-81030000D01*
X254550000Y-79370000D02*
X256010000Y-79370000D01*
%TO.N,/Echo2Pi*%
X239180000Y-53890000D02*
X239280000Y-53990000D01*
X252520000Y-79890000D02*
X255720000Y-79890000D01*
X256980000Y-84150000D02*
X257890000Y-85060000D01*
X255720000Y-79890000D02*
X256980000Y-81150000D01*
X256980000Y-81150000D02*
X256980000Y-84150000D01*
X239280000Y-66650000D02*
X252520000Y-79890000D01*
X239280000Y-53990000D02*
X239280000Y-66650000D01*
D22*
%TO.N,/INC*%
X236480000Y-92375526D02*
X235460000Y-92375526D01*
X235250000Y-92155526D02*
X235250000Y-90635526D01*
X251666000Y-107561526D02*
X236480000Y-92375526D01*
X235460000Y-92375526D02*
X235460000Y-92365526D01*
X235460000Y-92365526D02*
X235250000Y-92155526D01*
%TO.N,/GPIO_16*%
X225806000Y-83116760D02*
X226411620Y-83722380D01*
X226314000Y-103886000D02*
X229870000Y-107442000D01*
X227838000Y-112014000D02*
X227838000Y-112776000D01*
X229870000Y-107442000D02*
X229870000Y-109982000D01*
X223266000Y-67818000D02*
X225806000Y-70358000D01*
X229870000Y-109982000D02*
X227838000Y-112014000D01*
X226314000Y-100584000D02*
X226314000Y-103886000D01*
X225806000Y-70358000D02*
X225806000Y-83116760D01*
X223266000Y-59944000D02*
X223266000Y-67818000D01*
%TO.N,/INB*%
X247960000Y-121485526D02*
X248150000Y-121295526D01*
X230510000Y-93715526D02*
X230170000Y-93375526D01*
X248150000Y-121295526D02*
X248150000Y-119330526D01*
X234240000Y-93715526D02*
X230510000Y-93715526D01*
X249126000Y-108601526D02*
X234240000Y-93715526D01*
X248150000Y-119330526D02*
X249126000Y-118354526D01*
X230170000Y-93375526D02*
X230170000Y-90635526D01*
X249126000Y-118354526D02*
X249126000Y-108601526D01*
%TO.N,/END*%
X236614000Y-121571526D02*
X236614000Y-113939526D01*
X221710000Y-92335526D02*
X220010000Y-90635526D01*
X236212474Y-113538000D02*
X225806000Y-113538000D01*
X225806000Y-113538000D02*
X221710000Y-109442000D01*
X236614000Y-113939526D02*
X236212474Y-113538000D01*
X221710000Y-109442000D02*
X221710000Y-92335526D01*
X232490000Y-125695526D02*
X236614000Y-121571526D01*
X232490000Y-126145526D02*
X232490000Y-125695526D01*
%TO.N,/IND*%
X257710000Y-121295526D02*
X257710000Y-110555526D01*
X252550000Y-126455526D02*
X257710000Y-121295526D01*
X257710000Y-110555526D02*
X237790000Y-90635526D01*
%TO.N,/INE*%
X235250000Y-118835526D02*
X235250000Y-116035526D01*
X231100000Y-126295526D02*
X235250000Y-122145526D01*
X235250000Y-122145526D02*
X235250000Y-118495526D01*
X229330000Y-126295526D02*
X231100000Y-126295526D01*
%TO.N,/ENB*%
X253550000Y-126435526D02*
X258396000Y-121589526D01*
X258396000Y-108701526D02*
X240330000Y-90635526D01*
X258396000Y-121589526D02*
X258396000Y-108701526D01*
%TO.N,/INA*%
X251720000Y-109435526D02*
X249040000Y-106755526D01*
X232710000Y-92325526D02*
X232710000Y-90635526D01*
X251720000Y-119040526D02*
X251720000Y-117335526D01*
X249126000Y-106841526D02*
X235390000Y-93105526D01*
X251720000Y-117510526D02*
X251720000Y-109435526D01*
X235390000Y-93105526D02*
X233490000Y-93105526D01*
X233490000Y-93105526D02*
X232710000Y-92325526D01*
X248825000Y-121935526D02*
X251720000Y-119040526D01*
%TO.N,/ENA*%
X244234000Y-105099526D02*
X234290000Y-95155526D01*
X229300000Y-95155526D02*
X227630000Y-93485526D01*
X246600000Y-121905526D02*
X246600000Y-109275526D01*
X246600000Y-109275526D02*
X246600000Y-107465526D01*
X227630000Y-93485526D02*
X227630000Y-90635526D01*
X247310000Y-122615526D02*
X246600000Y-121905526D01*
X234290000Y-95155526D02*
X229300000Y-95155526D01*
X246600000Y-107465526D02*
X244140000Y-105005526D01*
%TD*%
%TA.AperFunction,Conductor*%
%TO.N,Net-(J18-Pin_2)*%
G36*
X220053039Y-66929685D02*
G01*
X220098794Y-66982489D01*
X220110000Y-67034000D01*
X220110000Y-77086000D01*
X220090315Y-77153039D01*
X220037511Y-77198794D01*
X219986000Y-77210000D01*
X215684000Y-77210000D01*
X215616961Y-77190315D01*
X215571206Y-77137511D01*
X215560000Y-77086000D01*
X215560000Y-72210000D01*
X210634000Y-72210000D01*
X210566961Y-72190315D01*
X210521206Y-72137511D01*
X210510000Y-72086000D01*
X210510000Y-67034000D01*
X210529685Y-66966961D01*
X210582489Y-66921206D01*
X210634000Y-66910000D01*
X219986000Y-66910000D01*
X220053039Y-66929685D01*
G37*
%TD.AperFunction*%
%TD*%
%TA.AperFunction,Conductor*%
%TO.N,/Bat+*%
G36*
X224038226Y-78646499D02*
G01*
X224104982Y-78667112D01*
X224149999Y-78720546D01*
X224160500Y-78770486D01*
X224160500Y-87586000D01*
X224140815Y-87653039D01*
X224088011Y-87698794D01*
X224036500Y-87710000D01*
X211034000Y-87710000D01*
X210966961Y-87690315D01*
X210921206Y-87637511D01*
X210910000Y-87586000D01*
X210910000Y-78589897D01*
X210929685Y-78522858D01*
X210982489Y-78477103D01*
X211035721Y-78465909D01*
X224038226Y-78646499D01*
G37*
%TD.AperFunction*%
%TD*%
%TA.AperFunction,Conductor*%
%TO.N,GND*%
G36*
X263849039Y-48787685D02*
G01*
X263894794Y-48840489D01*
X263906000Y-48892000D01*
X263906000Y-143894000D01*
X263886315Y-143961039D01*
X263833511Y-144006794D01*
X263782000Y-144018000D01*
X207388000Y-144018000D01*
X207320961Y-143998315D01*
X207275206Y-143945511D01*
X207264000Y-143894000D01*
X207264000Y-138455162D01*
X216059500Y-138455162D01*
X216059500Y-140850889D01*
X216059501Y-140850908D01*
X216065908Y-140910507D01*
X216116202Y-141045353D01*
X216116203Y-141045354D01*
X216116204Y-141045356D01*
X216202454Y-141160572D01*
X216317670Y-141246822D01*
X216317671Y-141246822D01*
X216317672Y-141246823D01*
X216452518Y-141297117D01*
X216452517Y-141297117D01*
X216459445Y-141297861D01*
X216512128Y-141303526D01*
X216512137Y-141303526D01*
X218907863Y-141303526D01*
X218907872Y-141303526D01*
X218967482Y-141297117D01*
X219102330Y-141246822D01*
X219217546Y-141160572D01*
X219303796Y-141045356D01*
X219354091Y-140910508D01*
X219360500Y-140850898D01*
X219360500Y-139523123D01*
X221059500Y-139523123D01*
X221059500Y-139782928D01*
X221100140Y-140039519D01*
X221180422Y-140286602D01*
X221219909Y-140364098D01*
X221298366Y-140518077D01*
X221451069Y-140728255D01*
X221634771Y-140911957D01*
X221844949Y-141064660D01*
X221991479Y-141139321D01*
X222076423Y-141182603D01*
X222076425Y-141182603D01*
X222076428Y-141182605D01*
X222323507Y-141262886D01*
X222455706Y-141283823D01*
X222580098Y-141303526D01*
X222580103Y-141303526D01*
X222839902Y-141303526D01*
X222953298Y-141285565D01*
X223096493Y-141262886D01*
X223343572Y-141182605D01*
X223575051Y-141064660D01*
X223785229Y-140911957D01*
X223968931Y-140728255D01*
X224121634Y-140518077D01*
X224239579Y-140286598D01*
X224319860Y-140039519D01*
X224348225Y-139860428D01*
X224360500Y-139782928D01*
X224360500Y-139523123D01*
X224345775Y-139430155D01*
X224343473Y-139415623D01*
X228369500Y-139415623D01*
X228369500Y-139675428D01*
X228410140Y-139932019D01*
X228490422Y-140179102D01*
X228545195Y-140286598D01*
X228608366Y-140410577D01*
X228761069Y-140620755D01*
X228944771Y-140804457D01*
X229154949Y-140957160D01*
X229292325Y-141027157D01*
X229386423Y-141075103D01*
X229386425Y-141075103D01*
X229386428Y-141075105D01*
X229633507Y-141155386D01*
X229765706Y-141176323D01*
X229890098Y-141196026D01*
X229890103Y-141196026D01*
X230149902Y-141196026D01*
X230263298Y-141178065D01*
X230406493Y-141155386D01*
X230653572Y-141075105D01*
X230885051Y-140957160D01*
X231095229Y-140804457D01*
X231278931Y-140620755D01*
X231431634Y-140410577D01*
X231549579Y-140179098D01*
X231629860Y-139932019D01*
X231659413Y-139745428D01*
X231670500Y-139675428D01*
X231670500Y-139415623D01*
X231646886Y-139266532D01*
X231629860Y-139159033D01*
X231549579Y-138911954D01*
X231549577Y-138911951D01*
X231549577Y-138911949D01*
X231486406Y-138787971D01*
X231431634Y-138680475D01*
X231278931Y-138470297D01*
X231156296Y-138347662D01*
X233369500Y-138347662D01*
X233369500Y-140743389D01*
X233369501Y-140743408D01*
X233375908Y-140803007D01*
X233426202Y-140937853D01*
X233426203Y-140937854D01*
X233426204Y-140937856D01*
X233512454Y-141053072D01*
X233627670Y-141139322D01*
X233627671Y-141139322D01*
X233627672Y-141139323D01*
X233762518Y-141189617D01*
X233762517Y-141189617D01*
X233769445Y-141190361D01*
X233822128Y-141196026D01*
X233822137Y-141196026D01*
X236217863Y-141196026D01*
X236217872Y-141196026D01*
X236277482Y-141189617D01*
X236412330Y-141139322D01*
X236527546Y-141053072D01*
X236613796Y-140937856D01*
X236664091Y-140803008D01*
X236670500Y-140743398D01*
X236670500Y-138532662D01*
X241689500Y-138532662D01*
X241689500Y-140928389D01*
X241689501Y-140928408D01*
X241695908Y-140988007D01*
X241746202Y-141122853D01*
X241746203Y-141122854D01*
X241746204Y-141122856D01*
X241832454Y-141238072D01*
X241947670Y-141324322D01*
X241947671Y-141324322D01*
X241947672Y-141324323D01*
X242082518Y-141374617D01*
X242082517Y-141374617D01*
X242089445Y-141375361D01*
X242142128Y-141381026D01*
X242142137Y-141381026D01*
X244537863Y-141381026D01*
X244537872Y-141381026D01*
X244597482Y-141374617D01*
X244732330Y-141324322D01*
X244847546Y-141238072D01*
X244933796Y-141122856D01*
X244984091Y-140988008D01*
X244990500Y-140928398D01*
X244990500Y-139600623D01*
X246689500Y-139600623D01*
X246689500Y-139860428D01*
X246730140Y-140117019D01*
X246810422Y-140364102D01*
X246928368Y-140595580D01*
X247035764Y-140743398D01*
X247081069Y-140805755D01*
X247264771Y-140989457D01*
X247474949Y-141142160D01*
X247606759Y-141209321D01*
X247706423Y-141260103D01*
X247706425Y-141260103D01*
X247706428Y-141260105D01*
X247953507Y-141340386D01*
X248085706Y-141361323D01*
X248210098Y-141381026D01*
X248210103Y-141381026D01*
X248469902Y-141381026D01*
X248583298Y-141363065D01*
X248726493Y-141340386D01*
X248973572Y-141260105D01*
X249205051Y-141142160D01*
X249415229Y-140989457D01*
X249598931Y-140805755D01*
X249751634Y-140595577D01*
X249869579Y-140364098D01*
X249949860Y-140117019D01*
X249979161Y-139932019D01*
X249990500Y-139860428D01*
X249990500Y-139600623D01*
X249974587Y-139500155D01*
X249972285Y-139485623D01*
X253729500Y-139485623D01*
X253729500Y-139745428D01*
X253770140Y-140002019D01*
X253850422Y-140249102D01*
X253968368Y-140480580D01*
X254121066Y-140690751D01*
X254121069Y-140690755D01*
X254304771Y-140874457D01*
X254514949Y-141027160D01*
X254662445Y-141102313D01*
X254746423Y-141145103D01*
X254746425Y-141145103D01*
X254746428Y-141145105D01*
X254993507Y-141225386D01*
X255125706Y-141246323D01*
X255250098Y-141266026D01*
X255250103Y-141266026D01*
X255509902Y-141266026D01*
X255631142Y-141246823D01*
X255766493Y-141225386D01*
X256013572Y-141145105D01*
X256245051Y-141027160D01*
X256455229Y-140874457D01*
X256638931Y-140690755D01*
X256791634Y-140480577D01*
X256909579Y-140249098D01*
X256989860Y-140002019D01*
X257024561Y-139782923D01*
X257030500Y-139745428D01*
X257030500Y-139485623D01*
X257008074Y-139344032D01*
X256989860Y-139229033D01*
X256909579Y-138981954D01*
X256909577Y-138981951D01*
X256909577Y-138981949D01*
X256866787Y-138897971D01*
X256791634Y-138750475D01*
X256638931Y-138540297D01*
X256516296Y-138417662D01*
X258729500Y-138417662D01*
X258729500Y-140813389D01*
X258729501Y-140813408D01*
X258735908Y-140873007D01*
X258786202Y-141007853D01*
X258786203Y-141007854D01*
X258786204Y-141007856D01*
X258872454Y-141123072D01*
X258987670Y-141209322D01*
X258987671Y-141209322D01*
X258987672Y-141209323D01*
X259122518Y-141259617D01*
X259122517Y-141259617D01*
X259127038Y-141260103D01*
X259182128Y-141266026D01*
X259182137Y-141266026D01*
X261577863Y-141266026D01*
X261577872Y-141266026D01*
X261637482Y-141259617D01*
X261772330Y-141209322D01*
X261887546Y-141123072D01*
X261973796Y-141007856D01*
X262024091Y-140873008D01*
X262030500Y-140813398D01*
X262030500Y-138417654D01*
X262024091Y-138358044D01*
X261997441Y-138286592D01*
X261973797Y-138223198D01*
X261973796Y-138223197D01*
X261973796Y-138223196D01*
X261887546Y-138107980D01*
X261772330Y-138021730D01*
X261772328Y-138021729D01*
X261772327Y-138021728D01*
X261637481Y-137971434D01*
X261637482Y-137971434D01*
X261577882Y-137965027D01*
X261577880Y-137965026D01*
X261577872Y-137965026D01*
X259182128Y-137965026D01*
X259182120Y-137965026D01*
X259182117Y-137965027D01*
X259122518Y-137971434D01*
X258987672Y-138021728D01*
X258987670Y-138021730D01*
X258872454Y-138107980D01*
X258786204Y-138223196D01*
X258786202Y-138223198D01*
X258735908Y-138358044D01*
X258729501Y-138417643D01*
X258729500Y-138417662D01*
X256516296Y-138417662D01*
X256455229Y-138356595D01*
X256403335Y-138318892D01*
X256245054Y-138203894D01*
X256245053Y-138203893D01*
X256245051Y-138203892D01*
X256130412Y-138145480D01*
X256013576Y-138085948D01*
X255766493Y-138005666D01*
X255509902Y-137965026D01*
X255509897Y-137965026D01*
X255250103Y-137965026D01*
X255250098Y-137965026D01*
X254993506Y-138005666D01*
X254746423Y-138085948D01*
X254514945Y-138203894D01*
X254304774Y-138356592D01*
X254304768Y-138356597D01*
X254121071Y-138540294D01*
X254121066Y-138540300D01*
X253968368Y-138750471D01*
X253850422Y-138981949D01*
X253770140Y-139229032D01*
X253729500Y-139485623D01*
X249972285Y-139485623D01*
X249961199Y-139415629D01*
X249949860Y-139344033D01*
X249869579Y-139096954D01*
X249869577Y-139096951D01*
X249869577Y-139096949D01*
X249775316Y-138911954D01*
X249751634Y-138865475D01*
X249598931Y-138655297D01*
X249415229Y-138471595D01*
X249413447Y-138470300D01*
X249205054Y-138318894D01*
X249205053Y-138318893D01*
X249205051Y-138318892D01*
X249132764Y-138282060D01*
X248973576Y-138200948D01*
X248726493Y-138120666D01*
X248469902Y-138080026D01*
X248469897Y-138080026D01*
X248210103Y-138080026D01*
X248210098Y-138080026D01*
X247953506Y-138120666D01*
X247706423Y-138200948D01*
X247474945Y-138318894D01*
X247264774Y-138471592D01*
X247264768Y-138471597D01*
X247081071Y-138655294D01*
X247081066Y-138655300D01*
X246928368Y-138865471D01*
X246810422Y-139096949D01*
X246730140Y-139344032D01*
X246689500Y-139600623D01*
X244990500Y-139600623D01*
X244990500Y-138532654D01*
X244984091Y-138473044D01*
X244977421Y-138455162D01*
X244933797Y-138338198D01*
X244933796Y-138338197D01*
X244933796Y-138338196D01*
X244847546Y-138222980D01*
X244732330Y-138136730D01*
X244732328Y-138136729D01*
X244732327Y-138136728D01*
X244597481Y-138086434D01*
X244597482Y-138086434D01*
X244537882Y-138080027D01*
X244537880Y-138080026D01*
X244537872Y-138080026D01*
X242142128Y-138080026D01*
X242142120Y-138080026D01*
X242142117Y-138080027D01*
X242082518Y-138086434D01*
X241947672Y-138136728D01*
X241947670Y-138136730D01*
X241832454Y-138222980D01*
X241746204Y-138338196D01*
X241746202Y-138338198D01*
X241695908Y-138473044D01*
X241689501Y-138532643D01*
X241689500Y-138532662D01*
X236670500Y-138532662D01*
X236670500Y-138347654D01*
X236664091Y-138288044D01*
X236632705Y-138203894D01*
X236613797Y-138153198D01*
X236613796Y-138153197D01*
X236613796Y-138153196D01*
X236527546Y-138037980D01*
X236412330Y-137951730D01*
X236412328Y-137951729D01*
X236412327Y-137951728D01*
X236277481Y-137901434D01*
X236277482Y-137901434D01*
X236217882Y-137895027D01*
X236217880Y-137895026D01*
X236217872Y-137895026D01*
X233822128Y-137895026D01*
X233822120Y-137895026D01*
X233822117Y-137895027D01*
X233762518Y-137901434D01*
X233627672Y-137951728D01*
X233627670Y-137951730D01*
X233512454Y-138037980D01*
X233426204Y-138153196D01*
X233426202Y-138153198D01*
X233375908Y-138288044D01*
X233369501Y-138347643D01*
X233369500Y-138347662D01*
X231156296Y-138347662D01*
X231095229Y-138286595D01*
X231033012Y-138241392D01*
X230885054Y-138133894D01*
X230885053Y-138133893D01*
X230885051Y-138133892D01*
X230790954Y-138085947D01*
X230653576Y-138015948D01*
X230406493Y-137935666D01*
X230149902Y-137895026D01*
X230149897Y-137895026D01*
X229890103Y-137895026D01*
X229890098Y-137895026D01*
X229633506Y-137935666D01*
X229386423Y-138015948D01*
X229154945Y-138133894D01*
X228944774Y-138286592D01*
X228944768Y-138286597D01*
X228761071Y-138470294D01*
X228761066Y-138470300D01*
X228608368Y-138680471D01*
X228490422Y-138911949D01*
X228410140Y-139159032D01*
X228369500Y-139415623D01*
X224343473Y-139415623D01*
X224338316Y-139383067D01*
X224319860Y-139266533D01*
X224239579Y-139019454D01*
X224239577Y-139019451D01*
X224239577Y-139019449D01*
X224161120Y-138865471D01*
X224121634Y-138787975D01*
X223968931Y-138577797D01*
X223785229Y-138394095D01*
X223735609Y-138358044D01*
X223575054Y-138241394D01*
X223575053Y-138241393D01*
X223575051Y-138241392D01*
X223495674Y-138200947D01*
X223343576Y-138123448D01*
X223096493Y-138043166D01*
X222839902Y-138002526D01*
X222839897Y-138002526D01*
X222580103Y-138002526D01*
X222580098Y-138002526D01*
X222323506Y-138043166D01*
X222076423Y-138123448D01*
X221844945Y-138241394D01*
X221634774Y-138394092D01*
X221634768Y-138394097D01*
X221451071Y-138577794D01*
X221451066Y-138577800D01*
X221298368Y-138787971D01*
X221180422Y-139019449D01*
X221100140Y-139266532D01*
X221059500Y-139523123D01*
X219360500Y-139523123D01*
X219360500Y-138455154D01*
X219354091Y-138395544D01*
X219332702Y-138338196D01*
X219303797Y-138260698D01*
X219303796Y-138260697D01*
X219303796Y-138260696D01*
X219217546Y-138145480D01*
X219102330Y-138059230D01*
X219102328Y-138059229D01*
X219102327Y-138059228D01*
X218967481Y-138008934D01*
X218967482Y-138008934D01*
X218907882Y-138002527D01*
X218907880Y-138002526D01*
X218907872Y-138002526D01*
X216512128Y-138002526D01*
X216512120Y-138002526D01*
X216512117Y-138002527D01*
X216452518Y-138008934D01*
X216317672Y-138059228D01*
X216317670Y-138059230D01*
X216202454Y-138145480D01*
X216116204Y-138260696D01*
X216116202Y-138260698D01*
X216065908Y-138395544D01*
X216059501Y-138455143D01*
X216059500Y-138455162D01*
X207264000Y-138455162D01*
X207264000Y-132288915D01*
X260629500Y-132288915D01*
X260629500Y-132462137D01*
X260656598Y-132633227D01*
X260710127Y-132797971D01*
X260788768Y-132952314D01*
X260890586Y-133092454D01*
X261013072Y-133214940D01*
X261153212Y-133316758D01*
X261307555Y-133395399D01*
X261472299Y-133448928D01*
X261643389Y-133476026D01*
X261643390Y-133476026D01*
X261816610Y-133476026D01*
X261816611Y-133476026D01*
X261987701Y-133448928D01*
X262152445Y-133395399D01*
X262306788Y-133316758D01*
X262446928Y-133214940D01*
X262569414Y-133092454D01*
X262671232Y-132952314D01*
X262749873Y-132797971D01*
X262803402Y-132633227D01*
X262830500Y-132462137D01*
X262830500Y-132288915D01*
X262803402Y-132117825D01*
X262749873Y-131953081D01*
X262671232Y-131798738D01*
X262569414Y-131658598D01*
X262446928Y-131536112D01*
X262306788Y-131434294D01*
X262152445Y-131355653D01*
X261987701Y-131302124D01*
X261987699Y-131302123D01*
X261987698Y-131302123D01*
X261856271Y-131281307D01*
X261816611Y-131275026D01*
X261643389Y-131275026D01*
X261603728Y-131281307D01*
X261472302Y-131302123D01*
X261307552Y-131355654D01*
X261153211Y-131434294D01*
X261073256Y-131492385D01*
X261013072Y-131536112D01*
X261013070Y-131536114D01*
X261013069Y-131536114D01*
X260890588Y-131658595D01*
X260890588Y-131658596D01*
X260890586Y-131658598D01*
X260846859Y-131718782D01*
X260788768Y-131798737D01*
X260710128Y-131953078D01*
X260656597Y-132117828D01*
X260629500Y-132288915D01*
X207264000Y-132288915D01*
X207264000Y-129748915D01*
X260629500Y-129748915D01*
X260629500Y-129922137D01*
X260656598Y-130093227D01*
X260710127Y-130257971D01*
X260788768Y-130412314D01*
X260890586Y-130552454D01*
X261013072Y-130674940D01*
X261153212Y-130776758D01*
X261307555Y-130855399D01*
X261472299Y-130908928D01*
X261643389Y-130936026D01*
X261643390Y-130936026D01*
X261816610Y-130936026D01*
X261816611Y-130936026D01*
X261987701Y-130908928D01*
X262152445Y-130855399D01*
X262306788Y-130776758D01*
X262446928Y-130674940D01*
X262569414Y-130552454D01*
X262671232Y-130412314D01*
X262749873Y-130257971D01*
X262803402Y-130093227D01*
X262830500Y-129922137D01*
X262830500Y-129748915D01*
X262803402Y-129577825D01*
X262749873Y-129413081D01*
X262671232Y-129258738D01*
X262569414Y-129118598D01*
X262446928Y-128996112D01*
X262306788Y-128894294D01*
X262152445Y-128815653D01*
X261987701Y-128762124D01*
X261987699Y-128762123D01*
X261987698Y-128762123D01*
X261856271Y-128741307D01*
X261816611Y-128735026D01*
X261643389Y-128735026D01*
X261603728Y-128741307D01*
X261472302Y-128762123D01*
X261307552Y-128815654D01*
X261153211Y-128894294D01*
X261073256Y-128952385D01*
X261013072Y-128996112D01*
X261013070Y-128996114D01*
X261013069Y-128996114D01*
X260890588Y-129118595D01*
X260890588Y-129118596D01*
X260890586Y-129118598D01*
X260846859Y-129178782D01*
X260788768Y-129258737D01*
X260710128Y-129413078D01*
X260656597Y-129577828D01*
X260629500Y-129748915D01*
X207264000Y-129748915D01*
X207264000Y-127208915D01*
X260629500Y-127208915D01*
X260629500Y-127382137D01*
X260656598Y-127553227D01*
X260710127Y-127717971D01*
X260788768Y-127872314D01*
X260890586Y-128012454D01*
X261013072Y-128134940D01*
X261153212Y-128236758D01*
X261307555Y-128315399D01*
X261472299Y-128368928D01*
X261643389Y-128396026D01*
X261643390Y-128396026D01*
X261816610Y-128396026D01*
X261816611Y-128396026D01*
X261987701Y-128368928D01*
X262152445Y-128315399D01*
X262306788Y-128236758D01*
X262446928Y-128134940D01*
X262569414Y-128012454D01*
X262671232Y-127872314D01*
X262749873Y-127717971D01*
X262803402Y-127553227D01*
X262830500Y-127382137D01*
X262830500Y-127208915D01*
X262803402Y-127037825D01*
X262749873Y-126873081D01*
X262671232Y-126718738D01*
X262569414Y-126578598D01*
X262446928Y-126456112D01*
X262306788Y-126354294D01*
X262152445Y-126275653D01*
X261987701Y-126222124D01*
X261987699Y-126222123D01*
X261987698Y-126222123D01*
X261854980Y-126201103D01*
X261816611Y-126195026D01*
X261643389Y-126195026D01*
X261605020Y-126201103D01*
X261472302Y-126222123D01*
X261307552Y-126275654D01*
X261153211Y-126354294D01*
X261118183Y-126379744D01*
X261013072Y-126456112D01*
X261013070Y-126456114D01*
X261013069Y-126456114D01*
X260890588Y-126578595D01*
X260890588Y-126578596D01*
X260890586Y-126578598D01*
X260877942Y-126596001D01*
X260788768Y-126718737D01*
X260710128Y-126873078D01*
X260656597Y-127037828D01*
X260629500Y-127208915D01*
X207264000Y-127208915D01*
X207264000Y-115932056D01*
X208799500Y-115932056D01*
X208799500Y-116138995D01*
X208839868Y-116341938D01*
X208839870Y-116341946D01*
X208915499Y-116524531D01*
X208919059Y-116533124D01*
X208934141Y-116555696D01*
X209034024Y-116705183D01*
X209180342Y-116851501D01*
X209180345Y-116851503D01*
X209352402Y-116966467D01*
X209543580Y-117045656D01*
X209746530Y-117086025D01*
X209746534Y-117086026D01*
X209746535Y-117086026D01*
X209953466Y-117086026D01*
X209953467Y-117086025D01*
X210156420Y-117045656D01*
X210347598Y-116966467D01*
X210519655Y-116851503D01*
X210665977Y-116705181D01*
X210780941Y-116533124D01*
X210860130Y-116341946D01*
X210900500Y-116138991D01*
X210900500Y-115932061D01*
X210900499Y-115932056D01*
X211339500Y-115932056D01*
X211339500Y-116138995D01*
X211379868Y-116341938D01*
X211379870Y-116341946D01*
X211455499Y-116524531D01*
X211459059Y-116533124D01*
X211474141Y-116555696D01*
X211574024Y-116705183D01*
X211720342Y-116851501D01*
X211720345Y-116851503D01*
X211892402Y-116966467D01*
X212083580Y-117045656D01*
X212286530Y-117086025D01*
X212286534Y-117086026D01*
X212286535Y-117086026D01*
X212493466Y-117086026D01*
X212493467Y-117086025D01*
X212696420Y-117045656D01*
X212887598Y-116966467D01*
X213059655Y-116851503D01*
X213205977Y-116705181D01*
X213320941Y-116533124D01*
X213400130Y-116341946D01*
X213440500Y-116138991D01*
X213440500Y-115932061D01*
X213440499Y-115932056D01*
X213879500Y-115932056D01*
X213879500Y-116138995D01*
X213919868Y-116341938D01*
X213919870Y-116341946D01*
X213995499Y-116524531D01*
X213999059Y-116533124D01*
X214014141Y-116555696D01*
X214114024Y-116705183D01*
X214260342Y-116851501D01*
X214260345Y-116851503D01*
X214432402Y-116966467D01*
X214623580Y-117045656D01*
X214826530Y-117086025D01*
X214826534Y-117086026D01*
X214826535Y-117086026D01*
X215033466Y-117086026D01*
X215033467Y-117086025D01*
X215236420Y-117045656D01*
X215427598Y-116966467D01*
X215599655Y-116851503D01*
X215745977Y-116705181D01*
X215860941Y-116533124D01*
X215940130Y-116341946D01*
X215980500Y-116138991D01*
X215980500Y-115932061D01*
X215980499Y-115932056D01*
X216419500Y-115932056D01*
X216419500Y-116138995D01*
X216459868Y-116341938D01*
X216459870Y-116341946D01*
X216535499Y-116524531D01*
X216539059Y-116533124D01*
X216554141Y-116555696D01*
X216654024Y-116705183D01*
X216800342Y-116851501D01*
X216800345Y-116851503D01*
X216972402Y-116966467D01*
X217163580Y-117045656D01*
X217366530Y-117086025D01*
X217366534Y-117086026D01*
X217366535Y-117086026D01*
X217573466Y-117086026D01*
X217573467Y-117086025D01*
X217776420Y-117045656D01*
X217967598Y-116966467D01*
X218139655Y-116851503D01*
X218285977Y-116705181D01*
X218400941Y-116533124D01*
X218480130Y-116341946D01*
X218520500Y-116138991D01*
X218520500Y-115932061D01*
X218520499Y-115932056D01*
X218959500Y-115932056D01*
X218959500Y-116138995D01*
X218999868Y-116341938D01*
X218999870Y-116341946D01*
X219075499Y-116524531D01*
X219079059Y-116533124D01*
X219094141Y-116555696D01*
X219194024Y-116705183D01*
X219340342Y-116851501D01*
X219340345Y-116851503D01*
X219512402Y-116966467D01*
X219703580Y-117045656D01*
X219906530Y-117086025D01*
X219906534Y-117086026D01*
X219906535Y-117086026D01*
X220113466Y-117086026D01*
X220113467Y-117086025D01*
X220316420Y-117045656D01*
X220507598Y-116966467D01*
X220679655Y-116851503D01*
X220825977Y-116705181D01*
X220940941Y-116533124D01*
X221020130Y-116341946D01*
X221060500Y-116138991D01*
X221060500Y-115932061D01*
X221060499Y-115932056D01*
X221499500Y-115932056D01*
X221499500Y-116138995D01*
X221539868Y-116341938D01*
X221539870Y-116341946D01*
X221615499Y-116524531D01*
X221619059Y-116533124D01*
X221634141Y-116555696D01*
X221734024Y-116705183D01*
X221880342Y-116851501D01*
X221880345Y-116851503D01*
X222052402Y-116966467D01*
X222243580Y-117045656D01*
X222446530Y-117086025D01*
X222446534Y-117086026D01*
X222446535Y-117086026D01*
X222653466Y-117086026D01*
X222653467Y-117086025D01*
X222856420Y-117045656D01*
X223047598Y-116966467D01*
X223219655Y-116851503D01*
X223365977Y-116705181D01*
X223480941Y-116533124D01*
X223560130Y-116341946D01*
X223600500Y-116138991D01*
X223600500Y-115932061D01*
X223600499Y-115932056D01*
X224039500Y-115932056D01*
X224039500Y-116138995D01*
X224079868Y-116341938D01*
X224079870Y-116341946D01*
X224155499Y-116524531D01*
X224159059Y-116533124D01*
X224174141Y-116555696D01*
X224274024Y-116705183D01*
X224420342Y-116851501D01*
X224420345Y-116851503D01*
X224592402Y-116966467D01*
X224783580Y-117045656D01*
X224986530Y-117086025D01*
X224986534Y-117086026D01*
X224986535Y-117086026D01*
X225193466Y-117086026D01*
X225193467Y-117086025D01*
X225396420Y-117045656D01*
X225587598Y-116966467D01*
X225759655Y-116851503D01*
X225905977Y-116705181D01*
X226020941Y-116533124D01*
X226100130Y-116341946D01*
X226140500Y-116138991D01*
X226140500Y-115932061D01*
X226140499Y-115932056D01*
X226579500Y-115932056D01*
X226579500Y-116138995D01*
X226619868Y-116341938D01*
X226619870Y-116341946D01*
X226695499Y-116524531D01*
X226699059Y-116533124D01*
X226714141Y-116555696D01*
X226814024Y-116705183D01*
X226960342Y-116851501D01*
X226960345Y-116851503D01*
X227132402Y-116966467D01*
X227323580Y-117045656D01*
X227526530Y-117086025D01*
X227526534Y-117086026D01*
X227526535Y-117086026D01*
X227733466Y-117086026D01*
X227733467Y-117086025D01*
X227936420Y-117045656D01*
X228127598Y-116966467D01*
X228299655Y-116851503D01*
X228445977Y-116705181D01*
X228560941Y-116533124D01*
X228640130Y-116341946D01*
X228680500Y-116138991D01*
X228680500Y-115932061D01*
X228680499Y-115932056D01*
X229119500Y-115932056D01*
X229119500Y-116138995D01*
X229159868Y-116341938D01*
X229159870Y-116341946D01*
X229235499Y-116524531D01*
X229239059Y-116533124D01*
X229254141Y-116555696D01*
X229354024Y-116705183D01*
X229500342Y-116851501D01*
X229500345Y-116851503D01*
X229672402Y-116966467D01*
X229863580Y-117045656D01*
X230066530Y-117086025D01*
X230066534Y-117086026D01*
X230066535Y-117086026D01*
X230273466Y-117086026D01*
X230273467Y-117086025D01*
X230476420Y-117045656D01*
X230667598Y-116966467D01*
X230839655Y-116851503D01*
X230985977Y-116705181D01*
X231100941Y-116533124D01*
X231180130Y-116341946D01*
X231220500Y-116138991D01*
X231220500Y-115932061D01*
X231220499Y-115932056D01*
X231659500Y-115932056D01*
X231659500Y-116138995D01*
X231699868Y-116341938D01*
X231699870Y-116341946D01*
X231775499Y-116524531D01*
X231779059Y-116533124D01*
X231794141Y-116555696D01*
X231894024Y-116705183D01*
X232040342Y-116851501D01*
X232040345Y-116851503D01*
X232212402Y-116966467D01*
X232403580Y-117045656D01*
X232606530Y-117086025D01*
X232606534Y-117086026D01*
X232606535Y-117086026D01*
X232813466Y-117086026D01*
X232813467Y-117086025D01*
X233016420Y-117045656D01*
X233207598Y-116966467D01*
X233379655Y-116851503D01*
X233525977Y-116705181D01*
X233640941Y-116533124D01*
X233720130Y-116341946D01*
X233760500Y-116138991D01*
X233760500Y-115932061D01*
X233720130Y-115729106D01*
X233640941Y-115537928D01*
X233525977Y-115365871D01*
X233525975Y-115365868D01*
X233379657Y-115219550D01*
X233243397Y-115128505D01*
X233207598Y-115104585D01*
X233207122Y-115104388D01*
X233016420Y-115025396D01*
X233016412Y-115025394D01*
X232813469Y-114985026D01*
X232813465Y-114985026D01*
X232606535Y-114985026D01*
X232606530Y-114985026D01*
X232403587Y-115025394D01*
X232403579Y-115025396D01*
X232212403Y-115104584D01*
X232040342Y-115219550D01*
X231894024Y-115365868D01*
X231779058Y-115537929D01*
X231699870Y-115729105D01*
X231699868Y-115729113D01*
X231659500Y-115932056D01*
X231220499Y-115932056D01*
X231180130Y-115729106D01*
X231100941Y-115537928D01*
X230985977Y-115365871D01*
X230985975Y-115365868D01*
X230839657Y-115219550D01*
X230703397Y-115128505D01*
X230667598Y-115104585D01*
X230667122Y-115104388D01*
X230476420Y-115025396D01*
X230476412Y-115025394D01*
X230273469Y-114985026D01*
X230273465Y-114985026D01*
X230066535Y-114985026D01*
X230066530Y-114985026D01*
X229863587Y-115025394D01*
X229863579Y-115025396D01*
X229672403Y-115104584D01*
X229500342Y-115219550D01*
X229354024Y-115365868D01*
X229239058Y-115537929D01*
X229159870Y-115729105D01*
X229159868Y-115729113D01*
X229119500Y-115932056D01*
X228680499Y-115932056D01*
X228640130Y-115729106D01*
X228560941Y-115537928D01*
X228445977Y-115365871D01*
X228445975Y-115365868D01*
X228299657Y-115219550D01*
X228163397Y-115128505D01*
X228127598Y-115104585D01*
X228127122Y-115104388D01*
X227936420Y-115025396D01*
X227936412Y-115025394D01*
X227733469Y-114985026D01*
X227733465Y-114985026D01*
X227526535Y-114985026D01*
X227526530Y-114985026D01*
X227323587Y-115025394D01*
X227323579Y-115025396D01*
X227132403Y-115104584D01*
X226960342Y-115219550D01*
X226814024Y-115365868D01*
X226699058Y-115537929D01*
X226619870Y-115729105D01*
X226619868Y-115729113D01*
X226579500Y-115932056D01*
X226140499Y-115932056D01*
X226100130Y-115729106D01*
X226020941Y-115537928D01*
X225905977Y-115365871D01*
X225905975Y-115365868D01*
X225759657Y-115219550D01*
X225623397Y-115128505D01*
X225587598Y-115104585D01*
X225587122Y-115104388D01*
X225396420Y-115025396D01*
X225396412Y-115025394D01*
X225193469Y-114985026D01*
X225193465Y-114985026D01*
X224986535Y-114985026D01*
X224986530Y-114985026D01*
X224783587Y-115025394D01*
X224783579Y-115025396D01*
X224592403Y-115104584D01*
X224420342Y-115219550D01*
X224274024Y-115365868D01*
X224159058Y-115537929D01*
X224079870Y-115729105D01*
X224079868Y-115729113D01*
X224039500Y-115932056D01*
X223600499Y-115932056D01*
X223560130Y-115729106D01*
X223480941Y-115537928D01*
X223365977Y-115365871D01*
X223365975Y-115365868D01*
X223219657Y-115219550D01*
X223083397Y-115128505D01*
X223047598Y-115104585D01*
X223047122Y-115104388D01*
X222856420Y-115025396D01*
X222856412Y-115025394D01*
X222653469Y-114985026D01*
X222653465Y-114985026D01*
X222446535Y-114985026D01*
X222446530Y-114985026D01*
X222243587Y-115025394D01*
X222243579Y-115025396D01*
X222052403Y-115104584D01*
X221880342Y-115219550D01*
X221734024Y-115365868D01*
X221619058Y-115537929D01*
X221539870Y-115729105D01*
X221539868Y-115729113D01*
X221499500Y-115932056D01*
X221060499Y-115932056D01*
X221020130Y-115729106D01*
X220940941Y-115537928D01*
X220825977Y-115365871D01*
X220825975Y-115365868D01*
X220679657Y-115219550D01*
X220543397Y-115128505D01*
X220507598Y-115104585D01*
X220507122Y-115104388D01*
X220316420Y-115025396D01*
X220316412Y-115025394D01*
X220113469Y-114985026D01*
X220113465Y-114985026D01*
X219906535Y-114985026D01*
X219906530Y-114985026D01*
X219703587Y-115025394D01*
X219703579Y-115025396D01*
X219512403Y-115104584D01*
X219340342Y-115219550D01*
X219194024Y-115365868D01*
X219079058Y-115537929D01*
X218999870Y-115729105D01*
X218999868Y-115729113D01*
X218959500Y-115932056D01*
X218520499Y-115932056D01*
X218480130Y-115729106D01*
X218400941Y-115537928D01*
X218285977Y-115365871D01*
X218285975Y-115365868D01*
X218139657Y-115219550D01*
X218003397Y-115128505D01*
X217967598Y-115104585D01*
X217967122Y-115104388D01*
X217776420Y-115025396D01*
X217776412Y-115025394D01*
X217573469Y-114985026D01*
X217573465Y-114985026D01*
X217366535Y-114985026D01*
X217366530Y-114985026D01*
X217163587Y-115025394D01*
X217163579Y-115025396D01*
X216972403Y-115104584D01*
X216800342Y-115219550D01*
X216654024Y-115365868D01*
X216539058Y-115537929D01*
X216459870Y-115729105D01*
X216459868Y-115729113D01*
X216419500Y-115932056D01*
X215980499Y-115932056D01*
X215940130Y-115729106D01*
X215860941Y-115537928D01*
X215745977Y-115365871D01*
X215745975Y-115365868D01*
X215599657Y-115219550D01*
X215463397Y-115128505D01*
X215427598Y-115104585D01*
X215427122Y-115104388D01*
X215236420Y-115025396D01*
X215236412Y-115025394D01*
X215033469Y-114985026D01*
X215033465Y-114985026D01*
X214826535Y-114985026D01*
X214826530Y-114985026D01*
X214623587Y-115025394D01*
X214623579Y-115025396D01*
X214432403Y-115104584D01*
X214260342Y-115219550D01*
X214114024Y-115365868D01*
X213999058Y-115537929D01*
X213919870Y-115729105D01*
X213919868Y-115729113D01*
X213879500Y-115932056D01*
X213440499Y-115932056D01*
X213400130Y-115729106D01*
X213320941Y-115537928D01*
X213205977Y-115365871D01*
X213205975Y-115365868D01*
X213059657Y-115219550D01*
X212923397Y-115128505D01*
X212887598Y-115104585D01*
X212887122Y-115104388D01*
X212696420Y-115025396D01*
X212696412Y-115025394D01*
X212493469Y-114985026D01*
X212493465Y-114985026D01*
X212286535Y-114985026D01*
X212286530Y-114985026D01*
X212083587Y-115025394D01*
X212083579Y-115025396D01*
X211892403Y-115104584D01*
X211720342Y-115219550D01*
X211574024Y-115365868D01*
X211459058Y-115537929D01*
X211379870Y-115729105D01*
X211379868Y-115729113D01*
X211339500Y-115932056D01*
X210900499Y-115932056D01*
X210860130Y-115729106D01*
X210780941Y-115537928D01*
X210665977Y-115365871D01*
X210665975Y-115365868D01*
X210519657Y-115219550D01*
X210383397Y-115128505D01*
X210347598Y-115104585D01*
X210347122Y-115104388D01*
X210156420Y-115025396D01*
X210156412Y-115025394D01*
X209953469Y-114985026D01*
X209953465Y-114985026D01*
X209746535Y-114985026D01*
X209746530Y-114985026D01*
X209543587Y-115025394D01*
X209543579Y-115025396D01*
X209352403Y-115104584D01*
X209180342Y-115219550D01*
X209034024Y-115365868D01*
X208919058Y-115537929D01*
X208839870Y-115729105D01*
X208839868Y-115729113D01*
X208799500Y-115932056D01*
X207264000Y-115932056D01*
X207264000Y-105246151D01*
X207283685Y-105179112D01*
X207336489Y-105133357D01*
X207405647Y-105123413D01*
X207469203Y-105152438D01*
X207475681Y-105158470D01*
X208847834Y-106530624D01*
X208847838Y-106530627D01*
X208987137Y-106623704D01*
X208987139Y-106623705D01*
X208987143Y-106623707D01*
X209069222Y-106657703D01*
X209096584Y-106669037D01*
X209141918Y-106687816D01*
X209306228Y-106720499D01*
X209306232Y-106720500D01*
X209306233Y-106720500D01*
X214613768Y-106720500D01*
X214613769Y-106720499D01*
X214668538Y-106709605D01*
X214778074Y-106687818D01*
X214778078Y-106687816D01*
X214778082Y-106687816D01*
X214823415Y-106669037D01*
X214932863Y-106623704D01*
X215072162Y-106530627D01*
X216050627Y-105552162D01*
X216143704Y-105412863D01*
X216207816Y-105258081D01*
X216240500Y-105093766D01*
X216240500Y-104926233D01*
X216229109Y-104868965D01*
X216207818Y-104761925D01*
X216207815Y-104761916D01*
X216143707Y-104607143D01*
X216143700Y-104607130D01*
X216050627Y-104467838D01*
X216050624Y-104467834D01*
X215932165Y-104349375D01*
X215932161Y-104349372D01*
X215792869Y-104256299D01*
X215792856Y-104256292D01*
X215638083Y-104192184D01*
X215638074Y-104192181D01*
X215473771Y-104159500D01*
X215473767Y-104159500D01*
X215306234Y-104159500D01*
X215306229Y-104159500D01*
X215141926Y-104192181D01*
X215141917Y-104192184D01*
X214987136Y-104256296D01*
X214987133Y-104256297D01*
X214847838Y-104349372D01*
X214847834Y-104349375D01*
X214214030Y-104983181D01*
X214152707Y-105016666D01*
X214126349Y-105019500D01*
X209793651Y-105019500D01*
X209726612Y-104999815D01*
X209705970Y-104983181D01*
X208756819Y-104034030D01*
X208723334Y-103972707D01*
X208720500Y-103946349D01*
X208720500Y-91244733D01*
X208740185Y-91177694D01*
X208792989Y-91131939D01*
X208862147Y-91121995D01*
X208925703Y-91151020D01*
X208947603Y-91175843D01*
X209034024Y-91305183D01*
X209180342Y-91451501D01*
X209180345Y-91451503D01*
X209352402Y-91566467D01*
X209543580Y-91645656D01*
X209746530Y-91686025D01*
X209746534Y-91686026D01*
X209746535Y-91686026D01*
X209953466Y-91686026D01*
X209953467Y-91686025D01*
X210156420Y-91645656D01*
X210347598Y-91566467D01*
X210519655Y-91451503D01*
X210665977Y-91305181D01*
X210780941Y-91133124D01*
X210860130Y-90941946D01*
X210900500Y-90738991D01*
X210900500Y-90532061D01*
X210900499Y-90532056D01*
X211339500Y-90532056D01*
X211339500Y-90738995D01*
X211379868Y-90941938D01*
X211379870Y-90941946D01*
X211459058Y-91133122D01*
X211574024Y-91305183D01*
X211720342Y-91451501D01*
X211720345Y-91451503D01*
X211892402Y-91566467D01*
X212083580Y-91645656D01*
X212286530Y-91686025D01*
X212286534Y-91686026D01*
X212286535Y-91686026D01*
X212493466Y-91686026D01*
X212493467Y-91686025D01*
X212696420Y-91645656D01*
X212887598Y-91566467D01*
X213059655Y-91451503D01*
X213205977Y-91305181D01*
X213320941Y-91133124D01*
X213400130Y-90941946D01*
X213440500Y-90738991D01*
X213440500Y-90532061D01*
X213440499Y-90532056D01*
X213879500Y-90532056D01*
X213879500Y-90738995D01*
X213919868Y-90941938D01*
X213919870Y-90941946D01*
X213999058Y-91133122D01*
X214114024Y-91305183D01*
X214260342Y-91451501D01*
X214260345Y-91451503D01*
X214432402Y-91566467D01*
X214623580Y-91645656D01*
X214826530Y-91686025D01*
X214826534Y-91686026D01*
X214826535Y-91686026D01*
X215033466Y-91686026D01*
X215033467Y-91686025D01*
X215236420Y-91645656D01*
X215427598Y-91566467D01*
X215599655Y-91451503D01*
X215745977Y-91305181D01*
X215860941Y-91133124D01*
X215940130Y-90941946D01*
X215980500Y-90738991D01*
X215980500Y-90532061D01*
X215980499Y-90532056D01*
X216419500Y-90532056D01*
X216419500Y-90738995D01*
X216459868Y-90941938D01*
X216459870Y-90941946D01*
X216539058Y-91133122D01*
X216654024Y-91305183D01*
X216800342Y-91451501D01*
X216800345Y-91451503D01*
X216972402Y-91566467D01*
X217163580Y-91645656D01*
X217366530Y-91686025D01*
X217366534Y-91686026D01*
X217366535Y-91686026D01*
X217573466Y-91686026D01*
X217573467Y-91686025D01*
X217776420Y-91645656D01*
X217967598Y-91566467D01*
X218139655Y-91451503D01*
X218285977Y-91305181D01*
X218400941Y-91133124D01*
X218480130Y-90941946D01*
X218520500Y-90738991D01*
X218520500Y-90532061D01*
X218480130Y-90329106D01*
X218400941Y-90137928D01*
X218285977Y-89965871D01*
X218285976Y-89965870D01*
X218285975Y-89965868D01*
X218139657Y-89819550D01*
X218017287Y-89737786D01*
X217967598Y-89704585D01*
X217776420Y-89625396D01*
X217776412Y-89625394D01*
X217573469Y-89585026D01*
X217573465Y-89585026D01*
X217366535Y-89585026D01*
X217366530Y-89585026D01*
X217163587Y-89625394D01*
X217163579Y-89625396D01*
X216972403Y-89704584D01*
X216800342Y-89819550D01*
X216654024Y-89965868D01*
X216539058Y-90137929D01*
X216459870Y-90329105D01*
X216459868Y-90329113D01*
X216419500Y-90532056D01*
X215980499Y-90532056D01*
X215940130Y-90329106D01*
X215860941Y-90137928D01*
X215745977Y-89965871D01*
X215745976Y-89965870D01*
X215745975Y-89965868D01*
X215599657Y-89819550D01*
X215477287Y-89737786D01*
X215427598Y-89704585D01*
X215236420Y-89625396D01*
X215236412Y-89625394D01*
X215033469Y-89585026D01*
X215033465Y-89585026D01*
X214826535Y-89585026D01*
X214826530Y-89585026D01*
X214623587Y-89625394D01*
X214623579Y-89625396D01*
X214432403Y-89704584D01*
X214260342Y-89819550D01*
X214114024Y-89965868D01*
X213999058Y-90137929D01*
X213919870Y-90329105D01*
X213919868Y-90329113D01*
X213879500Y-90532056D01*
X213440499Y-90532056D01*
X213400130Y-90329106D01*
X213320941Y-90137928D01*
X213205977Y-89965871D01*
X213205976Y-89965870D01*
X213205975Y-89965868D01*
X213059657Y-89819550D01*
X212937287Y-89737786D01*
X212887598Y-89704585D01*
X212696420Y-89625396D01*
X212696412Y-89625394D01*
X212493469Y-89585026D01*
X212493465Y-89585026D01*
X212286535Y-89585026D01*
X212286530Y-89585026D01*
X212083587Y-89625394D01*
X212083579Y-89625396D01*
X211892403Y-89704584D01*
X211720342Y-89819550D01*
X211574024Y-89965868D01*
X211459058Y-90137929D01*
X211379870Y-90329105D01*
X211379868Y-90329113D01*
X211339500Y-90532056D01*
X210900499Y-90532056D01*
X210860130Y-90329106D01*
X210780941Y-90137928D01*
X210665977Y-89965871D01*
X210665976Y-89965870D01*
X210665975Y-89965868D01*
X210519657Y-89819550D01*
X210397287Y-89737786D01*
X210347598Y-89704585D01*
X210156420Y-89625396D01*
X210156412Y-89625394D01*
X209953469Y-89585026D01*
X209953465Y-89585026D01*
X209746535Y-89585026D01*
X209746530Y-89585026D01*
X209543587Y-89625394D01*
X209543579Y-89625396D01*
X209352403Y-89704584D01*
X209180342Y-89819550D01*
X209034022Y-89965870D01*
X208947602Y-90095209D01*
X208893990Y-90140014D01*
X208824665Y-90148721D01*
X208761638Y-90118567D01*
X208724918Y-90059124D01*
X208720500Y-90026318D01*
X208720500Y-67033998D01*
X210254500Y-67033998D01*
X210254500Y-72086002D01*
X210260338Y-72140312D01*
X210271543Y-72191818D01*
X210271546Y-72191827D01*
X210278779Y-72218192D01*
X210278783Y-72218203D01*
X210328105Y-72304818D01*
X210328110Y-72304825D01*
X210328112Y-72304828D01*
X210354580Y-72335374D01*
X210373863Y-72357628D01*
X210373866Y-72357631D01*
X210373867Y-72357632D01*
X210406641Y-72389257D01*
X210494976Y-72435465D01*
X210494977Y-72435465D01*
X210494977Y-72435466D01*
X210545105Y-72450184D01*
X210562015Y-72455150D01*
X210562019Y-72455150D01*
X210562021Y-72455151D01*
X210573652Y-72456823D01*
X210634000Y-72465500D01*
X215180500Y-72465500D01*
X215247539Y-72485185D01*
X215293294Y-72537989D01*
X215304500Y-72589500D01*
X215304500Y-77086002D01*
X215310338Y-77140312D01*
X215321543Y-77191818D01*
X215321546Y-77191827D01*
X215328779Y-77218192D01*
X215328783Y-77218203D01*
X215378105Y-77304818D01*
X215378110Y-77304825D01*
X215378112Y-77304828D01*
X215404580Y-77335374D01*
X215423863Y-77357628D01*
X215423866Y-77357631D01*
X215423867Y-77357632D01*
X215456641Y-77389257D01*
X215544976Y-77435465D01*
X215544977Y-77435465D01*
X215544977Y-77435466D01*
X215589218Y-77448456D01*
X215612015Y-77455150D01*
X215612019Y-77455150D01*
X215612021Y-77455151D01*
X215623652Y-77456823D01*
X215684000Y-77465500D01*
X215684001Y-77465500D01*
X219986000Y-77465500D01*
X220040313Y-77459661D01*
X220091824Y-77448455D01*
X220118198Y-77441219D01*
X220147074Y-77424775D01*
X220204818Y-77391894D01*
X220204819Y-77391892D01*
X220204828Y-77391888D01*
X220257632Y-77346133D01*
X220289257Y-77313359D01*
X220335465Y-77225024D01*
X220337470Y-77218198D01*
X220345215Y-77191818D01*
X220355150Y-77157985D01*
X220365500Y-77086000D01*
X220365500Y-67377899D01*
X220385185Y-67310860D01*
X220437989Y-67265105D01*
X220507147Y-67255161D01*
X220570703Y-67284186D01*
X220577181Y-67290218D01*
X224124181Y-70837218D01*
X224157666Y-70898541D01*
X224160500Y-70924899D01*
X224160500Y-78266938D01*
X224140815Y-78333977D01*
X224088011Y-78379732D01*
X224034778Y-78390926D01*
X211039279Y-78210433D01*
X211039263Y-78210434D01*
X210983141Y-78215877D01*
X210983139Y-78215877D01*
X210929914Y-78227070D01*
X210901799Y-78234678D01*
X210815177Y-78284005D01*
X210815173Y-78284008D01*
X210762371Y-78329760D01*
X210730743Y-78362537D01*
X210684534Y-78450874D01*
X210684533Y-78450874D01*
X210664851Y-78517906D01*
X210664848Y-78517918D01*
X210654500Y-78589895D01*
X210654500Y-87586002D01*
X210660338Y-87640312D01*
X210671543Y-87691818D01*
X210671546Y-87691827D01*
X210678779Y-87718192D01*
X210678783Y-87718203D01*
X210728105Y-87804818D01*
X210728110Y-87804825D01*
X210728112Y-87804828D01*
X210754580Y-87835374D01*
X210773863Y-87857628D01*
X210773866Y-87857631D01*
X210773867Y-87857632D01*
X210806641Y-87889257D01*
X210894976Y-87935465D01*
X210894977Y-87935465D01*
X210894977Y-87935466D01*
X210945105Y-87950184D01*
X210962015Y-87955150D01*
X210962019Y-87955150D01*
X210962021Y-87955151D01*
X210973652Y-87956823D01*
X211034000Y-87965500D01*
X211034001Y-87965500D01*
X223741398Y-87965500D01*
X223808437Y-87985185D01*
X223854192Y-88037989D01*
X223864136Y-88107147D01*
X223835111Y-88170703D01*
X223829079Y-88177181D01*
X223495438Y-88510823D01*
X223425526Y-88580734D01*
X223376091Y-88666357D01*
X223376091Y-88666358D01*
X223376090Y-88666360D01*
X223350500Y-88761863D01*
X223350500Y-103633435D01*
X223369799Y-103705459D01*
X223376091Y-103728941D01*
X223421643Y-103807838D01*
X223425523Y-103814559D01*
X223425528Y-103814565D01*
X228267181Y-108656218D01*
X228300666Y-108717541D01*
X228303500Y-108743899D01*
X228303500Y-108784475D01*
X228329650Y-108882067D01*
X228341017Y-108924488D01*
X228413488Y-109050011D01*
X228413490Y-109050013D01*
X228413491Y-109050015D01*
X228515985Y-109152509D01*
X228515986Y-109152510D01*
X228515988Y-109152511D01*
X228641511Y-109224982D01*
X228641512Y-109224982D01*
X228641515Y-109224984D01*
X228781525Y-109262500D01*
X228781528Y-109262500D01*
X228926472Y-109262500D01*
X228926475Y-109262500D01*
X229066485Y-109224984D01*
X229192015Y-109152509D01*
X229282819Y-109061705D01*
X229344142Y-109028220D01*
X229413834Y-109033204D01*
X229469767Y-109075076D01*
X229494184Y-109140540D01*
X229494500Y-109149386D01*
X229494500Y-109775101D01*
X229474815Y-109842140D01*
X229458181Y-109862782D01*
X227537526Y-111783436D01*
X227488091Y-111869059D01*
X227488091Y-111869060D01*
X227488090Y-111869062D01*
X227462500Y-111964565D01*
X227462500Y-111964567D01*
X227462500Y-112321614D01*
X227442815Y-112388653D01*
X227426181Y-112409295D01*
X227397493Y-112437982D01*
X227397488Y-112437988D01*
X227325017Y-112563511D01*
X227325016Y-112563515D01*
X227287500Y-112703525D01*
X227287500Y-112848475D01*
X227325016Y-112988485D01*
X227325018Y-112988492D01*
X227326079Y-112991053D01*
X227326329Y-112993385D01*
X227327120Y-112996335D01*
X227326659Y-112996458D01*
X227333545Y-113060522D01*
X227302267Y-113123000D01*
X227242176Y-113158650D01*
X227211516Y-113162500D01*
X226012900Y-113162500D01*
X225945861Y-113142815D01*
X225925219Y-113126181D01*
X222121819Y-109322781D01*
X222088334Y-109261458D01*
X222085500Y-109235100D01*
X222085500Y-92286093D01*
X222085500Y-92286091D01*
X222059910Y-92190588D01*
X222010475Y-92104964D01*
X221940562Y-92035051D01*
X221028141Y-91122630D01*
X220994656Y-91061307D01*
X220999640Y-90991615D01*
X221001237Y-90987555D01*
X221020130Y-90941946D01*
X221060500Y-90738991D01*
X221060500Y-90532061D01*
X221020130Y-90329106D01*
X220940941Y-90137928D01*
X220825977Y-89965871D01*
X220825976Y-89965870D01*
X220825975Y-89965868D01*
X220679657Y-89819550D01*
X220557287Y-89737786D01*
X220507598Y-89704585D01*
X220316420Y-89625396D01*
X220316412Y-89625394D01*
X220113469Y-89585026D01*
X220113465Y-89585026D01*
X219906535Y-89585026D01*
X219906530Y-89585026D01*
X219703587Y-89625394D01*
X219703579Y-89625396D01*
X219512403Y-89704584D01*
X219340342Y-89819550D01*
X219194024Y-89965868D01*
X219079058Y-90137929D01*
X218999870Y-90329105D01*
X218999868Y-90329113D01*
X218959500Y-90532056D01*
X218959500Y-90738995D01*
X218999868Y-90941938D01*
X218999870Y-90941946D01*
X219079058Y-91133122D01*
X219194024Y-91305183D01*
X219340342Y-91451501D01*
X219340345Y-91451503D01*
X219512402Y-91566467D01*
X219703580Y-91645656D01*
X219906530Y-91686025D01*
X219906534Y-91686026D01*
X219906535Y-91686026D01*
X220113466Y-91686026D01*
X220113467Y-91686025D01*
X220316420Y-91645656D01*
X220361972Y-91626787D01*
X220431437Y-91619318D01*
X220493917Y-91650591D01*
X220497104Y-91653667D01*
X221298181Y-92454744D01*
X221331666Y-92516067D01*
X221334500Y-92542425D01*
X221334500Y-109491435D01*
X221360090Y-109586938D01*
X221360091Y-109586939D01*
X221405788Y-109666089D01*
X221409527Y-109672565D01*
X223520398Y-111783436D01*
X225575437Y-113838475D01*
X225661063Y-113887911D01*
X225756564Y-113913500D01*
X225756565Y-113913500D01*
X236005575Y-113913500D01*
X236035015Y-113922144D01*
X236065002Y-113928668D01*
X236070017Y-113932422D01*
X236072614Y-113933185D01*
X236093256Y-113949819D01*
X236202181Y-114058744D01*
X236235666Y-114120067D01*
X236238500Y-114146425D01*
X236238500Y-115239031D01*
X236218815Y-115306070D01*
X236166011Y-115351825D01*
X236096853Y-115361769D01*
X236033297Y-115332744D01*
X236026819Y-115326712D01*
X235919657Y-115219550D01*
X235783397Y-115128505D01*
X235747598Y-115104585D01*
X235747122Y-115104388D01*
X235556420Y-115025396D01*
X235556412Y-115025394D01*
X235353469Y-114985026D01*
X235353465Y-114985026D01*
X235146535Y-114985026D01*
X235146530Y-114985026D01*
X234943587Y-115025394D01*
X234943579Y-115025396D01*
X234752403Y-115104584D01*
X234580342Y-115219550D01*
X234434024Y-115365868D01*
X234319058Y-115537929D01*
X234239870Y-115729105D01*
X234239868Y-115729113D01*
X234199500Y-115932056D01*
X234199500Y-116138995D01*
X234239868Y-116341938D01*
X234239870Y-116341946D01*
X234315499Y-116524531D01*
X234319059Y-116533124D01*
X234334141Y-116555696D01*
X234434024Y-116705183D01*
X234580342Y-116851501D01*
X234580345Y-116851503D01*
X234752402Y-116966467D01*
X234797955Y-116985335D01*
X234852355Y-117029174D01*
X234874421Y-117095468D01*
X234874500Y-117099895D01*
X234874500Y-120671555D01*
X234854815Y-120738594D01*
X234802011Y-120784349D01*
X234732853Y-120794293D01*
X234718407Y-120791330D01*
X234676284Y-120780043D01*
X234647475Y-120772324D01*
X234502525Y-120772324D01*
X234433568Y-120790801D01*
X234401475Y-120795026D01*
X231357289Y-120795026D01*
X231309838Y-120785588D01*
X231302486Y-120782542D01*
X231264351Y-120772324D01*
X231162475Y-120745026D01*
X231017525Y-120745026D01*
X230915649Y-120772324D01*
X230877511Y-120782543D01*
X230751988Y-120855014D01*
X230751982Y-120855019D01*
X230649493Y-120957508D01*
X230649488Y-120957514D01*
X230577017Y-121083037D01*
X230577016Y-121083041D01*
X230539500Y-121223051D01*
X230539500Y-121368001D01*
X230574493Y-121498595D01*
X230577017Y-121508014D01*
X230649488Y-121633537D01*
X230649490Y-121633539D01*
X230649491Y-121633541D01*
X230751985Y-121736035D01*
X230751986Y-121736036D01*
X230751988Y-121736037D01*
X230877511Y-121808508D01*
X230877512Y-121808508D01*
X230877515Y-121808510D01*
X231017525Y-121846026D01*
X231017528Y-121846026D01*
X231162472Y-121846026D01*
X231162475Y-121846026D01*
X231302485Y-121808510D01*
X231302488Y-121808507D01*
X231309838Y-121805464D01*
X231357289Y-121796026D01*
X234213202Y-121796026D01*
X234245294Y-121800251D01*
X234264750Y-121805464D01*
X234331405Y-121823324D01*
X234331406Y-121823324D01*
X234331407Y-121823324D01*
X234333337Y-121823841D01*
X234354962Y-121832799D01*
X234355005Y-121832697D01*
X234362513Y-121835807D01*
X234362515Y-121835808D01*
X234502525Y-121873324D01*
X234502528Y-121873324D01*
X234647473Y-121873324D01*
X234647475Y-121873324D01*
X234669960Y-121867299D01*
X234739807Y-121868960D01*
X234797670Y-121908121D01*
X234825176Y-121972349D01*
X234813591Y-122041252D01*
X234789734Y-122074754D01*
X230980782Y-125883707D01*
X230919459Y-125917192D01*
X230893101Y-125920026D01*
X229784386Y-125920026D01*
X229717347Y-125900341D01*
X229696705Y-125883707D01*
X229668017Y-125855019D01*
X229668011Y-125855014D01*
X229542488Y-125782543D01*
X229542489Y-125782543D01*
X229515827Y-125775399D01*
X229402475Y-125745026D01*
X229257525Y-125745026D01*
X229144173Y-125775399D01*
X229117511Y-125782543D01*
X228991988Y-125855014D01*
X228991982Y-125855019D01*
X228889493Y-125957508D01*
X228889488Y-125957514D01*
X228817017Y-126083037D01*
X228817016Y-126083041D01*
X228779500Y-126223051D01*
X228779500Y-126368001D01*
X228817016Y-126508011D01*
X228817017Y-126508014D01*
X228889488Y-126633537D01*
X228889490Y-126633539D01*
X228889491Y-126633541D01*
X228991985Y-126736035D01*
X228991986Y-126736036D01*
X228991988Y-126736037D01*
X229117511Y-126808508D01*
X229117512Y-126808508D01*
X229117515Y-126808510D01*
X229257525Y-126846026D01*
X229257528Y-126846026D01*
X229402472Y-126846026D01*
X229402475Y-126846026D01*
X229542485Y-126808510D01*
X229668015Y-126736035D01*
X229696705Y-126707345D01*
X229758028Y-126673860D01*
X229784386Y-126671026D01*
X231149434Y-126671026D01*
X231149436Y-126671026D01*
X231198008Y-126658011D01*
X231205458Y-126656015D01*
X231218617Y-126652488D01*
X231244938Y-126645436D01*
X231330562Y-126596001D01*
X231400475Y-126526088D01*
X231738829Y-126187732D01*
X231800152Y-126154248D01*
X231869843Y-126159232D01*
X231925777Y-126201103D01*
X231946283Y-126243316D01*
X231976020Y-126354294D01*
X231977017Y-126358014D01*
X232049488Y-126483537D01*
X232049490Y-126483539D01*
X232049491Y-126483541D01*
X232151985Y-126586035D01*
X232151986Y-126586036D01*
X232151988Y-126586037D01*
X232277511Y-126658508D01*
X232277512Y-126658508D01*
X232277515Y-126658510D01*
X232417525Y-126696026D01*
X232417528Y-126696026D01*
X232562472Y-126696026D01*
X232562475Y-126696026D01*
X232702485Y-126658510D01*
X232828015Y-126586035D01*
X232930509Y-126483541D01*
X233002984Y-126358011D01*
X233040500Y-126218001D01*
X233040500Y-126073051D01*
X233002984Y-125933041D01*
X233002982Y-125933037D01*
X232970229Y-125876307D01*
X232953756Y-125808407D01*
X232976608Y-125742380D01*
X232989929Y-125726632D01*
X236914475Y-121802089D01*
X236963911Y-121716463D01*
X236989500Y-121620962D01*
X236989500Y-121522090D01*
X236989500Y-116996062D01*
X237009185Y-116929023D01*
X237061989Y-116883268D01*
X237131147Y-116873324D01*
X237182389Y-116892959D01*
X237292402Y-116966467D01*
X237483580Y-117045656D01*
X237686530Y-117086025D01*
X237686534Y-117086026D01*
X237686535Y-117086026D01*
X237893466Y-117086026D01*
X237893467Y-117086025D01*
X238096420Y-117045656D01*
X238287598Y-116966467D01*
X238459655Y-116851503D01*
X238605977Y-116705181D01*
X238720941Y-116533124D01*
X238800130Y-116341946D01*
X238840500Y-116138991D01*
X238840500Y-115932061D01*
X238840499Y-115932056D01*
X241819500Y-115932056D01*
X241819500Y-116138995D01*
X241859868Y-116341938D01*
X241859870Y-116341946D01*
X241935499Y-116524531D01*
X241939059Y-116533124D01*
X241954141Y-116555696D01*
X242054024Y-116705183D01*
X242200342Y-116851501D01*
X242200345Y-116851503D01*
X242372402Y-116966467D01*
X242417955Y-116985335D01*
X242472355Y-117029174D01*
X242494421Y-117095468D01*
X242494500Y-117099895D01*
X242494500Y-118971140D01*
X242474815Y-119038179D01*
X242458181Y-119058821D01*
X242429493Y-119087508D01*
X242429488Y-119087514D01*
X242357018Y-119213036D01*
X242357017Y-119213036D01*
X242357016Y-119213041D01*
X242319500Y-119353051D01*
X242319500Y-119498001D01*
X242330064Y-119537425D01*
X242357017Y-119638014D01*
X242429488Y-119763537D01*
X242429490Y-119763539D01*
X242429491Y-119763541D01*
X242531985Y-119866035D01*
X242531986Y-119866036D01*
X242531988Y-119866037D01*
X242657511Y-119938508D01*
X242657512Y-119938508D01*
X242657515Y-119938510D01*
X242797525Y-119976026D01*
X242797528Y-119976026D01*
X242942472Y-119976026D01*
X242942475Y-119976026D01*
X243082485Y-119938510D01*
X243208015Y-119866035D01*
X243310509Y-119763541D01*
X243382984Y-119638011D01*
X243420500Y-119498001D01*
X243420500Y-119353051D01*
X243382984Y-119213041D01*
X243382982Y-119213038D01*
X243382982Y-119213036D01*
X243310511Y-119087514D01*
X243310506Y-119087508D01*
X243281819Y-119058821D01*
X243248334Y-118997498D01*
X243245500Y-118971140D01*
X243245500Y-117099895D01*
X243265185Y-117032856D01*
X243317989Y-116987101D01*
X243321992Y-116985357D01*
X243367598Y-116966467D01*
X243539655Y-116851503D01*
X243685977Y-116705181D01*
X243800941Y-116533124D01*
X243880130Y-116341946D01*
X243920500Y-116138991D01*
X243920500Y-115932061D01*
X243880130Y-115729106D01*
X243800941Y-115537928D01*
X243685977Y-115365871D01*
X243685975Y-115365868D01*
X243539657Y-115219550D01*
X243403397Y-115128505D01*
X243367598Y-115104585D01*
X243367122Y-115104388D01*
X243176420Y-115025396D01*
X243176412Y-115025394D01*
X242973469Y-114985026D01*
X242973465Y-114985026D01*
X242766535Y-114985026D01*
X242766530Y-114985026D01*
X242563587Y-115025394D01*
X242563579Y-115025396D01*
X242372403Y-115104584D01*
X242200342Y-115219550D01*
X242054024Y-115365868D01*
X241939058Y-115537929D01*
X241859870Y-115729105D01*
X241859868Y-115729113D01*
X241819500Y-115932056D01*
X238840499Y-115932056D01*
X238800130Y-115729106D01*
X238720941Y-115537928D01*
X238605977Y-115365871D01*
X238605975Y-115365868D01*
X238459657Y-115219550D01*
X238323397Y-115128505D01*
X238287598Y-115104585D01*
X238287122Y-115104388D01*
X238096420Y-115025396D01*
X238096412Y-115025394D01*
X237893469Y-114985026D01*
X237893465Y-114985026D01*
X237686535Y-114985026D01*
X237686530Y-114985026D01*
X237483587Y-115025394D01*
X237483579Y-115025396D01*
X237292403Y-115104584D01*
X237182390Y-115178092D01*
X237115713Y-115198969D01*
X237048333Y-115180484D01*
X237001643Y-115128505D01*
X236989500Y-115074989D01*
X236989500Y-113890094D01*
X236989499Y-113890087D01*
X236975670Y-113838475D01*
X236963911Y-113794589D01*
X236914475Y-113708964D01*
X236443037Y-113237526D01*
X236443036Y-113237525D01*
X236357412Y-113188090D01*
X236309660Y-113175295D01*
X236309658Y-113175294D01*
X236309656Y-113175293D01*
X236261910Y-113162500D01*
X236261909Y-113162500D01*
X228464484Y-113162500D01*
X228397445Y-113142815D01*
X228351690Y-113090011D01*
X228341746Y-113020853D01*
X228349921Y-112991053D01*
X228350981Y-112988492D01*
X228350981Y-112988488D01*
X228350984Y-112988485D01*
X228388500Y-112848475D01*
X228388500Y-112703525D01*
X228350984Y-112563515D01*
X228278509Y-112437985D01*
X228249819Y-112409295D01*
X228235115Y-112382367D01*
X228218523Y-112356549D01*
X228217631Y-112350348D01*
X228216334Y-112347972D01*
X228213500Y-112321614D01*
X228213500Y-112220899D01*
X228233185Y-112153860D01*
X228249819Y-112133218D01*
X228669512Y-111713525D01*
X230170474Y-110212563D01*
X230180636Y-110194962D01*
X230219910Y-110126938D01*
X230245500Y-110031435D01*
X230245500Y-107392565D01*
X230219910Y-107297062D01*
X230170475Y-107211438D01*
X230100562Y-107141525D01*
X226725819Y-103766782D01*
X226692334Y-103705459D01*
X226689500Y-103679101D01*
X226689500Y-101038386D01*
X226709185Y-100971347D01*
X226725819Y-100950705D01*
X226754509Y-100922015D01*
X226826984Y-100796485D01*
X226864500Y-100656475D01*
X226864500Y-100511525D01*
X226826984Y-100371515D01*
X226754509Y-100245985D01*
X226652015Y-100143491D01*
X226652013Y-100143490D01*
X226652011Y-100143488D01*
X226526488Y-100071017D01*
X226526489Y-100071017D01*
X226515006Y-100067940D01*
X226386475Y-100033500D01*
X226241525Y-100033500D01*
X226112993Y-100067940D01*
X226101511Y-100071017D01*
X225975988Y-100143488D01*
X225975982Y-100143493D01*
X225873493Y-100245982D01*
X225873488Y-100245988D01*
X225801017Y-100371511D01*
X225801016Y-100371515D01*
X225763500Y-100511525D01*
X225763500Y-100656475D01*
X225801016Y-100796485D01*
X225801017Y-100796488D01*
X225873488Y-100922011D01*
X225873493Y-100922017D01*
X225902181Y-100950705D01*
X225935666Y-101012028D01*
X225938500Y-101038386D01*
X225938500Y-103935438D01*
X225944040Y-103956112D01*
X225944040Y-103956114D01*
X225944041Y-103956114D01*
X225964091Y-104030941D01*
X226005070Y-104101919D01*
X226013522Y-104116557D01*
X226013528Y-104116566D01*
X229458181Y-107561218D01*
X229491666Y-107622541D01*
X229494500Y-107648899D01*
X229494500Y-108274614D01*
X229474815Y-108341653D01*
X229422011Y-108387408D01*
X229352853Y-108397352D01*
X229289297Y-108368327D01*
X229282819Y-108362295D01*
X229192017Y-108271493D01*
X229192011Y-108271488D01*
X229066488Y-108199017D01*
X229066489Y-108199017D01*
X229055006Y-108195940D01*
X228926475Y-108161500D01*
X228926472Y-108161500D01*
X228885899Y-108161500D01*
X228818860Y-108141815D01*
X228798218Y-108125181D01*
X224137819Y-103464782D01*
X224104334Y-103403459D01*
X224101500Y-103377101D01*
X224101500Y-91432021D01*
X224121185Y-91364982D01*
X224173989Y-91319227D01*
X224243147Y-91309283D01*
X224306703Y-91338308D01*
X224313181Y-91344340D01*
X224420342Y-91451501D01*
X224420345Y-91451503D01*
X224592402Y-91566467D01*
X224783580Y-91645656D01*
X224986530Y-91686025D01*
X224986534Y-91686026D01*
X224986535Y-91686026D01*
X225193466Y-91686026D01*
X225193467Y-91686025D01*
X225396420Y-91645656D01*
X225587598Y-91566467D01*
X225759655Y-91451503D01*
X225905977Y-91305181D01*
X226020941Y-91133124D01*
X226100130Y-90941946D01*
X226140500Y-90738991D01*
X226140500Y-90532061D01*
X226140499Y-90532056D01*
X226579500Y-90532056D01*
X226579500Y-90738995D01*
X226619868Y-90941938D01*
X226619870Y-90941946D01*
X226699058Y-91133122D01*
X226814024Y-91305183D01*
X226960342Y-91451501D01*
X226960345Y-91451503D01*
X227132402Y-91566467D01*
X227177955Y-91585335D01*
X227232355Y-91629174D01*
X227254421Y-91695468D01*
X227254500Y-91699895D01*
X227254500Y-93534962D01*
X227264046Y-93570589D01*
X227267295Y-93582712D01*
X227280090Y-93630464D01*
X227306381Y-93676001D01*
X227329526Y-93716089D01*
X229069437Y-95456001D01*
X229155063Y-95505437D01*
X229250564Y-95531026D01*
X229250565Y-95531026D01*
X234083101Y-95531026D01*
X234150140Y-95550711D01*
X234170782Y-95567345D01*
X244010502Y-105407066D01*
X244010508Y-105407071D01*
X246188181Y-107584744D01*
X246221666Y-107646067D01*
X246224500Y-107672425D01*
X246224500Y-115084343D01*
X246204815Y-115151382D01*
X246152011Y-115197137D01*
X246082853Y-115207081D01*
X246031610Y-115187446D01*
X245943397Y-115128505D01*
X245907598Y-115104585D01*
X245907122Y-115104388D01*
X245716420Y-115025396D01*
X245716412Y-115025394D01*
X245513469Y-114985026D01*
X245513465Y-114985026D01*
X245306535Y-114985026D01*
X245306530Y-114985026D01*
X245103587Y-115025394D01*
X245103579Y-115025396D01*
X244912403Y-115104584D01*
X244740342Y-115219550D01*
X244594024Y-115365868D01*
X244479058Y-115537929D01*
X244399870Y-115729105D01*
X244399868Y-115729113D01*
X244359500Y-115932056D01*
X244359500Y-116138995D01*
X244399868Y-116341938D01*
X244399870Y-116341946D01*
X244475499Y-116524531D01*
X244479059Y-116533124D01*
X244494141Y-116555696D01*
X244594024Y-116705183D01*
X244740342Y-116851501D01*
X244740345Y-116851503D01*
X244912402Y-116966467D01*
X245103580Y-117045656D01*
X245306530Y-117086025D01*
X245306534Y-117086026D01*
X245306535Y-117086026D01*
X245513466Y-117086026D01*
X245513467Y-117086025D01*
X245716420Y-117045656D01*
X245907598Y-116966467D01*
X246017610Y-116892960D01*
X246031610Y-116883606D01*
X246098287Y-116862728D01*
X246165667Y-116881213D01*
X246212357Y-116933192D01*
X246224500Y-116986708D01*
X246224500Y-121954961D01*
X246245504Y-122033350D01*
X246250091Y-122050468D01*
X246250092Y-122050469D01*
X246284123Y-122109411D01*
X246284124Y-122109412D01*
X246299526Y-122136089D01*
X246299528Y-122136091D01*
X246723181Y-122559744D01*
X246756666Y-122621067D01*
X246759500Y-122647425D01*
X246759500Y-122688001D01*
X246787451Y-122792314D01*
X246797017Y-122828014D01*
X246869488Y-122953537D01*
X246869490Y-122953539D01*
X246869491Y-122953541D01*
X246971985Y-123056035D01*
X246971986Y-123056036D01*
X246971988Y-123056037D01*
X247097511Y-123128508D01*
X247097512Y-123128508D01*
X247097515Y-123128510D01*
X247237525Y-123166026D01*
X247237528Y-123166026D01*
X247382472Y-123166026D01*
X247382475Y-123166026D01*
X247522485Y-123128510D01*
X247648015Y-123056035D01*
X247750509Y-122953541D01*
X247822984Y-122828011D01*
X247860500Y-122688001D01*
X247860500Y-122543051D01*
X247822984Y-122403041D01*
X247807390Y-122376032D01*
X247750511Y-122277514D01*
X247750506Y-122277508D01*
X247697712Y-122224714D01*
X247664227Y-122163391D01*
X247669211Y-122093699D01*
X247711083Y-122037766D01*
X247776547Y-122013349D01*
X247817479Y-122017257D01*
X247887525Y-122036026D01*
X247887529Y-122036026D01*
X248032472Y-122036026D01*
X248032475Y-122036026D01*
X248145520Y-122005735D01*
X248215368Y-122007398D01*
X248273231Y-122046560D01*
X248297386Y-122093415D01*
X248312015Y-122148009D01*
X248312017Y-122148014D01*
X248384488Y-122273537D01*
X248384490Y-122273539D01*
X248384491Y-122273541D01*
X248486985Y-122376035D01*
X248486986Y-122376036D01*
X248486988Y-122376037D01*
X248612511Y-122448508D01*
X248612512Y-122448508D01*
X248612515Y-122448510D01*
X248752525Y-122486026D01*
X248752528Y-122486026D01*
X248897472Y-122486026D01*
X248897475Y-122486026D01*
X249037485Y-122448510D01*
X249163015Y-122376035D01*
X249265509Y-122273541D01*
X249337984Y-122148011D01*
X249375500Y-122008001D01*
X249375500Y-121967425D01*
X249395185Y-121900386D01*
X249411819Y-121879744D01*
X250708512Y-120583051D01*
X252020474Y-119271089D01*
X252053988Y-119213041D01*
X252069910Y-119185464D01*
X252095500Y-119089961D01*
X252095500Y-117286091D01*
X252095500Y-116886021D01*
X252115185Y-116818982D01*
X252167989Y-116773227D01*
X252237147Y-116763283D01*
X252300703Y-116792308D01*
X252307181Y-116798340D01*
X252360342Y-116851501D01*
X252360345Y-116851503D01*
X252532402Y-116966467D01*
X252723580Y-117045656D01*
X252926530Y-117086025D01*
X252926534Y-117086026D01*
X252926535Y-117086026D01*
X253133466Y-117086026D01*
X253133467Y-117086025D01*
X253336420Y-117045656D01*
X253527598Y-116966467D01*
X253527599Y-116966466D01*
X253527600Y-116966466D01*
X253681610Y-116863561D01*
X253748287Y-116842683D01*
X253815667Y-116861168D01*
X253862357Y-116913147D01*
X253874500Y-116966663D01*
X253874500Y-123418627D01*
X253854815Y-123485666D01*
X253838181Y-123506308D01*
X251485782Y-125858707D01*
X251424459Y-125892192D01*
X251398101Y-125895026D01*
X251357525Y-125895026D01*
X251228993Y-125929466D01*
X251217511Y-125932543D01*
X251091988Y-126005014D01*
X251091982Y-126005019D01*
X250989493Y-126107508D01*
X250989488Y-126107514D01*
X250917017Y-126233037D01*
X250917016Y-126233041D01*
X250879500Y-126373051D01*
X250879500Y-126518001D01*
X250916481Y-126656015D01*
X250917017Y-126658014D01*
X250989488Y-126783537D01*
X250989490Y-126783539D01*
X250989491Y-126783541D01*
X251091985Y-126886035D01*
X251091986Y-126886036D01*
X251091988Y-126886037D01*
X251217511Y-126958508D01*
X251217512Y-126958508D01*
X251217515Y-126958510D01*
X251357525Y-126996026D01*
X251357528Y-126996026D01*
X251502472Y-126996026D01*
X251502475Y-126996026D01*
X251642485Y-126958510D01*
X251768015Y-126886035D01*
X251870509Y-126783541D01*
X251879726Y-126767575D01*
X251930292Y-126719361D01*
X251998898Y-126706137D01*
X252063764Y-126732105D01*
X252094500Y-126767576D01*
X252109491Y-126793541D01*
X252211985Y-126896035D01*
X252211986Y-126896036D01*
X252211988Y-126896037D01*
X252337511Y-126968508D01*
X252337512Y-126968508D01*
X252337515Y-126968510D01*
X252477525Y-127006026D01*
X252477528Y-127006026D01*
X252622472Y-127006026D01*
X252622475Y-127006026D01*
X252762485Y-126968510D01*
X252888015Y-126896035D01*
X252972319Y-126811731D01*
X253033642Y-126778246D01*
X253103334Y-126783230D01*
X253147681Y-126811731D01*
X253211985Y-126876035D01*
X253211986Y-126876036D01*
X253211988Y-126876037D01*
X253337511Y-126948508D01*
X253337512Y-126948508D01*
X253337515Y-126948510D01*
X253477525Y-126986026D01*
X253477528Y-126986026D01*
X253622472Y-126986026D01*
X253622475Y-126986026D01*
X253762485Y-126948510D01*
X253888015Y-126876035D01*
X253990509Y-126773541D01*
X254062984Y-126648011D01*
X254100500Y-126508001D01*
X254100500Y-126467425D01*
X254120185Y-126400386D01*
X254136819Y-126379744D01*
X255847648Y-124668915D01*
X260629500Y-124668915D01*
X260629500Y-124842137D01*
X260656598Y-125013227D01*
X260710127Y-125177971D01*
X260788768Y-125332314D01*
X260890586Y-125472454D01*
X261013072Y-125594940D01*
X261153212Y-125696758D01*
X261307555Y-125775399D01*
X261472299Y-125828928D01*
X261643389Y-125856026D01*
X261643390Y-125856026D01*
X261816610Y-125856026D01*
X261816611Y-125856026D01*
X261987701Y-125828928D01*
X262152445Y-125775399D01*
X262306788Y-125696758D01*
X262446928Y-125594940D01*
X262569414Y-125472454D01*
X262671232Y-125332314D01*
X262749873Y-125177971D01*
X262803402Y-125013227D01*
X262830500Y-124842137D01*
X262830500Y-124668915D01*
X262803402Y-124497825D01*
X262749873Y-124333081D01*
X262671232Y-124178738D01*
X262569414Y-124038598D01*
X262446928Y-123916112D01*
X262306788Y-123814294D01*
X262152445Y-123735653D01*
X261987701Y-123682124D01*
X261987699Y-123682123D01*
X261987698Y-123682123D01*
X261856271Y-123661307D01*
X261816611Y-123655026D01*
X261643389Y-123655026D01*
X261603728Y-123661307D01*
X261472302Y-123682123D01*
X261307552Y-123735654D01*
X261153211Y-123814294D01*
X261095686Y-123856089D01*
X261013072Y-123916112D01*
X261013070Y-123916114D01*
X261013069Y-123916114D01*
X260890588Y-124038595D01*
X260890588Y-124038596D01*
X260890586Y-124038598D01*
X260846859Y-124098782D01*
X260788768Y-124178737D01*
X260710128Y-124333078D01*
X260656597Y-124497828D01*
X260629500Y-124668915D01*
X255847648Y-124668915D01*
X258387648Y-122128915D01*
X260629500Y-122128915D01*
X260629500Y-122302136D01*
X260645481Y-122403041D01*
X260656598Y-122473227D01*
X260710127Y-122637971D01*
X260788768Y-122792314D01*
X260890586Y-122932454D01*
X261013072Y-123054940D01*
X261153212Y-123156758D01*
X261307555Y-123235399D01*
X261472299Y-123288928D01*
X261643389Y-123316026D01*
X261643390Y-123316026D01*
X261816610Y-123316026D01*
X261816611Y-123316026D01*
X261987701Y-123288928D01*
X262152445Y-123235399D01*
X262306788Y-123156758D01*
X262446928Y-123054940D01*
X262569414Y-122932454D01*
X262671232Y-122792314D01*
X262749873Y-122637971D01*
X262803402Y-122473227D01*
X262830500Y-122302137D01*
X262830500Y-122128915D01*
X262803402Y-121957825D01*
X262749873Y-121793081D01*
X262671232Y-121638738D01*
X262569414Y-121498598D01*
X262446928Y-121376112D01*
X262306788Y-121274294D01*
X262152445Y-121195653D01*
X261987701Y-121142124D01*
X261987699Y-121142123D01*
X261987698Y-121142123D01*
X261837099Y-121118271D01*
X261816611Y-121115026D01*
X261643389Y-121115026D01*
X261622901Y-121118271D01*
X261472302Y-121142123D01*
X261307552Y-121195654D01*
X261153211Y-121274294D01*
X261082677Y-121325541D01*
X261013072Y-121376112D01*
X261013070Y-121376114D01*
X261013069Y-121376114D01*
X260890588Y-121498595D01*
X260890588Y-121498596D01*
X260890586Y-121498598D01*
X260883747Y-121508011D01*
X260788768Y-121638737D01*
X260710128Y-121793078D01*
X260710127Y-121793080D01*
X260710127Y-121793081D01*
X260701351Y-121820090D01*
X260656597Y-121957828D01*
X260629500Y-122128915D01*
X258387648Y-122128915D01*
X258480201Y-122036362D01*
X258585459Y-121931104D01*
X258696474Y-121820089D01*
X258696475Y-121820088D01*
X258745910Y-121734464D01*
X258766154Y-121658913D01*
X258771500Y-121638962D01*
X258771500Y-121540090D01*
X258771500Y-121306794D01*
X258791185Y-121239755D01*
X258843989Y-121194000D01*
X258913147Y-121184056D01*
X258927580Y-121187016D01*
X258998525Y-121206026D01*
X258998528Y-121206026D01*
X259143472Y-121206026D01*
X259143475Y-121206026D01*
X259283485Y-121168510D01*
X259409015Y-121096035D01*
X259511509Y-120993541D01*
X259583984Y-120868011D01*
X259621500Y-120728001D01*
X259621500Y-120583051D01*
X259583984Y-120443041D01*
X259583983Y-120443039D01*
X259580937Y-120435685D01*
X259571500Y-120388236D01*
X259571500Y-119588915D01*
X260629500Y-119588915D01*
X260629500Y-119762137D01*
X260656598Y-119933227D01*
X260710127Y-120097971D01*
X260788768Y-120252314D01*
X260890586Y-120392454D01*
X261013072Y-120514940D01*
X261153212Y-120616758D01*
X261307555Y-120695399D01*
X261472299Y-120748928D01*
X261643389Y-120776026D01*
X261643390Y-120776026D01*
X261816610Y-120776026D01*
X261816611Y-120776026D01*
X261987701Y-120748928D01*
X262152445Y-120695399D01*
X262306788Y-120616758D01*
X262446928Y-120514940D01*
X262569414Y-120392454D01*
X262671232Y-120252314D01*
X262749873Y-120097971D01*
X262803402Y-119933227D01*
X262830500Y-119762137D01*
X262830500Y-119588915D01*
X262803402Y-119417825D01*
X262749873Y-119253081D01*
X262671232Y-119098738D01*
X262569414Y-118958598D01*
X262446928Y-118836112D01*
X262306788Y-118734294D01*
X262152445Y-118655653D01*
X261987701Y-118602124D01*
X261987699Y-118602123D01*
X261987698Y-118602123D01*
X261856271Y-118581307D01*
X261816611Y-118575026D01*
X261643389Y-118575026D01*
X261603728Y-118581307D01*
X261472302Y-118602123D01*
X261307552Y-118655654D01*
X261153211Y-118734294D01*
X261073256Y-118792385D01*
X261013072Y-118836112D01*
X261013070Y-118836114D01*
X261013069Y-118836114D01*
X260890588Y-118958595D01*
X260890588Y-118958596D01*
X260890586Y-118958598D01*
X260846859Y-119018782D01*
X260788768Y-119098737D01*
X260710128Y-119253078D01*
X260656597Y-119417828D01*
X260648273Y-119470386D01*
X260629500Y-119588915D01*
X259571500Y-119588915D01*
X259571500Y-117513202D01*
X259591185Y-117446163D01*
X259607819Y-117425521D01*
X261300995Y-115732345D01*
X261362318Y-115698860D01*
X261388676Y-115696026D01*
X262604676Y-115696026D01*
X262604677Y-115696025D01*
X262677740Y-115681492D01*
X262760601Y-115626127D01*
X262815966Y-115543266D01*
X262830500Y-115470200D01*
X262830500Y-113720852D01*
X262830500Y-113720849D01*
X262830499Y-113720847D01*
X262815967Y-113647790D01*
X262815966Y-113647786D01*
X262760601Y-113564925D01*
X262677740Y-113509560D01*
X262677739Y-113509559D01*
X262677735Y-113509558D01*
X262604677Y-113495026D01*
X262604674Y-113495026D01*
X260855326Y-113495026D01*
X260855323Y-113495026D01*
X260782264Y-113509558D01*
X260782260Y-113509559D01*
X260699399Y-113564925D01*
X260644033Y-113647786D01*
X260644032Y-113647790D01*
X260629500Y-113720847D01*
X260629500Y-114936850D01*
X260609815Y-115003889D01*
X260593181Y-115024531D01*
X258983181Y-116634531D01*
X258921858Y-116668016D01*
X258852166Y-116663032D01*
X258796233Y-116621160D01*
X258771816Y-116555696D01*
X258771500Y-116546850D01*
X258771500Y-108652090D01*
X258771197Y-108650962D01*
X258771184Y-108650913D01*
X258750135Y-108572356D01*
X258750135Y-108572355D01*
X258745910Y-108556590D01*
X258745910Y-108556589D01*
X258745910Y-108556588D01*
X258696475Y-108470964D01*
X258626562Y-108401051D01*
X241348141Y-91122630D01*
X241314656Y-91061307D01*
X241319640Y-90991615D01*
X241321237Y-90987555D01*
X241340130Y-90941946D01*
X241380500Y-90738991D01*
X241380500Y-90532061D01*
X241380499Y-90532056D01*
X241819500Y-90532056D01*
X241819500Y-90738995D01*
X241859868Y-90941938D01*
X241859870Y-90941946D01*
X241939058Y-91133122D01*
X242054024Y-91305183D01*
X242200342Y-91451501D01*
X242200345Y-91451503D01*
X242372402Y-91566467D01*
X242563580Y-91645656D01*
X242766530Y-91686025D01*
X242766534Y-91686026D01*
X242766535Y-91686026D01*
X242973466Y-91686026D01*
X242973467Y-91686025D01*
X243176420Y-91645656D01*
X243367598Y-91566467D01*
X243539655Y-91451503D01*
X243685977Y-91305181D01*
X243800941Y-91133124D01*
X243880130Y-90941946D01*
X243920500Y-90738991D01*
X243920500Y-90532061D01*
X243920499Y-90532056D01*
X244359500Y-90532056D01*
X244359500Y-90738995D01*
X244399868Y-90941938D01*
X244399870Y-90941946D01*
X244479058Y-91133122D01*
X244594024Y-91305183D01*
X244740342Y-91451501D01*
X244740345Y-91451503D01*
X244912402Y-91566467D01*
X245103580Y-91645656D01*
X245306530Y-91686025D01*
X245306534Y-91686026D01*
X245306535Y-91686026D01*
X245513466Y-91686026D01*
X245513467Y-91686025D01*
X245716420Y-91645656D01*
X245907598Y-91566467D01*
X246079655Y-91451503D01*
X246225977Y-91305181D01*
X246340941Y-91133124D01*
X246420130Y-90941946D01*
X246460500Y-90738991D01*
X246460500Y-90532061D01*
X246460499Y-90532056D01*
X246899500Y-90532056D01*
X246899500Y-90738995D01*
X246939868Y-90941938D01*
X246939870Y-90941946D01*
X247019058Y-91133122D01*
X247134024Y-91305183D01*
X247280342Y-91451501D01*
X247280345Y-91451503D01*
X247452402Y-91566467D01*
X247643580Y-91645656D01*
X247846530Y-91686025D01*
X247846534Y-91686026D01*
X247846535Y-91686026D01*
X248053466Y-91686026D01*
X248053467Y-91686025D01*
X248256420Y-91645656D01*
X248447598Y-91566467D01*
X248619655Y-91451503D01*
X248765977Y-91305181D01*
X248880941Y-91133124D01*
X248960130Y-90941946D01*
X249000500Y-90738991D01*
X249000500Y-90532061D01*
X249000499Y-90532056D01*
X249439500Y-90532056D01*
X249439500Y-90738995D01*
X249479868Y-90941938D01*
X249479870Y-90941946D01*
X249559058Y-91133122D01*
X249674024Y-91305183D01*
X249820342Y-91451501D01*
X249820345Y-91451503D01*
X249992402Y-91566467D01*
X250183580Y-91645656D01*
X250386530Y-91686025D01*
X250386534Y-91686026D01*
X250386535Y-91686026D01*
X250593466Y-91686026D01*
X250593467Y-91686025D01*
X250796420Y-91645656D01*
X250987598Y-91566467D01*
X251159655Y-91451503D01*
X251305977Y-91305181D01*
X251420941Y-91133124D01*
X251500130Y-90941946D01*
X251540500Y-90738991D01*
X251540500Y-90532061D01*
X251540499Y-90532056D01*
X251979500Y-90532056D01*
X251979500Y-90738995D01*
X252019868Y-90941938D01*
X252019870Y-90941946D01*
X252099058Y-91133122D01*
X252214024Y-91305183D01*
X252360342Y-91451501D01*
X252360345Y-91451503D01*
X252532402Y-91566467D01*
X252723580Y-91645656D01*
X252926530Y-91686025D01*
X252926534Y-91686026D01*
X252926535Y-91686026D01*
X253133466Y-91686026D01*
X253133467Y-91686025D01*
X253336420Y-91645656D01*
X253527598Y-91566467D01*
X253699655Y-91451503D01*
X253845977Y-91305181D01*
X253960941Y-91133124D01*
X254040130Y-90941946D01*
X254080500Y-90738991D01*
X254080500Y-90532061D01*
X254040130Y-90329106D01*
X253960941Y-90137928D01*
X253845977Y-89965871D01*
X253845976Y-89965870D01*
X253845975Y-89965868D01*
X253699657Y-89819550D01*
X253686632Y-89810847D01*
X254519500Y-89810847D01*
X254519500Y-91460204D01*
X254534032Y-91533261D01*
X254534033Y-91533265D01*
X254534034Y-91533266D01*
X254589399Y-91616127D01*
X254633595Y-91645657D01*
X254672260Y-91671492D01*
X254672264Y-91671493D01*
X254745321Y-91686025D01*
X254745324Y-91686026D01*
X254745326Y-91686026D01*
X256394676Y-91686026D01*
X256394677Y-91686025D01*
X256467740Y-91671492D01*
X256550601Y-91616127D01*
X256605966Y-91533266D01*
X256620500Y-91460200D01*
X256620500Y-89810852D01*
X256620500Y-89810849D01*
X256620499Y-89810847D01*
X256605967Y-89737790D01*
X256605966Y-89737786D01*
X256583782Y-89704585D01*
X256550601Y-89654925D01*
X256467740Y-89599560D01*
X256467739Y-89599559D01*
X256467735Y-89599558D01*
X256394677Y-89585026D01*
X256394674Y-89585026D01*
X254745326Y-89585026D01*
X254745323Y-89585026D01*
X254672264Y-89599558D01*
X254672260Y-89599559D01*
X254589399Y-89654925D01*
X254534033Y-89737786D01*
X254534032Y-89737790D01*
X254519500Y-89810847D01*
X253686632Y-89810847D01*
X253577287Y-89737786D01*
X253527598Y-89704585D01*
X253336420Y-89625396D01*
X253336412Y-89625394D01*
X253133469Y-89585026D01*
X253133465Y-89585026D01*
X252926535Y-89585026D01*
X252926530Y-89585026D01*
X252723587Y-89625394D01*
X252723579Y-89625396D01*
X252532403Y-89704584D01*
X252360342Y-89819550D01*
X252214024Y-89965868D01*
X252099058Y-90137929D01*
X252019870Y-90329105D01*
X252019868Y-90329113D01*
X251979500Y-90532056D01*
X251540499Y-90532056D01*
X251500130Y-90329106D01*
X251420941Y-90137928D01*
X251305977Y-89965871D01*
X251305976Y-89965870D01*
X251305975Y-89965868D01*
X251159657Y-89819550D01*
X251037287Y-89737786D01*
X250987598Y-89704585D01*
X250796420Y-89625396D01*
X250796412Y-89625394D01*
X250593469Y-89585026D01*
X250593465Y-89585026D01*
X250386535Y-89585026D01*
X250386530Y-89585026D01*
X250183587Y-89625394D01*
X250183579Y-89625396D01*
X249992403Y-89704584D01*
X249820342Y-89819550D01*
X249674024Y-89965868D01*
X249559058Y-90137929D01*
X249479870Y-90329105D01*
X249479868Y-90329113D01*
X249439500Y-90532056D01*
X249000499Y-90532056D01*
X248960130Y-90329106D01*
X248880941Y-90137928D01*
X248765977Y-89965871D01*
X248765976Y-89965870D01*
X248765975Y-89965868D01*
X248619657Y-89819550D01*
X248497287Y-89737786D01*
X248447598Y-89704585D01*
X248256420Y-89625396D01*
X248256412Y-89625394D01*
X248053469Y-89585026D01*
X248053465Y-89585026D01*
X247846535Y-89585026D01*
X247846530Y-89585026D01*
X247643587Y-89625394D01*
X247643579Y-89625396D01*
X247452403Y-89704584D01*
X247280342Y-89819550D01*
X247134024Y-89965868D01*
X247019058Y-90137929D01*
X246939870Y-90329105D01*
X246939868Y-90329113D01*
X246899500Y-90532056D01*
X246460499Y-90532056D01*
X246420130Y-90329106D01*
X246340941Y-90137928D01*
X246225977Y-89965871D01*
X246225976Y-89965870D01*
X246225975Y-89965868D01*
X246079657Y-89819550D01*
X245957287Y-89737786D01*
X245907598Y-89704585D01*
X245716420Y-89625396D01*
X245716412Y-89625394D01*
X245513469Y-89585026D01*
X245513465Y-89585026D01*
X245306535Y-89585026D01*
X245306530Y-89585026D01*
X245103587Y-89625394D01*
X245103579Y-89625396D01*
X244912403Y-89704584D01*
X244740342Y-89819550D01*
X244594024Y-89965868D01*
X244479058Y-90137929D01*
X244399870Y-90329105D01*
X244399868Y-90329113D01*
X244359500Y-90532056D01*
X243920499Y-90532056D01*
X243880130Y-90329106D01*
X243800941Y-90137928D01*
X243685977Y-89965871D01*
X243685976Y-89965870D01*
X243685975Y-89965868D01*
X243539657Y-89819550D01*
X243417287Y-89737786D01*
X243367598Y-89704585D01*
X243176420Y-89625396D01*
X243176412Y-89625394D01*
X242973469Y-89585026D01*
X242973465Y-89585026D01*
X242766535Y-89585026D01*
X242766530Y-89585026D01*
X242563587Y-89625394D01*
X242563579Y-89625396D01*
X242372403Y-89704584D01*
X242200342Y-89819550D01*
X242054024Y-89965868D01*
X241939058Y-90137929D01*
X241859870Y-90329105D01*
X241859868Y-90329113D01*
X241819500Y-90532056D01*
X241380499Y-90532056D01*
X241340130Y-90329106D01*
X241260941Y-90137928D01*
X241145977Y-89965871D01*
X241145976Y-89965870D01*
X241145975Y-89965868D01*
X240999657Y-89819550D01*
X240877287Y-89737786D01*
X240827598Y-89704585D01*
X240636420Y-89625396D01*
X240636412Y-89625394D01*
X240433469Y-89585026D01*
X240433465Y-89585026D01*
X240226535Y-89585026D01*
X240226530Y-89585026D01*
X240023587Y-89625394D01*
X240023579Y-89625396D01*
X239832403Y-89704584D01*
X239660342Y-89819550D01*
X239514024Y-89965868D01*
X239399058Y-90137929D01*
X239319870Y-90329105D01*
X239319868Y-90329113D01*
X239279500Y-90532056D01*
X239279500Y-90738995D01*
X239319868Y-90941938D01*
X239319870Y-90941946D01*
X239399058Y-91133122D01*
X239514024Y-91305183D01*
X239660342Y-91451501D01*
X239660345Y-91451503D01*
X239832402Y-91566467D01*
X240023580Y-91645656D01*
X240226530Y-91686025D01*
X240226534Y-91686026D01*
X240226535Y-91686026D01*
X240433466Y-91686026D01*
X240433467Y-91686025D01*
X240636420Y-91645656D01*
X240681972Y-91626787D01*
X240751437Y-91619318D01*
X240813917Y-91650591D01*
X240817104Y-91653667D01*
X257984181Y-108820744D01*
X258017666Y-108882067D01*
X258020500Y-108908425D01*
X258020500Y-110035627D01*
X258000815Y-110102666D01*
X257948011Y-110148421D01*
X257878853Y-110158365D01*
X257815297Y-110129340D01*
X257808819Y-110123308D01*
X238808141Y-91122630D01*
X238774656Y-91061307D01*
X238779640Y-90991615D01*
X238781237Y-90987555D01*
X238800130Y-90941946D01*
X238840500Y-90738991D01*
X238840500Y-90532061D01*
X238800130Y-90329106D01*
X238720941Y-90137928D01*
X238605977Y-89965871D01*
X238605976Y-89965870D01*
X238605975Y-89965868D01*
X238459657Y-89819550D01*
X238337287Y-89737786D01*
X238287598Y-89704585D01*
X238096420Y-89625396D01*
X238096412Y-89625394D01*
X237893469Y-89585026D01*
X237893465Y-89585026D01*
X237686535Y-89585026D01*
X237686530Y-89585026D01*
X237483587Y-89625394D01*
X237483579Y-89625396D01*
X237292403Y-89704584D01*
X237120342Y-89819550D01*
X236974024Y-89965868D01*
X236859058Y-90137929D01*
X236779870Y-90329105D01*
X236779868Y-90329113D01*
X236739500Y-90532056D01*
X236739500Y-90738995D01*
X236779868Y-90941938D01*
X236779870Y-90941946D01*
X236859058Y-91133122D01*
X236974024Y-91305183D01*
X237120342Y-91451501D01*
X237120345Y-91451503D01*
X237292402Y-91566467D01*
X237483580Y-91645656D01*
X237686530Y-91686025D01*
X237686534Y-91686026D01*
X237686535Y-91686026D01*
X237893466Y-91686026D01*
X237893467Y-91686025D01*
X238096420Y-91645656D01*
X238141972Y-91626787D01*
X238211437Y-91619318D01*
X238273917Y-91650591D01*
X238277104Y-91653667D01*
X257298181Y-110674744D01*
X257331666Y-110736067D01*
X257334500Y-110762425D01*
X257334500Y-121088627D01*
X257314815Y-121155666D01*
X257298181Y-121176308D01*
X254837181Y-123637308D01*
X254775858Y-123670793D01*
X254706166Y-123665809D01*
X254650233Y-123623937D01*
X254625816Y-123558473D01*
X254625500Y-123549627D01*
X254625500Y-110096093D01*
X254625500Y-110096091D01*
X254608176Y-110031436D01*
X254608176Y-110031435D01*
X254608176Y-110031434D01*
X254599912Y-110000592D01*
X254599911Y-110000590D01*
X254599911Y-110000589D01*
X254550475Y-109914963D01*
X251770563Y-107135052D01*
X236710563Y-92075052D01*
X236710562Y-92075051D01*
X236641280Y-92035051D01*
X236624937Y-92025615D01*
X236568859Y-92010588D01*
X236568859Y-92010589D01*
X236529438Y-92000026D01*
X236529436Y-92000026D01*
X236529435Y-92000026D01*
X235749500Y-92000026D01*
X235740814Y-91997475D01*
X235731853Y-91998764D01*
X235707812Y-91987785D01*
X235682461Y-91980341D01*
X235676533Y-91973500D01*
X235668297Y-91969739D01*
X235654007Y-91947504D01*
X235636706Y-91927537D01*
X235634418Y-91917022D01*
X235630523Y-91910961D01*
X235625500Y-91876026D01*
X235625500Y-91699895D01*
X235645185Y-91632856D01*
X235697989Y-91587101D01*
X235701992Y-91585357D01*
X235747598Y-91566467D01*
X235919655Y-91451503D01*
X236065977Y-91305181D01*
X236180941Y-91133124D01*
X236260130Y-90941946D01*
X236300500Y-90738991D01*
X236300500Y-90532061D01*
X236260130Y-90329106D01*
X236180941Y-90137928D01*
X236065977Y-89965871D01*
X236065976Y-89965870D01*
X236065975Y-89965868D01*
X235919657Y-89819550D01*
X235797287Y-89737786D01*
X235747598Y-89704585D01*
X235556420Y-89625396D01*
X235556412Y-89625394D01*
X235353469Y-89585026D01*
X235353465Y-89585026D01*
X235146535Y-89585026D01*
X235146530Y-89585026D01*
X234943587Y-89625394D01*
X234943579Y-89625396D01*
X234752403Y-89704584D01*
X234580342Y-89819550D01*
X234434024Y-89965868D01*
X234319058Y-90137929D01*
X234239870Y-90329105D01*
X234239868Y-90329113D01*
X234199500Y-90532056D01*
X234199500Y-90738995D01*
X234239868Y-90941938D01*
X234239870Y-90941946D01*
X234319058Y-91133122D01*
X234434024Y-91305183D01*
X234580342Y-91451501D01*
X234580345Y-91451503D01*
X234752402Y-91566467D01*
X234797955Y-91585335D01*
X234852355Y-91629174D01*
X234874421Y-91695468D01*
X234874500Y-91699895D01*
X234874500Y-92204961D01*
X234881366Y-92230583D01*
X234881367Y-92230587D01*
X234900090Y-92300465D01*
X234900091Y-92300466D01*
X234948870Y-92384954D01*
X234949525Y-92386089D01*
X235081781Y-92518345D01*
X235115266Y-92579668D01*
X235110282Y-92649360D01*
X235068410Y-92705293D01*
X235002946Y-92729710D01*
X234994100Y-92730026D01*
X233696899Y-92730026D01*
X233629860Y-92710341D01*
X233609218Y-92693707D01*
X233121819Y-92206308D01*
X233088334Y-92144985D01*
X233085500Y-92118627D01*
X233085500Y-91699895D01*
X233105185Y-91632856D01*
X233157989Y-91587101D01*
X233161992Y-91585357D01*
X233207598Y-91566467D01*
X233379655Y-91451503D01*
X233525977Y-91305181D01*
X233640941Y-91133124D01*
X233720130Y-90941946D01*
X233760500Y-90738991D01*
X233760500Y-90532061D01*
X233720130Y-90329106D01*
X233640941Y-90137928D01*
X233525977Y-89965871D01*
X233525976Y-89965870D01*
X233525975Y-89965868D01*
X233379657Y-89819550D01*
X233257287Y-89737786D01*
X233207598Y-89704585D01*
X233016420Y-89625396D01*
X233016412Y-89625394D01*
X232813469Y-89585026D01*
X232813465Y-89585026D01*
X232606535Y-89585026D01*
X232606530Y-89585026D01*
X232403587Y-89625394D01*
X232403579Y-89625396D01*
X232212403Y-89704584D01*
X232040342Y-89819550D01*
X231894024Y-89965868D01*
X231779058Y-90137929D01*
X231699870Y-90329105D01*
X231699868Y-90329113D01*
X231659500Y-90532056D01*
X231659500Y-90738995D01*
X231699868Y-90941938D01*
X231699870Y-90941946D01*
X231779058Y-91133122D01*
X231894024Y-91305183D01*
X232040342Y-91451501D01*
X232040345Y-91451503D01*
X232212402Y-91566467D01*
X232257955Y-91585335D01*
X232312355Y-91629174D01*
X232334421Y-91695468D01*
X232334500Y-91699895D01*
X232334500Y-92374961D01*
X232360090Y-92470464D01*
X232360091Y-92470465D01*
X232360091Y-92470466D01*
X232409526Y-92556089D01*
X232981782Y-93128345D01*
X233015267Y-93189668D01*
X233010283Y-93259360D01*
X232968411Y-93315293D01*
X232902947Y-93339710D01*
X232894101Y-93340026D01*
X230716899Y-93340026D01*
X230687458Y-93331381D01*
X230657472Y-93324858D01*
X230652456Y-93321103D01*
X230649860Y-93320341D01*
X230629218Y-93303707D01*
X230581819Y-93256308D01*
X230548334Y-93194985D01*
X230545500Y-93168627D01*
X230545500Y-91699895D01*
X230565185Y-91632856D01*
X230617989Y-91587101D01*
X230621992Y-91585357D01*
X230667598Y-91566467D01*
X230839655Y-91451503D01*
X230985977Y-91305181D01*
X231100941Y-91133124D01*
X231180130Y-90941946D01*
X231220500Y-90738991D01*
X231220500Y-90532061D01*
X231180130Y-90329106D01*
X231100941Y-90137928D01*
X230985977Y-89965871D01*
X230985976Y-89965870D01*
X230985975Y-89965868D01*
X230839657Y-89819550D01*
X230717287Y-89737786D01*
X230667598Y-89704585D01*
X230476420Y-89625396D01*
X230476412Y-89625394D01*
X230273469Y-89585026D01*
X230273465Y-89585026D01*
X230066535Y-89585026D01*
X230066530Y-89585026D01*
X229863587Y-89625394D01*
X229863579Y-89625396D01*
X229672403Y-89704584D01*
X229500342Y-89819550D01*
X229354024Y-89965868D01*
X229239058Y-90137929D01*
X229159870Y-90329105D01*
X229159868Y-90329113D01*
X229119500Y-90532056D01*
X229119500Y-90738995D01*
X229159868Y-90941938D01*
X229159870Y-90941946D01*
X229239058Y-91133122D01*
X229354024Y-91305183D01*
X229500342Y-91451501D01*
X229500345Y-91451503D01*
X229672402Y-91566467D01*
X229717955Y-91585335D01*
X229772355Y-91629174D01*
X229794421Y-91695468D01*
X229794500Y-91699895D01*
X229794500Y-93424961D01*
X229816150Y-93505759D01*
X229820091Y-93520467D01*
X229843893Y-93561692D01*
X229849030Y-93570589D01*
X229869526Y-93606089D01*
X230279438Y-94016001D01*
X230365063Y-94065437D01*
X230460564Y-94091026D01*
X230460565Y-94091026D01*
X234033101Y-94091026D01*
X234100140Y-94110711D01*
X234120782Y-94127345D01*
X234630440Y-94637003D01*
X234635941Y-94647077D01*
X234644854Y-94654310D01*
X234652382Y-94677187D01*
X234663925Y-94698326D01*
X234663106Y-94709775D01*
X234666694Y-94720678D01*
X234660659Y-94743993D01*
X234658941Y-94768018D01*
X234652062Y-94777206D01*
X234649186Y-94788319D01*
X234631501Y-94804672D01*
X234617069Y-94823951D01*
X234606315Y-94827961D01*
X234597887Y-94835756D01*
X234574168Y-94839952D01*
X234551605Y-94848368D01*
X234538620Y-94846241D01*
X234529086Y-94847928D01*
X234509317Y-94841441D01*
X234494918Y-94839083D01*
X234487614Y-94836028D01*
X234434938Y-94805616D01*
X234387186Y-94792821D01*
X234379140Y-94790665D01*
X234379133Y-94790662D01*
X234339436Y-94780026D01*
X234339435Y-94780026D01*
X229506900Y-94780026D01*
X229439861Y-94760341D01*
X229419219Y-94743707D01*
X228041819Y-93366307D01*
X228008334Y-93304984D01*
X228005500Y-93278626D01*
X228005500Y-91699895D01*
X228025185Y-91632856D01*
X228077989Y-91587101D01*
X228081992Y-91585357D01*
X228127598Y-91566467D01*
X228299655Y-91451503D01*
X228445977Y-91305181D01*
X228560941Y-91133124D01*
X228640130Y-90941946D01*
X228680500Y-90738991D01*
X228680500Y-90532061D01*
X228640130Y-90329106D01*
X228560941Y-90137928D01*
X228445977Y-89965871D01*
X228445976Y-89965870D01*
X228445975Y-89965868D01*
X228299657Y-89819550D01*
X228177287Y-89737786D01*
X228127598Y-89704585D01*
X227936420Y-89625396D01*
X227936412Y-89625394D01*
X227733469Y-89585026D01*
X227733465Y-89585026D01*
X227526535Y-89585026D01*
X227526530Y-89585026D01*
X227323587Y-89625394D01*
X227323579Y-89625396D01*
X227132403Y-89704584D01*
X226960342Y-89819550D01*
X226814024Y-89965868D01*
X226699058Y-90137929D01*
X226619870Y-90329105D01*
X226619868Y-90329113D01*
X226579500Y-90532056D01*
X226140499Y-90532056D01*
X226100130Y-90329106D01*
X226020941Y-90137928D01*
X225905977Y-89965871D01*
X225905976Y-89965870D01*
X225905975Y-89965868D01*
X225759657Y-89819550D01*
X225637287Y-89737786D01*
X225587598Y-89704585D01*
X225396420Y-89625396D01*
X225396412Y-89625394D01*
X225193469Y-89585026D01*
X225193465Y-89585026D01*
X224986535Y-89585026D01*
X224986530Y-89585026D01*
X224783587Y-89625394D01*
X224783579Y-89625396D01*
X224592403Y-89704584D01*
X224420342Y-89819550D01*
X224420341Y-89819551D01*
X224313181Y-89926712D01*
X224251858Y-89960197D01*
X224182166Y-89955213D01*
X224126233Y-89913341D01*
X224101816Y-89847877D01*
X224101500Y-89839031D01*
X224101500Y-89018197D01*
X224121185Y-88951158D01*
X224137819Y-88930516D01*
X224401978Y-88666357D01*
X224836474Y-88231861D01*
X224836475Y-88231860D01*
X224885910Y-88146236D01*
X224911500Y-88050733D01*
X224911500Y-85933389D01*
X236779500Y-85933389D01*
X236779500Y-86106611D01*
X236806598Y-86277701D01*
X236860127Y-86442445D01*
X236938768Y-86596788D01*
X237040586Y-86736928D01*
X237163072Y-86859414D01*
X237303212Y-86961232D01*
X237457555Y-87039873D01*
X237622299Y-87093402D01*
X237793389Y-87120500D01*
X237793390Y-87120500D01*
X237966610Y-87120500D01*
X237966611Y-87120500D01*
X238137701Y-87093402D01*
X238302445Y-87039873D01*
X238456788Y-86961232D01*
X238596928Y-86859414D01*
X238719414Y-86736928D01*
X238821232Y-86596788D01*
X238899873Y-86442445D01*
X238953402Y-86277701D01*
X238980500Y-86106611D01*
X238980500Y-85933389D01*
X238953402Y-85762299D01*
X238899873Y-85597555D01*
X238821232Y-85443212D01*
X238719414Y-85303072D01*
X238596928Y-85180586D01*
X238456788Y-85078768D01*
X238361438Y-85030185D01*
X238302447Y-85000128D01*
X238302446Y-85000127D01*
X238302445Y-85000127D01*
X238137701Y-84946598D01*
X238137699Y-84946597D01*
X238137698Y-84946597D01*
X238006271Y-84925781D01*
X237966611Y-84919500D01*
X237793389Y-84919500D01*
X237761192Y-84924599D01*
X237622301Y-84946597D01*
X237622302Y-84946597D01*
X237457552Y-85000128D01*
X237303211Y-85078768D01*
X237262394Y-85108424D01*
X237163072Y-85180586D01*
X237163070Y-85180588D01*
X237163069Y-85180588D01*
X237040588Y-85303069D01*
X237040588Y-85303070D01*
X237040586Y-85303072D01*
X237004695Y-85352472D01*
X236938768Y-85443211D01*
X236860128Y-85597552D01*
X236806597Y-85762302D01*
X236801738Y-85792982D01*
X236779500Y-85933389D01*
X224911500Y-85933389D01*
X224911500Y-83936543D01*
X224931185Y-83869504D01*
X224983989Y-83823749D01*
X225053147Y-83813805D01*
X225116703Y-83842830D01*
X225123181Y-83848862D01*
X226463181Y-85188862D01*
X226496666Y-85250185D01*
X226499500Y-85276543D01*
X226499500Y-85352475D01*
X226530195Y-85467029D01*
X226537017Y-85492488D01*
X226609488Y-85618011D01*
X226609490Y-85618013D01*
X226609491Y-85618015D01*
X226711985Y-85720509D01*
X226711986Y-85720510D01*
X226711988Y-85720511D01*
X226837511Y-85792982D01*
X226837512Y-85792982D01*
X226837515Y-85792984D01*
X226977525Y-85830500D01*
X226977528Y-85830500D01*
X227122472Y-85830500D01*
X227122475Y-85830500D01*
X227262485Y-85792984D01*
X227388015Y-85720509D01*
X227490509Y-85618015D01*
X227562984Y-85492485D01*
X227600500Y-85352475D01*
X227600500Y-85207525D01*
X227562984Y-85067515D01*
X227556649Y-85056543D01*
X227490511Y-84941988D01*
X227490506Y-84941982D01*
X227388017Y-84839493D01*
X227388011Y-84839488D01*
X227262488Y-84767017D01*
X227262489Y-84767017D01*
X227251006Y-84763940D01*
X227122475Y-84729500D01*
X227122472Y-84729500D01*
X227046543Y-84729500D01*
X226979504Y-84709815D01*
X226958862Y-84693181D01*
X226762175Y-84496494D01*
X226660355Y-84394673D01*
X226626871Y-84333352D01*
X226631855Y-84263660D01*
X226673727Y-84207727D01*
X226686031Y-84199610D01*
X226749635Y-84162889D01*
X226852129Y-84060395D01*
X226924604Y-83934865D01*
X226962120Y-83794855D01*
X226962120Y-83649905D01*
X226924604Y-83509895D01*
X226923282Y-83507605D01*
X226922753Y-83505426D01*
X226921492Y-83502381D01*
X226921966Y-83502184D01*
X226906806Y-83439706D01*
X226929655Y-83373678D01*
X226984574Y-83330485D01*
X227054127Y-83323840D01*
X227062744Y-83325821D01*
X227117525Y-83340500D01*
X227117528Y-83340500D01*
X227262472Y-83340500D01*
X227262475Y-83340500D01*
X227402485Y-83302984D01*
X227528015Y-83230509D01*
X227630509Y-83128015D01*
X227702984Y-83002485D01*
X227740500Y-82862475D01*
X227740500Y-82717525D01*
X227702984Y-82577515D01*
X227692533Y-82559414D01*
X227630511Y-82451988D01*
X227630506Y-82451982D01*
X227528017Y-82349493D01*
X227528011Y-82349488D01*
X227402488Y-82277017D01*
X227402489Y-82277017D01*
X227376566Y-82270071D01*
X227262475Y-82239500D01*
X227117525Y-82239500D01*
X227003433Y-82270071D01*
X226991432Y-82269785D01*
X226980186Y-82273980D01*
X226957151Y-82268969D01*
X226933583Y-82268408D01*
X226921935Y-82261308D01*
X226911913Y-82259128D01*
X226883659Y-82237977D01*
X226756819Y-82111137D01*
X226723334Y-82049814D01*
X226720500Y-82023456D01*
X226720500Y-69753858D01*
X226720500Y-69753856D01*
X226696614Y-69664712D01*
X226680495Y-69636793D01*
X226650470Y-69584788D01*
X226015212Y-68949530D01*
X224326819Y-67261137D01*
X224293334Y-67199814D01*
X224290500Y-67173456D01*
X224290500Y-55022518D01*
X224310185Y-54955479D01*
X224358206Y-54912033D01*
X224516786Y-54831233D01*
X224516785Y-54831233D01*
X224516788Y-54831232D01*
X224656928Y-54729414D01*
X224779414Y-54606928D01*
X224881232Y-54466788D01*
X224959873Y-54312445D01*
X225013402Y-54147701D01*
X225040500Y-53976611D01*
X225040500Y-53803389D01*
X225379500Y-53803389D01*
X225379500Y-53976611D01*
X225406598Y-54147701D01*
X225460127Y-54312445D01*
X225538768Y-54466788D01*
X225640586Y-54606928D01*
X225763072Y-54729414D01*
X225840898Y-54785958D01*
X225903213Y-54831233D01*
X226061794Y-54912033D01*
X226112591Y-54960007D01*
X226129500Y-55022518D01*
X226129500Y-67876143D01*
X226147576Y-67943606D01*
X226153385Y-67965287D01*
X226153387Y-67965290D01*
X226199527Y-68045208D01*
X226199531Y-68045213D01*
X238694181Y-80539863D01*
X238708884Y-80566790D01*
X238725477Y-80592609D01*
X238726368Y-80598809D01*
X238727666Y-80601186D01*
X238730500Y-80627544D01*
X238730500Y-80734267D01*
X238710815Y-80801306D01*
X238658011Y-80847061D01*
X238588853Y-80857005D01*
X238533615Y-80834585D01*
X238456792Y-80778770D01*
X238302447Y-80700128D01*
X238302446Y-80700127D01*
X238302445Y-80700127D01*
X238137701Y-80646598D01*
X238137699Y-80646597D01*
X238137698Y-80646597D01*
X238006271Y-80625781D01*
X237966611Y-80619500D01*
X237793389Y-80619500D01*
X237761192Y-80624599D01*
X237622301Y-80646597D01*
X237622302Y-80646597D01*
X237457552Y-80700128D01*
X237303211Y-80778768D01*
X237226387Y-80834585D01*
X237163072Y-80880586D01*
X237163070Y-80880588D01*
X237163069Y-80880588D01*
X237040588Y-81003069D01*
X237040588Y-81003070D01*
X237040586Y-81003072D01*
X237027892Y-81020544D01*
X236938768Y-81143211D01*
X236860128Y-81297552D01*
X236806597Y-81462302D01*
X236788211Y-81578389D01*
X236779500Y-81633389D01*
X236779500Y-81806611D01*
X236806598Y-81977701D01*
X236860127Y-82142445D01*
X236938768Y-82296788D01*
X237040586Y-82436928D01*
X237163072Y-82559414D01*
X237303212Y-82661232D01*
X237457555Y-82739873D01*
X237622299Y-82793402D01*
X237793389Y-82820500D01*
X237793390Y-82820500D01*
X237966610Y-82820500D01*
X237966611Y-82820500D01*
X238137701Y-82793402D01*
X238302445Y-82739873D01*
X238456788Y-82661232D01*
X238533615Y-82605413D01*
X238599420Y-82581934D01*
X238667474Y-82597759D01*
X238716169Y-82647865D01*
X238730500Y-82705732D01*
X238730500Y-84727144D01*
X238739650Y-84761290D01*
X238754386Y-84816287D01*
X238754387Y-84816290D01*
X238800527Y-84896208D01*
X238800531Y-84896213D01*
X239371347Y-85467029D01*
X239404832Y-85528352D01*
X239401597Y-85593028D01*
X239346597Y-85762301D01*
X239339242Y-85808742D01*
X239319500Y-85933389D01*
X239319500Y-86106611D01*
X239346598Y-86277701D01*
X239400127Y-86442445D01*
X239478768Y-86596788D01*
X239580586Y-86736928D01*
X239703072Y-86859414D01*
X239843212Y-86961232D01*
X239997555Y-87039873D01*
X240162299Y-87093402D01*
X240333389Y-87120500D01*
X240333390Y-87120500D01*
X240506610Y-87120500D01*
X240506611Y-87120500D01*
X240677701Y-87093402D01*
X240842445Y-87039873D01*
X240996788Y-86961232D01*
X241136928Y-86859414D01*
X241259414Y-86736928D01*
X241361232Y-86596788D01*
X241439873Y-86442445D01*
X241493402Y-86277701D01*
X241520500Y-86106611D01*
X241520500Y-85933389D01*
X241493402Y-85762299D01*
X241439873Y-85597555D01*
X241361232Y-85443212D01*
X241259414Y-85303072D01*
X241136928Y-85180586D01*
X241088390Y-85145321D01*
X241859500Y-85145321D01*
X241859500Y-86894678D01*
X241874032Y-86967735D01*
X241874033Y-86967739D01*
X241874034Y-86967740D01*
X241929399Y-87050601D01*
X242012260Y-87105966D01*
X242012264Y-87105967D01*
X242085321Y-87120499D01*
X242085324Y-87120500D01*
X242085326Y-87120500D01*
X243834676Y-87120500D01*
X243834677Y-87120499D01*
X243907740Y-87105966D01*
X243990601Y-87050601D01*
X244045966Y-86967740D01*
X244060500Y-86894674D01*
X244060500Y-85145326D01*
X244056574Y-85125588D01*
X244053160Y-85108424D01*
X244053160Y-85108422D01*
X244049559Y-85090321D01*
X245919500Y-85090321D01*
X245919500Y-86839678D01*
X245934032Y-86912735D01*
X245934033Y-86912739D01*
X245934034Y-86912740D01*
X245989399Y-86995601D01*
X246055655Y-87039871D01*
X246072260Y-87050966D01*
X246072264Y-87050967D01*
X246145321Y-87065499D01*
X246145324Y-87065500D01*
X246145326Y-87065500D01*
X247894676Y-87065500D01*
X247894677Y-87065499D01*
X247967740Y-87050966D01*
X248050601Y-86995601D01*
X248105966Y-86912740D01*
X248120500Y-86839674D01*
X248120500Y-85090326D01*
X248120500Y-85090323D01*
X248120499Y-85090321D01*
X248105967Y-85017264D01*
X248105966Y-85017260D01*
X248075288Y-84971347D01*
X248050601Y-84934399D01*
X247967740Y-84879034D01*
X247967739Y-84879033D01*
X247967735Y-84879032D01*
X247894677Y-84864500D01*
X247894674Y-84864500D01*
X246145326Y-84864500D01*
X246145323Y-84864500D01*
X246072264Y-84879032D01*
X246072260Y-84879033D01*
X245989399Y-84934399D01*
X245934033Y-85017260D01*
X245934032Y-85017264D01*
X245919500Y-85090321D01*
X244049559Y-85090321D01*
X244045967Y-85072262D01*
X244045966Y-85072260D01*
X243990601Y-84989399D01*
X243919640Y-84941985D01*
X243907739Y-84934033D01*
X243907735Y-84934032D01*
X243834677Y-84919500D01*
X243834674Y-84919500D01*
X242085326Y-84919500D01*
X242085323Y-84919500D01*
X242012264Y-84934032D01*
X242012260Y-84934033D01*
X241929399Y-84989399D01*
X241874033Y-85072260D01*
X241874032Y-85072264D01*
X241859500Y-85145321D01*
X241088390Y-85145321D01*
X240996788Y-85078768D01*
X240901438Y-85030185D01*
X240842447Y-85000128D01*
X240842446Y-85000127D01*
X240842445Y-85000127D01*
X240677701Y-84946598D01*
X240677699Y-84946597D01*
X240677698Y-84946597D01*
X240546271Y-84925781D01*
X240506611Y-84919500D01*
X240333389Y-84919500D01*
X240301192Y-84924599D01*
X240162301Y-84946597D01*
X239993028Y-85001597D01*
X239923186Y-85003592D01*
X239867029Y-84971347D01*
X239467819Y-84572137D01*
X239434334Y-84510814D01*
X239431500Y-84484456D01*
X239431500Y-82587204D01*
X239451185Y-82520165D01*
X239503989Y-82474410D01*
X239573147Y-82464466D01*
X239636703Y-82493491D01*
X239643181Y-82499523D01*
X239703072Y-82559414D01*
X239843212Y-82661232D01*
X239997555Y-82739873D01*
X240162299Y-82793402D01*
X240333389Y-82820500D01*
X240333390Y-82820500D01*
X240506610Y-82820500D01*
X240506611Y-82820500D01*
X240677701Y-82793402D01*
X240842445Y-82739873D01*
X240996788Y-82661232D01*
X241136928Y-82559414D01*
X241259414Y-82436928D01*
X241361232Y-82296788D01*
X241439873Y-82142445D01*
X241493402Y-81977701D01*
X241520500Y-81806611D01*
X241520500Y-81633389D01*
X241493402Y-81462299D01*
X241439873Y-81297555D01*
X241361232Y-81143212D01*
X241259414Y-81003072D01*
X241136928Y-80880586D01*
X241088390Y-80845321D01*
X241859500Y-80845321D01*
X241859500Y-82594678D01*
X241874032Y-82667735D01*
X241874033Y-82667739D01*
X241874034Y-82667740D01*
X241929399Y-82750601D01*
X242012260Y-82805966D01*
X242012264Y-82805967D01*
X242085321Y-82820499D01*
X242085324Y-82820500D01*
X242085326Y-82820500D01*
X243834676Y-82820500D01*
X243834677Y-82820499D01*
X243907740Y-82805966D01*
X243990601Y-82750601D01*
X244045966Y-82667740D01*
X244060500Y-82594674D01*
X244060500Y-80845326D01*
X244060500Y-80845323D01*
X244060499Y-80845321D01*
X244045967Y-80772264D01*
X244045966Y-80772260D01*
X244033887Y-80754182D01*
X243990601Y-80689399D01*
X243924342Y-80645127D01*
X243907739Y-80634033D01*
X243907735Y-80634032D01*
X243834677Y-80619500D01*
X243834674Y-80619500D01*
X242085326Y-80619500D01*
X242085323Y-80619500D01*
X242012264Y-80634032D01*
X242012260Y-80634033D01*
X241929399Y-80689399D01*
X241874033Y-80772260D01*
X241874032Y-80772264D01*
X241859500Y-80845321D01*
X241088390Y-80845321D01*
X240996788Y-80778768D01*
X240947691Y-80753752D01*
X240838205Y-80697966D01*
X240787409Y-80649991D01*
X240770500Y-80587481D01*
X240770500Y-77933858D01*
X240770500Y-77933856D01*
X240746614Y-77844712D01*
X240700470Y-77764788D01*
X229406819Y-66471137D01*
X229373334Y-66409814D01*
X229370500Y-66383456D01*
X229370500Y-55022518D01*
X229390185Y-54955479D01*
X229438206Y-54912033D01*
X229596786Y-54831233D01*
X229596785Y-54831233D01*
X229596788Y-54831232D01*
X229736928Y-54729414D01*
X229859414Y-54606928D01*
X229961232Y-54466788D01*
X230039873Y-54312445D01*
X230093402Y-54147701D01*
X230120500Y-53976611D01*
X230120500Y-53803389D01*
X230459500Y-53803389D01*
X230459500Y-53976611D01*
X230486598Y-54147701D01*
X230540127Y-54312445D01*
X230618768Y-54466788D01*
X230720586Y-54606928D01*
X230843072Y-54729414D01*
X230983212Y-54831232D01*
X231137555Y-54909873D01*
X231302299Y-54963402D01*
X231473389Y-54990500D01*
X231473390Y-54990500D01*
X231646610Y-54990500D01*
X231646611Y-54990500D01*
X231817701Y-54963402D01*
X231982445Y-54909873D01*
X232136788Y-54831232D01*
X232276928Y-54729414D01*
X232399414Y-54606928D01*
X232501232Y-54466788D01*
X232579873Y-54312445D01*
X232633402Y-54147701D01*
X232660500Y-53976611D01*
X232660500Y-53803389D01*
X232999500Y-53803389D01*
X232999500Y-53976611D01*
X233026598Y-54147701D01*
X233080127Y-54312445D01*
X233158768Y-54466788D01*
X233260586Y-54606928D01*
X233383072Y-54729414D01*
X233460898Y-54785958D01*
X233523213Y-54831233D01*
X233681794Y-54912033D01*
X233732591Y-54960007D01*
X233749500Y-55022518D01*
X233749500Y-66251145D01*
X233768856Y-66323384D01*
X233773385Y-66340286D01*
X233773387Y-66340291D01*
X233819527Y-66420208D01*
X233819531Y-66420213D01*
X247752137Y-80352819D01*
X247785622Y-80414142D01*
X247780638Y-80483834D01*
X247738766Y-80539767D01*
X247673302Y-80564184D01*
X247664456Y-80564500D01*
X246145323Y-80564500D01*
X246072264Y-80579032D01*
X246072260Y-80579033D01*
X245989399Y-80634399D01*
X245934033Y-80717260D01*
X245934032Y-80717264D01*
X245919500Y-80790321D01*
X245919500Y-82539678D01*
X245934032Y-82612735D01*
X245934033Y-82612739D01*
X245934034Y-82612740D01*
X245989399Y-82695601D01*
X246055655Y-82739871D01*
X246072260Y-82750966D01*
X246072264Y-82750967D01*
X246145321Y-82765499D01*
X246145324Y-82765500D01*
X246145326Y-82765500D01*
X247894676Y-82765500D01*
X247894677Y-82765499D01*
X247967740Y-82750966D01*
X248050601Y-82695601D01*
X248105966Y-82612740D01*
X248120500Y-82539674D01*
X248120500Y-81020544D01*
X248140185Y-80953505D01*
X248192989Y-80907750D01*
X248262147Y-80897806D01*
X248325703Y-80926831D01*
X248332181Y-80932863D01*
X248511347Y-81112029D01*
X248544832Y-81173352D01*
X248541597Y-81238028D01*
X248486597Y-81407301D01*
X248477886Y-81462302D01*
X248459500Y-81578389D01*
X248459500Y-81751611D01*
X248486598Y-81922701D01*
X248540127Y-82087445D01*
X248618768Y-82241788D01*
X248720586Y-82381928D01*
X248843072Y-82504414D01*
X248983212Y-82606232D01*
X249137555Y-82684873D01*
X249302299Y-82738402D01*
X249473389Y-82765500D01*
X249473390Y-82765500D01*
X249646610Y-82765500D01*
X249646611Y-82765500D01*
X249817701Y-82738402D01*
X249982445Y-82684873D01*
X250136788Y-82606232D01*
X250276928Y-82504414D01*
X250336819Y-82444523D01*
X250398142Y-82411038D01*
X250467834Y-82416022D01*
X250523767Y-82457894D01*
X250548184Y-82523358D01*
X250548500Y-82532204D01*
X250548500Y-84429455D01*
X250528815Y-84496494D01*
X250512181Y-84517136D01*
X250112969Y-84916347D01*
X250051646Y-84949832D01*
X249986970Y-84946597D01*
X249817698Y-84891597D01*
X249686271Y-84870781D01*
X249646611Y-84864500D01*
X249473389Y-84864500D01*
X249433728Y-84870781D01*
X249302302Y-84891597D01*
X249302299Y-84891598D01*
X249171696Y-84934034D01*
X249137552Y-84945128D01*
X248983211Y-85023768D01*
X248916469Y-85072260D01*
X248843072Y-85125586D01*
X248843070Y-85125588D01*
X248843069Y-85125588D01*
X248720588Y-85248069D01*
X248720588Y-85248070D01*
X248720586Y-85248072D01*
X248680626Y-85303072D01*
X248618768Y-85388211D01*
X248540128Y-85542552D01*
X248486597Y-85707302D01*
X248477886Y-85762302D01*
X248459500Y-85878389D01*
X248459500Y-86051611D01*
X248486598Y-86222701D01*
X248540127Y-86387445D01*
X248618768Y-86541788D01*
X248720586Y-86681928D01*
X248843072Y-86804414D01*
X248983212Y-86906232D01*
X249137555Y-86984873D01*
X249302299Y-87038402D01*
X249473389Y-87065500D01*
X249473390Y-87065500D01*
X249646610Y-87065500D01*
X249646611Y-87065500D01*
X249817701Y-87038402D01*
X249982445Y-86984873D01*
X250136788Y-86906232D01*
X250276928Y-86804414D01*
X250399414Y-86681928D01*
X250501232Y-86541788D01*
X250579873Y-86387445D01*
X250633402Y-86222701D01*
X250660500Y-86051611D01*
X250660500Y-85878389D01*
X250999500Y-85878389D01*
X250999500Y-86051611D01*
X251026598Y-86222701D01*
X251080127Y-86387445D01*
X251158768Y-86541788D01*
X251260586Y-86681928D01*
X251383072Y-86804414D01*
X251523212Y-86906232D01*
X251677555Y-86984873D01*
X251842299Y-87038402D01*
X252013389Y-87065500D01*
X252013390Y-87065500D01*
X252186610Y-87065500D01*
X252186611Y-87065500D01*
X252357701Y-87038402D01*
X252522445Y-86984873D01*
X252676788Y-86906232D01*
X252816928Y-86804414D01*
X252939414Y-86681928D01*
X253041232Y-86541788D01*
X253119873Y-86387445D01*
X253173402Y-86222701D01*
X253200500Y-86051611D01*
X253200500Y-85878389D01*
X253173402Y-85707299D01*
X253119873Y-85542555D01*
X253041232Y-85388212D01*
X252939414Y-85248072D01*
X252816928Y-85125586D01*
X252676788Y-85023768D01*
X252605660Y-84987527D01*
X252522447Y-84945128D01*
X252522446Y-84945127D01*
X252522445Y-84945127D01*
X252357701Y-84891598D01*
X252357699Y-84891597D01*
X252357698Y-84891597D01*
X252226271Y-84870781D01*
X252186611Y-84864500D01*
X252013389Y-84864500D01*
X251973728Y-84870781D01*
X251842302Y-84891597D01*
X251842299Y-84891598D01*
X251711696Y-84934034D01*
X251677552Y-84945128D01*
X251523211Y-85023768D01*
X251456469Y-85072260D01*
X251383072Y-85125586D01*
X251383070Y-85125588D01*
X251383069Y-85125588D01*
X251260588Y-85248069D01*
X251260588Y-85248070D01*
X251260586Y-85248072D01*
X251220626Y-85303072D01*
X251158768Y-85388211D01*
X251080128Y-85542552D01*
X251026597Y-85707302D01*
X251017886Y-85762302D01*
X250999500Y-85878389D01*
X250660500Y-85878389D01*
X250633402Y-85707299D01*
X250579873Y-85542555D01*
X250579869Y-85542547D01*
X250578401Y-85538029D01*
X250576406Y-85468188D01*
X250608649Y-85412031D01*
X251179470Y-84841212D01*
X251225614Y-84761288D01*
X251249500Y-84672144D01*
X251249500Y-82650732D01*
X251269185Y-82583693D01*
X251321989Y-82537938D01*
X251391147Y-82527994D01*
X251446384Y-82550413D01*
X251523212Y-82606232D01*
X251677555Y-82684873D01*
X251842299Y-82738402D01*
X252013389Y-82765500D01*
X252013390Y-82765500D01*
X252186610Y-82765500D01*
X252186611Y-82765500D01*
X252357701Y-82738402D01*
X252522445Y-82684873D01*
X252676788Y-82606232D01*
X252816928Y-82504414D01*
X252939414Y-82381928D01*
X253041232Y-82241788D01*
X253119873Y-82087445D01*
X253173402Y-81922701D01*
X253200500Y-81751611D01*
X253200500Y-81578389D01*
X253173402Y-81407299D01*
X253119873Y-81242555D01*
X253041232Y-81088212D01*
X252939414Y-80948072D01*
X252816928Y-80825586D01*
X252676788Y-80723768D01*
X252522445Y-80645127D01*
X252357701Y-80591598D01*
X252357699Y-80591597D01*
X252357698Y-80591597D01*
X252201069Y-80566790D01*
X252186611Y-80564500D01*
X252013389Y-80564500D01*
X251998931Y-80566790D01*
X251842302Y-80591597D01*
X251842299Y-80591598D01*
X251711696Y-80634034D01*
X251677552Y-80645128D01*
X251523207Y-80723770D01*
X251446385Y-80779585D01*
X251380579Y-80803065D01*
X251312525Y-80787239D01*
X251263830Y-80737133D01*
X251249500Y-80679267D01*
X251249500Y-80562858D01*
X251249500Y-80562856D01*
X251225614Y-80473712D01*
X251179470Y-80393788D01*
X237026819Y-66241137D01*
X236993334Y-66179814D01*
X236990500Y-66153456D01*
X236990500Y-55022518D01*
X237010185Y-54955479D01*
X237058206Y-54912033D01*
X237216786Y-54831233D01*
X237216785Y-54831233D01*
X237216788Y-54831232D01*
X237356928Y-54729414D01*
X237479414Y-54606928D01*
X237581232Y-54466788D01*
X237659873Y-54312445D01*
X237713402Y-54147701D01*
X237740500Y-53976611D01*
X237740500Y-53803389D01*
X238079500Y-53803389D01*
X238079500Y-53976611D01*
X238106598Y-54147701D01*
X238160127Y-54312445D01*
X238238768Y-54466788D01*
X238340586Y-54606928D01*
X238463072Y-54729414D01*
X238603212Y-54831232D01*
X238757555Y-54909873D01*
X238843820Y-54937902D01*
X238901493Y-54977338D01*
X238928692Y-55041697D01*
X238929500Y-55055832D01*
X238929500Y-66696144D01*
X238934630Y-66715288D01*
X238938064Y-66728105D01*
X238953387Y-66785290D01*
X238999527Y-66865208D01*
X238999529Y-66865211D01*
X238999530Y-66865212D01*
X252304788Y-80170470D01*
X252359959Y-80202323D01*
X252383277Y-80215786D01*
X252383278Y-80215786D01*
X252383281Y-80215788D01*
X252384712Y-80216614D01*
X252473856Y-80240500D01*
X252473857Y-80240500D01*
X252566144Y-80240500D01*
X255523456Y-80240500D01*
X255590495Y-80260185D01*
X255611137Y-80276819D01*
X256593181Y-81258863D01*
X256626666Y-81320186D01*
X256629500Y-81346544D01*
X256629500Y-84196145D01*
X256640008Y-84235363D01*
X256640009Y-84235363D01*
X256653387Y-84285290D01*
X256699527Y-84365208D01*
X256699529Y-84365211D01*
X256699530Y-84365212D01*
X257006462Y-84672144D01*
X257303181Y-84968862D01*
X257336666Y-85030185D01*
X257339500Y-85056543D01*
X257339500Y-85132475D01*
X257371041Y-85250185D01*
X257377017Y-85272488D01*
X257449488Y-85398011D01*
X257449490Y-85398013D01*
X257449491Y-85398015D01*
X257551985Y-85500509D01*
X257551986Y-85500510D01*
X257551988Y-85500511D01*
X257677511Y-85572982D01*
X257677512Y-85572982D01*
X257677515Y-85572984D01*
X257817525Y-85610500D01*
X257817528Y-85610500D01*
X257962472Y-85610500D01*
X257962475Y-85610500D01*
X258102485Y-85572984D01*
X258228015Y-85500509D01*
X258330509Y-85398015D01*
X258402984Y-85272485D01*
X258440500Y-85132475D01*
X258440500Y-84987525D01*
X258402984Y-84847515D01*
X258398352Y-84839493D01*
X258330511Y-84721988D01*
X258330506Y-84721982D01*
X258228017Y-84619493D01*
X258228011Y-84619488D01*
X258102488Y-84547017D01*
X258102489Y-84547017D01*
X258091006Y-84543940D01*
X257962475Y-84509500D01*
X257962472Y-84509500D01*
X257886543Y-84509500D01*
X257819504Y-84489815D01*
X257798862Y-84473181D01*
X257366819Y-84041137D01*
X257333334Y-83979814D01*
X257330500Y-83953456D01*
X257330500Y-83410550D01*
X257350185Y-83343511D01*
X257402989Y-83297756D01*
X257472147Y-83287812D01*
X257486581Y-83290772D01*
X257597525Y-83320500D01*
X257597528Y-83320500D01*
X257742472Y-83320500D01*
X257742475Y-83320500D01*
X257882485Y-83282984D01*
X258008015Y-83210509D01*
X258110509Y-83108015D01*
X258182984Y-82982485D01*
X258220500Y-82842475D01*
X258220500Y-82697525D01*
X258182984Y-82557515D01*
X258178884Y-82550414D01*
X258110511Y-82431988D01*
X258110506Y-82431982D01*
X258056819Y-82378295D01*
X258023334Y-82316972D01*
X258020500Y-82290614D01*
X258020500Y-80983858D01*
X258020500Y-80983856D01*
X257996614Y-80894712D01*
X257961621Y-80834102D01*
X257950472Y-80814791D01*
X257950468Y-80814786D01*
X256225213Y-79089531D01*
X256225208Y-79089527D01*
X256145290Y-79043387D01*
X256145289Y-79043386D01*
X256145288Y-79043386D01*
X256056144Y-79019500D01*
X256056143Y-79019500D01*
X254746544Y-79019500D01*
X254679505Y-78999815D01*
X254658863Y-78983181D01*
X251449071Y-75773389D01*
X256749500Y-75773389D01*
X256749500Y-75946611D01*
X256776598Y-76117701D01*
X256830127Y-76282445D01*
X256908768Y-76436788D01*
X257010586Y-76576928D01*
X257133072Y-76699414D01*
X257273212Y-76801232D01*
X257427555Y-76879873D01*
X257592299Y-76933402D01*
X257763389Y-76960500D01*
X257763390Y-76960500D01*
X257936610Y-76960500D01*
X257936611Y-76960500D01*
X258107701Y-76933402D01*
X258272445Y-76879873D01*
X258426788Y-76801232D01*
X258566928Y-76699414D01*
X258689414Y-76576928D01*
X258791232Y-76436788D01*
X258869873Y-76282445D01*
X258923402Y-76117701D01*
X258950500Y-75946611D01*
X258950500Y-75773389D01*
X258923402Y-75602299D01*
X258869873Y-75437555D01*
X258791232Y-75283212D01*
X258689414Y-75143072D01*
X258566928Y-75020586D01*
X258426788Y-74918768D01*
X258272445Y-74840127D01*
X258107701Y-74786598D01*
X258107699Y-74786597D01*
X258107698Y-74786597D01*
X257976271Y-74765781D01*
X257936611Y-74759500D01*
X257763389Y-74759500D01*
X257723728Y-74765781D01*
X257592302Y-74786597D01*
X257427552Y-74840128D01*
X257273211Y-74918768D01*
X257193256Y-74976859D01*
X257133072Y-75020586D01*
X257133070Y-75020588D01*
X257133069Y-75020588D01*
X257010588Y-75143069D01*
X257010588Y-75143070D01*
X257010586Y-75143072D01*
X256966859Y-75203256D01*
X256908768Y-75283211D01*
X256830128Y-75437552D01*
X256776597Y-75602302D01*
X256749500Y-75773389D01*
X251449071Y-75773389D01*
X247554071Y-71878389D01*
X256814500Y-71878389D01*
X256814500Y-72051610D01*
X256840885Y-72218203D01*
X256841598Y-72222701D01*
X256895127Y-72387445D01*
X256973768Y-72541788D01*
X257075586Y-72681928D01*
X257198072Y-72804414D01*
X257338212Y-72906232D01*
X257492555Y-72984873D01*
X257657299Y-73038402D01*
X257828389Y-73065500D01*
X257828390Y-73065500D01*
X258001610Y-73065500D01*
X258001611Y-73065500D01*
X258172701Y-73038402D01*
X258337445Y-72984873D01*
X258491788Y-72906232D01*
X258631928Y-72804414D01*
X258754414Y-72681928D01*
X258856232Y-72541788D01*
X258934873Y-72387445D01*
X258988402Y-72222701D01*
X259015500Y-72051611D01*
X259015500Y-71878389D01*
X258988402Y-71707299D01*
X258934873Y-71542555D01*
X258856232Y-71388212D01*
X258754414Y-71248072D01*
X258631928Y-71125586D01*
X258491788Y-71023768D01*
X258337445Y-70945127D01*
X258172701Y-70891598D01*
X258172699Y-70891597D01*
X258172698Y-70891597D01*
X258041271Y-70870781D01*
X258001611Y-70864500D01*
X257828389Y-70864500D01*
X257788728Y-70870781D01*
X257657302Y-70891597D01*
X257492552Y-70945128D01*
X257338211Y-71023768D01*
X257258256Y-71081859D01*
X257198072Y-71125586D01*
X257198070Y-71125588D01*
X257198069Y-71125588D01*
X257075588Y-71248069D01*
X257075588Y-71248070D01*
X257075586Y-71248072D01*
X257031859Y-71308256D01*
X256973768Y-71388211D01*
X256895128Y-71542552D01*
X256841597Y-71707302D01*
X256814500Y-71878389D01*
X247554071Y-71878389D01*
X247186819Y-71511137D01*
X247153334Y-71449814D01*
X247150500Y-71423456D01*
X247150500Y-65068389D01*
X255484500Y-65068389D01*
X255484500Y-65241611D01*
X255511598Y-65412701D01*
X255565127Y-65577445D01*
X255643768Y-65731788D01*
X255745586Y-65871928D01*
X255868072Y-65994414D01*
X256008212Y-66096232D01*
X256162555Y-66174873D01*
X256327299Y-66228402D01*
X256498389Y-66255500D01*
X256498390Y-66255500D01*
X256671610Y-66255500D01*
X256671611Y-66255500D01*
X256842701Y-66228402D01*
X257007445Y-66174873D01*
X257161788Y-66096232D01*
X257301928Y-65994414D01*
X257424414Y-65871928D01*
X257526232Y-65731788D01*
X257604873Y-65577445D01*
X257658402Y-65412701D01*
X257685500Y-65241611D01*
X257685500Y-65068389D01*
X257658402Y-64897299D01*
X257604873Y-64732555D01*
X257526232Y-64578212D01*
X257424414Y-64438072D01*
X257301928Y-64315586D01*
X257161788Y-64213768D01*
X257007445Y-64135127D01*
X256842701Y-64081598D01*
X256842699Y-64081597D01*
X256842698Y-64081597D01*
X256711271Y-64060781D01*
X256671611Y-64054500D01*
X256498389Y-64054500D01*
X256458728Y-64060781D01*
X256327302Y-64081597D01*
X256327299Y-64081598D01*
X256170182Y-64132649D01*
X256162552Y-64135128D01*
X256008211Y-64213768D01*
X255928256Y-64271859D01*
X255868072Y-64315586D01*
X255868070Y-64315588D01*
X255868069Y-64315588D01*
X255745588Y-64438069D01*
X255745588Y-64438070D01*
X255745586Y-64438072D01*
X255701859Y-64498256D01*
X255643768Y-64578211D01*
X255565128Y-64732552D01*
X255511597Y-64897302D01*
X255484500Y-65068389D01*
X247150500Y-65068389D01*
X247150500Y-55022518D01*
X247170185Y-54955479D01*
X247218206Y-54912033D01*
X247376786Y-54831233D01*
X247376785Y-54831233D01*
X247376788Y-54831232D01*
X247516928Y-54729414D01*
X247639414Y-54606928D01*
X247741232Y-54466788D01*
X247819873Y-54312445D01*
X247873402Y-54147701D01*
X247900500Y-53976611D01*
X247900500Y-53803389D01*
X248239500Y-53803389D01*
X248239500Y-53976611D01*
X248266598Y-54147701D01*
X248320127Y-54312445D01*
X248398768Y-54466788D01*
X248500586Y-54606928D01*
X248623072Y-54729414D01*
X248700898Y-54785958D01*
X248763213Y-54831233D01*
X248921794Y-54912033D01*
X248972591Y-54960007D01*
X248989500Y-55022518D01*
X248989500Y-59656143D01*
X249004851Y-59713437D01*
X249013384Y-59745283D01*
X249013387Y-59745290D01*
X249059527Y-59825208D01*
X249059529Y-59825211D01*
X249059530Y-59825212D01*
X251994788Y-62760470D01*
X252067504Y-62802452D01*
X252067506Y-62802454D01*
X252074710Y-62806613D01*
X252074712Y-62806614D01*
X252163856Y-62830500D01*
X256893456Y-62830500D01*
X256960495Y-62850185D01*
X256981137Y-62866819D01*
X258080246Y-63965928D01*
X258113731Y-64027251D01*
X258108747Y-64096943D01*
X258095668Y-64122498D01*
X258039035Y-64207257D01*
X258039032Y-64207264D01*
X258024500Y-64280321D01*
X258024500Y-66029678D01*
X258039032Y-66102735D01*
X258039033Y-66102739D01*
X258039034Y-66102740D01*
X258094399Y-66185601D01*
X258177260Y-66240966D01*
X258177264Y-66240967D01*
X258250321Y-66255499D01*
X258250324Y-66255500D01*
X258250326Y-66255500D01*
X259999676Y-66255500D01*
X259999677Y-66255499D01*
X260072740Y-66240966D01*
X260155601Y-66185601D01*
X260155603Y-66185597D01*
X260157819Y-66183383D01*
X260163839Y-66180095D01*
X260165756Y-66178815D01*
X260165870Y-66178986D01*
X260219142Y-66149898D01*
X260288834Y-66154882D01*
X260344767Y-66196754D01*
X260369184Y-66262218D01*
X260369500Y-66271064D01*
X260369500Y-70740500D01*
X260349815Y-70807539D01*
X260297011Y-70853294D01*
X260245500Y-70864500D01*
X259580323Y-70864500D01*
X259507264Y-70879032D01*
X259507260Y-70879033D01*
X259424399Y-70934399D01*
X259369033Y-71017260D01*
X259369032Y-71017264D01*
X259354500Y-71090321D01*
X259354500Y-72839678D01*
X259369032Y-72912735D01*
X259369033Y-72912739D01*
X259369034Y-72912740D01*
X259424399Y-72995601D01*
X259507260Y-73050966D01*
X259507264Y-73050967D01*
X259580321Y-73065499D01*
X259580324Y-73065500D01*
X259580326Y-73065500D01*
X261329676Y-73065500D01*
X261329677Y-73065499D01*
X261402740Y-73050966D01*
X261485601Y-72995601D01*
X261540966Y-72912740D01*
X261555500Y-72839674D01*
X261555500Y-71090326D01*
X261555500Y-71090323D01*
X261555499Y-71090321D01*
X261540967Y-71017264D01*
X261540966Y-71017260D01*
X261485601Y-70934399D01*
X261402740Y-70879034D01*
X261402739Y-70879033D01*
X261402735Y-70879032D01*
X261329677Y-70864500D01*
X261329674Y-70864500D01*
X261194500Y-70864500D01*
X261127461Y-70844815D01*
X261081706Y-70792011D01*
X261070500Y-70740500D01*
X261070500Y-58923858D01*
X261070500Y-58923856D01*
X261046614Y-58834712D01*
X261043626Y-58829537D01*
X261037506Y-58818936D01*
X261037504Y-58818934D01*
X261022477Y-58792907D01*
X261006007Y-58725008D01*
X261028860Y-58658981D01*
X261083782Y-58615792D01*
X261153335Y-58609151D01*
X261215437Y-58641168D01*
X261217547Y-58643229D01*
X262093181Y-59518863D01*
X262126666Y-59580186D01*
X262129500Y-59606544D01*
X262129500Y-73573456D01*
X262109815Y-73640495D01*
X262093181Y-73661137D01*
X261031137Y-74723181D01*
X260969814Y-74756666D01*
X260943456Y-74759500D01*
X259515323Y-74759500D01*
X259442264Y-74774032D01*
X259442260Y-74774033D01*
X259359399Y-74829399D01*
X259304033Y-74912260D01*
X259304032Y-74912264D01*
X259289500Y-74985321D01*
X259289500Y-76734678D01*
X259304032Y-76807735D01*
X259304033Y-76807739D01*
X259304034Y-76807740D01*
X259359399Y-76890601D01*
X259442260Y-76945966D01*
X259442264Y-76945967D01*
X259515321Y-76960499D01*
X259515324Y-76960500D01*
X259515326Y-76960500D01*
X261264676Y-76960500D01*
X261264677Y-76960499D01*
X261337740Y-76945966D01*
X261420601Y-76890601D01*
X261475966Y-76807740D01*
X261490500Y-76734674D01*
X261490500Y-75306543D01*
X261510185Y-75239504D01*
X261526819Y-75218862D01*
X262022500Y-74723181D01*
X262760469Y-73985212D01*
X262806614Y-73905288D01*
X262830500Y-73816144D01*
X262830500Y-59363856D01*
X262806614Y-59274712D01*
X262806611Y-59274706D01*
X262760473Y-59194794D01*
X262760470Y-59194791D01*
X262760469Y-59194788D01*
X262737539Y-59171858D01*
X262737537Y-59171855D01*
X258008652Y-54442970D01*
X257975167Y-54381647D01*
X257978402Y-54316971D01*
X257979873Y-54312445D01*
X258033402Y-54147701D01*
X258060500Y-53976611D01*
X258060500Y-53803389D01*
X258033402Y-53632299D01*
X257979873Y-53467555D01*
X257901232Y-53313212D01*
X257799414Y-53173072D01*
X257676928Y-53050586D01*
X257536788Y-52948768D01*
X257382445Y-52870127D01*
X257217701Y-52816598D01*
X257217699Y-52816597D01*
X257217698Y-52816597D01*
X257086271Y-52795781D01*
X257046611Y-52789500D01*
X256873389Y-52789500D01*
X256833728Y-52795781D01*
X256702302Y-52816597D01*
X256537552Y-52870128D01*
X256383211Y-52948768D01*
X256352191Y-52971306D01*
X256243072Y-53050586D01*
X256243070Y-53050588D01*
X256243069Y-53050588D01*
X256120588Y-53173069D01*
X256120588Y-53173070D01*
X256120586Y-53173072D01*
X256076859Y-53233256D01*
X256018768Y-53313211D01*
X255940128Y-53467552D01*
X255886597Y-53632302D01*
X255878050Y-53686267D01*
X255859500Y-53803389D01*
X255859500Y-53976611D01*
X255886598Y-54147701D01*
X255940127Y-54312445D01*
X256018768Y-54466788D01*
X256120586Y-54606928D01*
X256243072Y-54729414D01*
X256383212Y-54831232D01*
X256537555Y-54909873D01*
X256702299Y-54963402D01*
X256873389Y-54990500D01*
X256873390Y-54990500D01*
X257046610Y-54990500D01*
X257046611Y-54990500D01*
X257217701Y-54963402D01*
X257382445Y-54909873D01*
X257382447Y-54909871D01*
X257386971Y-54908402D01*
X257456812Y-54906407D01*
X257512970Y-54938652D01*
X260466768Y-57892450D01*
X260500253Y-57953773D01*
X260495269Y-58023465D01*
X260453397Y-58079398D01*
X260387933Y-58103815D01*
X260319660Y-58088963D01*
X260317088Y-58087519D01*
X260275288Y-58063386D01*
X260186144Y-58039500D01*
X260186143Y-58039500D01*
X259116544Y-58039500D01*
X259049505Y-58019815D01*
X259028863Y-58003181D01*
X255468652Y-54442970D01*
X255435167Y-54381647D01*
X255438402Y-54316971D01*
X255439873Y-54312445D01*
X255493402Y-54147701D01*
X255520500Y-53976611D01*
X255520500Y-53803389D01*
X255493402Y-53632299D01*
X255439873Y-53467555D01*
X255361232Y-53313212D01*
X255259414Y-53173072D01*
X255136928Y-53050586D01*
X254996788Y-52948768D01*
X254842445Y-52870127D01*
X254677701Y-52816598D01*
X254677699Y-52816597D01*
X254677698Y-52816597D01*
X254546271Y-52795781D01*
X254506611Y-52789500D01*
X254333389Y-52789500D01*
X254293728Y-52795781D01*
X254162302Y-52816597D01*
X253997552Y-52870128D01*
X253843211Y-52948768D01*
X253812191Y-52971306D01*
X253703072Y-53050586D01*
X253703070Y-53050588D01*
X253703069Y-53050588D01*
X253580588Y-53173069D01*
X253580588Y-53173070D01*
X253580586Y-53173072D01*
X253536859Y-53233256D01*
X253478768Y-53313211D01*
X253400128Y-53467552D01*
X253346597Y-53632301D01*
X253324696Y-53770578D01*
X253319303Y-53781953D01*
X253318405Y-53794513D01*
X253304618Y-53812928D01*
X253294766Y-53833712D01*
X253284078Y-53840366D01*
X253276533Y-53850446D01*
X253254982Y-53858484D01*
X253235455Y-53870643D01*
X253222865Y-53870463D01*
X253211069Y-53874863D01*
X253188592Y-53869973D01*
X253165592Y-53869645D01*
X253153464Y-53862331D01*
X253142796Y-53860011D01*
X253114542Y-53838860D01*
X252990439Y-53714757D01*
X252956954Y-53653434D01*
X252955647Y-53646473D01*
X252953402Y-53632300D01*
X252953402Y-53632299D01*
X252899871Y-53467550D01*
X252821231Y-53313211D01*
X252818499Y-53309451D01*
X252719414Y-53173072D01*
X252596928Y-53050586D01*
X252456788Y-52948768D01*
X252302445Y-52870127D01*
X252137701Y-52816598D01*
X252137699Y-52816597D01*
X252137698Y-52816597D01*
X252006271Y-52795781D01*
X251966611Y-52789500D01*
X251793389Y-52789500D01*
X251753728Y-52795781D01*
X251622302Y-52816597D01*
X251457552Y-52870128D01*
X251303211Y-52948768D01*
X251272191Y-52971306D01*
X251163072Y-53050586D01*
X251163070Y-53050588D01*
X251163069Y-53050588D01*
X251040588Y-53173069D01*
X251040588Y-53173070D01*
X251040586Y-53173072D01*
X250996859Y-53233256D01*
X250938768Y-53313211D01*
X250860128Y-53467552D01*
X250806597Y-53632302D01*
X250798050Y-53686267D01*
X250779500Y-53803389D01*
X250779500Y-53976611D01*
X250806598Y-54147701D01*
X250860127Y-54312445D01*
X250938768Y-54466788D01*
X251040586Y-54606928D01*
X251163072Y-54729414D01*
X251303212Y-54831232D01*
X251457555Y-54909873D01*
X251622299Y-54963402D01*
X251793389Y-54990500D01*
X251793390Y-54990500D01*
X251966610Y-54990500D01*
X251966611Y-54990500D01*
X252137701Y-54963402D01*
X252302445Y-54909873D01*
X252456788Y-54831232D01*
X252596928Y-54729414D01*
X252717649Y-54608693D01*
X252778972Y-54575208D01*
X252848664Y-54580192D01*
X252893011Y-54608693D01*
X257988181Y-59703863D01*
X258021666Y-59765186D01*
X258024500Y-59791544D01*
X258024500Y-61389678D01*
X258039032Y-61462735D01*
X258039033Y-61462739D01*
X258039034Y-61462740D01*
X258094399Y-61545601D01*
X258177260Y-61600966D01*
X258177264Y-61600967D01*
X258250321Y-61615499D01*
X258250324Y-61615500D01*
X258250326Y-61615500D01*
X259999676Y-61615500D01*
X259999677Y-61615499D01*
X260072740Y-61600966D01*
X260155601Y-61545601D01*
X260155603Y-61545597D01*
X260157819Y-61543383D01*
X260163839Y-61540095D01*
X260165756Y-61538815D01*
X260165870Y-61538986D01*
X260219142Y-61509898D01*
X260288834Y-61514882D01*
X260344767Y-61556754D01*
X260369184Y-61622218D01*
X260369500Y-61631064D01*
X260369500Y-64038936D01*
X260349815Y-64105975D01*
X260297011Y-64151730D01*
X260227853Y-64161674D01*
X260164297Y-64132649D01*
X260157819Y-64126617D01*
X260155603Y-64124401D01*
X260155601Y-64124400D01*
X260155601Y-64124399D01*
X260072740Y-64069034D01*
X260072739Y-64069033D01*
X260072735Y-64069032D01*
X259999677Y-64054500D01*
X259999674Y-64054500D01*
X259211544Y-64054500D01*
X259144505Y-64034815D01*
X259123863Y-64018181D01*
X257305213Y-62199531D01*
X257305208Y-62199527D01*
X257225290Y-62153387D01*
X257225289Y-62153386D01*
X257225288Y-62153386D01*
X257136144Y-62129500D01*
X257136143Y-62129500D01*
X252406544Y-62129500D01*
X252339505Y-62109815D01*
X252318863Y-62093181D01*
X250654071Y-60428389D01*
X255484500Y-60428389D01*
X255484500Y-60601611D01*
X255511598Y-60772701D01*
X255565127Y-60937445D01*
X255643768Y-61091788D01*
X255745586Y-61231928D01*
X255868072Y-61354414D01*
X256008212Y-61456232D01*
X256162555Y-61534873D01*
X256327299Y-61588402D01*
X256498389Y-61615500D01*
X256498390Y-61615500D01*
X256671610Y-61615500D01*
X256671611Y-61615500D01*
X256842701Y-61588402D01*
X257007445Y-61534873D01*
X257161788Y-61456232D01*
X257301928Y-61354414D01*
X257424414Y-61231928D01*
X257526232Y-61091788D01*
X257604873Y-60937445D01*
X257658402Y-60772701D01*
X257685500Y-60601611D01*
X257685500Y-60428389D01*
X257658402Y-60257299D01*
X257604873Y-60092555D01*
X257526232Y-59938212D01*
X257424414Y-59798072D01*
X257301928Y-59675586D01*
X257161788Y-59573768D01*
X257007445Y-59495127D01*
X256842701Y-59441598D01*
X256842699Y-59441597D01*
X256842698Y-59441597D01*
X256699625Y-59418937D01*
X256671611Y-59414500D01*
X256498389Y-59414500D01*
X256470375Y-59418937D01*
X256327302Y-59441597D01*
X256327299Y-59441598D01*
X256170182Y-59492649D01*
X256162552Y-59495128D01*
X256008211Y-59573768D01*
X255947986Y-59617525D01*
X255868072Y-59675586D01*
X255868070Y-59675588D01*
X255868069Y-59675588D01*
X255745588Y-59798069D01*
X255745588Y-59798070D01*
X255745586Y-59798072D01*
X255725868Y-59825212D01*
X255643768Y-59938211D01*
X255565128Y-60092552D01*
X255511597Y-60257302D01*
X255497387Y-60347024D01*
X255484500Y-60428389D01*
X250654071Y-60428389D01*
X249726819Y-59501137D01*
X249693334Y-59439814D01*
X249690500Y-59413456D01*
X249690500Y-55022518D01*
X249710185Y-54955479D01*
X249758206Y-54912033D01*
X249916786Y-54831233D01*
X249916785Y-54831233D01*
X249916788Y-54831232D01*
X250056928Y-54729414D01*
X250179414Y-54606928D01*
X250281232Y-54466788D01*
X250359873Y-54312445D01*
X250413402Y-54147701D01*
X250440500Y-53976611D01*
X250440500Y-53803389D01*
X250413402Y-53632299D01*
X250359873Y-53467555D01*
X250281232Y-53313212D01*
X250179414Y-53173072D01*
X250056928Y-53050586D01*
X249916788Y-52948768D01*
X249762445Y-52870127D01*
X249597701Y-52816598D01*
X249597699Y-52816597D01*
X249597698Y-52816597D01*
X249466271Y-52795781D01*
X249426611Y-52789500D01*
X249253389Y-52789500D01*
X249213728Y-52795781D01*
X249082302Y-52816597D01*
X248917552Y-52870128D01*
X248763211Y-52948768D01*
X248732191Y-52971306D01*
X248623072Y-53050586D01*
X248623070Y-53050588D01*
X248623069Y-53050588D01*
X248500588Y-53173069D01*
X248500588Y-53173070D01*
X248500586Y-53173072D01*
X248456859Y-53233256D01*
X248398768Y-53313211D01*
X248320128Y-53467552D01*
X248266597Y-53632302D01*
X248258050Y-53686267D01*
X248239500Y-53803389D01*
X247900500Y-53803389D01*
X247873402Y-53632299D01*
X247819873Y-53467555D01*
X247741232Y-53313212D01*
X247639414Y-53173072D01*
X247516928Y-53050586D01*
X247376788Y-52948768D01*
X247222445Y-52870127D01*
X247057701Y-52816598D01*
X247057699Y-52816597D01*
X247057698Y-52816597D01*
X246926271Y-52795781D01*
X246886611Y-52789500D01*
X246713389Y-52789500D01*
X246673728Y-52795781D01*
X246542302Y-52816597D01*
X246377552Y-52870128D01*
X246223211Y-52948768D01*
X246192191Y-52971306D01*
X246083072Y-53050586D01*
X246083070Y-53050588D01*
X246083069Y-53050588D01*
X245960588Y-53173069D01*
X245960588Y-53173070D01*
X245960586Y-53173072D01*
X245916859Y-53233256D01*
X245858768Y-53313211D01*
X245780128Y-53467552D01*
X245726597Y-53632302D01*
X245718050Y-53686267D01*
X245699500Y-53803389D01*
X245699500Y-53976611D01*
X245726598Y-54147701D01*
X245780127Y-54312445D01*
X245858768Y-54466788D01*
X245960586Y-54606928D01*
X246083072Y-54729414D01*
X246160898Y-54785958D01*
X246223213Y-54831233D01*
X246381794Y-54912033D01*
X246432591Y-54960007D01*
X246449500Y-55022518D01*
X246449500Y-71666143D01*
X246470921Y-71746088D01*
X246470922Y-71746092D01*
X246473385Y-71755288D01*
X246519527Y-71835208D01*
X246519531Y-71835213D01*
X254012137Y-79327819D01*
X254045622Y-79389142D01*
X254040638Y-79458834D01*
X253998766Y-79514767D01*
X253933302Y-79539184D01*
X253924456Y-79539500D01*
X252716544Y-79539500D01*
X252649505Y-79519815D01*
X252628863Y-79503181D01*
X239666819Y-66541137D01*
X239633334Y-66479814D01*
X239630500Y-66453456D01*
X239630500Y-54971565D01*
X239650185Y-54904526D01*
X239698204Y-54861081D01*
X239756788Y-54831232D01*
X239896928Y-54729414D01*
X240019414Y-54606928D01*
X240121232Y-54466788D01*
X240199873Y-54312445D01*
X240253402Y-54147701D01*
X240280500Y-53976611D01*
X240280500Y-53803389D01*
X243159500Y-53803389D01*
X243159500Y-53976611D01*
X243186598Y-54147701D01*
X243240127Y-54312445D01*
X243318768Y-54466788D01*
X243420586Y-54606928D01*
X243543072Y-54729414D01*
X243683212Y-54831232D01*
X243837555Y-54909873D01*
X244002299Y-54963402D01*
X244173389Y-54990500D01*
X244173390Y-54990500D01*
X244346610Y-54990500D01*
X244346611Y-54990500D01*
X244517701Y-54963402D01*
X244682445Y-54909873D01*
X244836788Y-54831232D01*
X244976928Y-54729414D01*
X245099414Y-54606928D01*
X245201232Y-54466788D01*
X245279873Y-54312445D01*
X245333402Y-54147701D01*
X245360500Y-53976611D01*
X245360500Y-53803389D01*
X245333402Y-53632299D01*
X245279873Y-53467555D01*
X245201232Y-53313212D01*
X245099414Y-53173072D01*
X244976928Y-53050586D01*
X244836788Y-52948768D01*
X244682445Y-52870127D01*
X244517701Y-52816598D01*
X244517699Y-52816597D01*
X244517698Y-52816597D01*
X244386271Y-52795781D01*
X244346611Y-52789500D01*
X244173389Y-52789500D01*
X244133728Y-52795781D01*
X244002302Y-52816597D01*
X243837552Y-52870128D01*
X243683211Y-52948768D01*
X243652191Y-52971306D01*
X243543072Y-53050586D01*
X243543070Y-53050588D01*
X243543069Y-53050588D01*
X243420588Y-53173069D01*
X243420588Y-53173070D01*
X243420586Y-53173072D01*
X243376859Y-53233256D01*
X243318768Y-53313211D01*
X243240128Y-53467552D01*
X243186597Y-53632302D01*
X243178050Y-53686267D01*
X243159500Y-53803389D01*
X240280500Y-53803389D01*
X240253402Y-53632299D01*
X240199873Y-53467555D01*
X240121232Y-53313212D01*
X240019414Y-53173072D01*
X239896928Y-53050586D01*
X239756788Y-52948768D01*
X239602445Y-52870127D01*
X239437701Y-52816598D01*
X239437699Y-52816597D01*
X239437698Y-52816597D01*
X239306271Y-52795781D01*
X239266611Y-52789500D01*
X239093389Y-52789500D01*
X239053728Y-52795781D01*
X238922302Y-52816597D01*
X238757552Y-52870128D01*
X238603211Y-52948768D01*
X238572191Y-52971306D01*
X238463072Y-53050586D01*
X238463070Y-53050588D01*
X238463069Y-53050588D01*
X238340588Y-53173069D01*
X238340588Y-53173070D01*
X238340586Y-53173072D01*
X238296859Y-53233256D01*
X238238768Y-53313211D01*
X238160128Y-53467552D01*
X238106597Y-53632302D01*
X238098050Y-53686267D01*
X238079500Y-53803389D01*
X237740500Y-53803389D01*
X237713402Y-53632299D01*
X237659873Y-53467555D01*
X237581232Y-53313212D01*
X237479414Y-53173072D01*
X237356928Y-53050586D01*
X237216788Y-52948768D01*
X237062445Y-52870127D01*
X236897701Y-52816598D01*
X236897699Y-52816597D01*
X236897698Y-52816597D01*
X236766271Y-52795781D01*
X236726611Y-52789500D01*
X236553389Y-52789500D01*
X236513728Y-52795781D01*
X236382302Y-52816597D01*
X236217552Y-52870128D01*
X236063211Y-52948768D01*
X236032191Y-52971306D01*
X235923072Y-53050586D01*
X235923070Y-53050588D01*
X235923069Y-53050588D01*
X235800588Y-53173069D01*
X235800588Y-53173070D01*
X235800586Y-53173072D01*
X235756859Y-53233256D01*
X235698768Y-53313211D01*
X235620128Y-53467552D01*
X235566597Y-53632302D01*
X235558050Y-53686267D01*
X235539500Y-53803389D01*
X235539500Y-53976611D01*
X235566598Y-54147701D01*
X235620127Y-54312445D01*
X235698768Y-54466788D01*
X235800586Y-54606928D01*
X235923072Y-54729414D01*
X236000898Y-54785958D01*
X236063213Y-54831233D01*
X236221794Y-54912033D01*
X236272591Y-54960007D01*
X236289500Y-55022518D01*
X236289500Y-66396144D01*
X236299855Y-66434790D01*
X236313384Y-66485285D01*
X236313385Y-66485286D01*
X236359527Y-66565208D01*
X236359531Y-66565213D01*
X250417055Y-80622737D01*
X250450540Y-80684060D01*
X250445556Y-80753752D01*
X250403684Y-80809685D01*
X250338220Y-80834102D01*
X250269947Y-80819250D01*
X250256494Y-80810739D01*
X250136788Y-80723768D01*
X249982445Y-80645127D01*
X249817701Y-80591598D01*
X249817699Y-80591597D01*
X249817698Y-80591597D01*
X249661069Y-80566790D01*
X249646611Y-80564500D01*
X249473389Y-80564500D01*
X249458931Y-80566790D01*
X249302301Y-80591597D01*
X249133028Y-80646597D01*
X249063186Y-80648592D01*
X249007029Y-80616347D01*
X234486819Y-66096137D01*
X234453334Y-66034814D01*
X234450500Y-66008456D01*
X234450500Y-55022518D01*
X234470185Y-54955479D01*
X234518206Y-54912033D01*
X234676786Y-54831233D01*
X234676785Y-54831233D01*
X234676788Y-54831232D01*
X234816928Y-54729414D01*
X234939414Y-54606928D01*
X235041232Y-54466788D01*
X235119873Y-54312445D01*
X235173402Y-54147701D01*
X235200500Y-53976611D01*
X235200500Y-53803389D01*
X235173402Y-53632299D01*
X235119873Y-53467555D01*
X235041232Y-53313212D01*
X234939414Y-53173072D01*
X234816928Y-53050586D01*
X234676788Y-52948768D01*
X234522445Y-52870127D01*
X234357701Y-52816598D01*
X234357699Y-52816597D01*
X234357698Y-52816597D01*
X234226271Y-52795781D01*
X234186611Y-52789500D01*
X234013389Y-52789500D01*
X233973728Y-52795781D01*
X233842302Y-52816597D01*
X233677552Y-52870128D01*
X233523211Y-52948768D01*
X233492191Y-52971306D01*
X233383072Y-53050586D01*
X233383070Y-53050588D01*
X233383069Y-53050588D01*
X233260588Y-53173069D01*
X233260588Y-53173070D01*
X233260586Y-53173072D01*
X233216859Y-53233256D01*
X233158768Y-53313211D01*
X233080128Y-53467552D01*
X233026597Y-53632302D01*
X233018050Y-53686267D01*
X232999500Y-53803389D01*
X232660500Y-53803389D01*
X232633402Y-53632299D01*
X232579873Y-53467555D01*
X232501232Y-53313212D01*
X232399414Y-53173072D01*
X232276928Y-53050586D01*
X232136788Y-52948768D01*
X231982445Y-52870127D01*
X231817701Y-52816598D01*
X231817699Y-52816597D01*
X231817698Y-52816597D01*
X231686271Y-52795781D01*
X231646611Y-52789500D01*
X231473389Y-52789500D01*
X231433728Y-52795781D01*
X231302302Y-52816597D01*
X231137552Y-52870128D01*
X230983211Y-52948768D01*
X230952191Y-52971306D01*
X230843072Y-53050586D01*
X230843070Y-53050588D01*
X230843069Y-53050588D01*
X230720588Y-53173069D01*
X230720588Y-53173070D01*
X230720586Y-53173072D01*
X230676859Y-53233256D01*
X230618768Y-53313211D01*
X230540128Y-53467552D01*
X230486597Y-53632302D01*
X230478050Y-53686267D01*
X230459500Y-53803389D01*
X230120500Y-53803389D01*
X230093402Y-53632299D01*
X230039873Y-53467555D01*
X229961232Y-53313212D01*
X229859414Y-53173072D01*
X229736928Y-53050586D01*
X229596788Y-52948768D01*
X229442445Y-52870127D01*
X229277701Y-52816598D01*
X229277699Y-52816597D01*
X229277698Y-52816597D01*
X229146271Y-52795781D01*
X229106611Y-52789500D01*
X228933389Y-52789500D01*
X228893728Y-52795781D01*
X228762302Y-52816597D01*
X228597552Y-52870128D01*
X228443211Y-52948768D01*
X228412191Y-52971306D01*
X228303072Y-53050586D01*
X228303070Y-53050588D01*
X228303069Y-53050588D01*
X228180588Y-53173069D01*
X228180588Y-53173070D01*
X228180586Y-53173072D01*
X228136859Y-53233256D01*
X228078768Y-53313211D01*
X228000128Y-53467552D01*
X227946597Y-53632302D01*
X227938050Y-53686267D01*
X227919500Y-53803389D01*
X227919500Y-53976611D01*
X227946598Y-54147701D01*
X228000127Y-54312445D01*
X228078768Y-54466788D01*
X228180586Y-54606928D01*
X228303072Y-54729414D01*
X228380898Y-54785958D01*
X228443213Y-54831233D01*
X228601794Y-54912033D01*
X228652591Y-54960007D01*
X228669500Y-55022518D01*
X228669500Y-66626144D01*
X228681666Y-66671546D01*
X228689424Y-66700500D01*
X228689424Y-66700502D01*
X228693384Y-66715283D01*
X228693385Y-66715286D01*
X228739527Y-66795208D01*
X228739531Y-66795213D01*
X240033181Y-78088863D01*
X240066666Y-78150186D01*
X240069500Y-78176544D01*
X240069500Y-80587481D01*
X240049815Y-80654520D01*
X240001795Y-80697966D01*
X239843211Y-80778768D01*
X239766387Y-80834585D01*
X239703072Y-80880586D01*
X239703070Y-80880588D01*
X239703069Y-80880588D01*
X239643181Y-80940477D01*
X239581858Y-80973962D01*
X239512166Y-80968978D01*
X239456233Y-80927106D01*
X239431816Y-80861642D01*
X239431500Y-80852796D01*
X239431500Y-80384858D01*
X239431500Y-80384856D01*
X239407614Y-80295712D01*
X239399920Y-80282386D01*
X239361470Y-80215788D01*
X226866819Y-67721137D01*
X226833334Y-67659814D01*
X226830500Y-67633456D01*
X226830500Y-55022518D01*
X226850185Y-54955479D01*
X226898206Y-54912033D01*
X227056786Y-54831233D01*
X227056785Y-54831233D01*
X227056788Y-54831232D01*
X227196928Y-54729414D01*
X227319414Y-54606928D01*
X227421232Y-54466788D01*
X227499873Y-54312445D01*
X227553402Y-54147701D01*
X227580500Y-53976611D01*
X227580500Y-53803389D01*
X227553402Y-53632299D01*
X227499873Y-53467555D01*
X227421232Y-53313212D01*
X227319414Y-53173072D01*
X227196928Y-53050586D01*
X227056788Y-52948768D01*
X226902445Y-52870127D01*
X226737701Y-52816598D01*
X226737699Y-52816597D01*
X226737698Y-52816597D01*
X226606271Y-52795781D01*
X226566611Y-52789500D01*
X226393389Y-52789500D01*
X226353728Y-52795781D01*
X226222302Y-52816597D01*
X226057552Y-52870128D01*
X225903211Y-52948768D01*
X225872191Y-52971306D01*
X225763072Y-53050586D01*
X225763070Y-53050588D01*
X225763069Y-53050588D01*
X225640588Y-53173069D01*
X225640588Y-53173070D01*
X225640586Y-53173072D01*
X225596859Y-53233256D01*
X225538768Y-53313211D01*
X225460128Y-53467552D01*
X225406597Y-53632302D01*
X225398050Y-53686267D01*
X225379500Y-53803389D01*
X225040500Y-53803389D01*
X225013402Y-53632299D01*
X224959873Y-53467555D01*
X224881232Y-53313212D01*
X224779414Y-53173072D01*
X224656928Y-53050586D01*
X224516788Y-52948768D01*
X224362445Y-52870127D01*
X224197701Y-52816598D01*
X224197699Y-52816597D01*
X224197698Y-52816597D01*
X224066271Y-52795781D01*
X224026611Y-52789500D01*
X223853389Y-52789500D01*
X223813728Y-52795781D01*
X223682302Y-52816597D01*
X223517552Y-52870128D01*
X223363211Y-52948768D01*
X223332191Y-52971306D01*
X223223072Y-53050586D01*
X223223070Y-53050588D01*
X223223069Y-53050588D01*
X223100588Y-53173069D01*
X223100588Y-53173070D01*
X223100586Y-53173072D01*
X223056859Y-53233256D01*
X222998768Y-53313211D01*
X222920128Y-53467552D01*
X222866597Y-53632302D01*
X222858050Y-53686267D01*
X222839500Y-53803389D01*
X222839500Y-53976611D01*
X222866598Y-54147701D01*
X222920127Y-54312445D01*
X222998768Y-54466788D01*
X223100586Y-54606928D01*
X223223072Y-54729414D01*
X223300898Y-54785958D01*
X223363213Y-54831233D01*
X223521794Y-54912033D01*
X223572591Y-54960007D01*
X223589500Y-55022518D01*
X223589500Y-59299162D01*
X223569815Y-59366201D01*
X223517011Y-59411956D01*
X223447853Y-59421900D01*
X223433407Y-59418937D01*
X223358762Y-59398936D01*
X223338475Y-59393500D01*
X223193525Y-59393500D01*
X223064993Y-59427940D01*
X223053511Y-59431017D01*
X222927988Y-59503488D01*
X222927982Y-59503493D01*
X222825493Y-59605982D01*
X222825488Y-59605988D01*
X222753017Y-59731511D01*
X222753016Y-59731515D01*
X222715500Y-59871525D01*
X222715500Y-60016475D01*
X222752014Y-60152745D01*
X222753017Y-60156488D01*
X222825488Y-60282011D01*
X222825493Y-60282017D01*
X222854181Y-60310705D01*
X222887666Y-60372028D01*
X222890500Y-60398386D01*
X222890500Y-67409456D01*
X222870815Y-67476495D01*
X222818011Y-67522250D01*
X222748853Y-67532194D01*
X222685297Y-67503169D01*
X222678819Y-67497137D01*
X219246819Y-64065137D01*
X219213334Y-64003814D01*
X219210500Y-63977456D01*
X219210500Y-60341268D01*
X219230185Y-60274229D01*
X219282989Y-60228474D01*
X219352147Y-60218530D01*
X219366580Y-60221490D01*
X219437525Y-60240500D01*
X219437528Y-60240500D01*
X219582472Y-60240500D01*
X219582475Y-60240500D01*
X219722485Y-60202984D01*
X219848015Y-60130509D01*
X219950509Y-60028015D01*
X220022984Y-59902485D01*
X220060500Y-59762475D01*
X220060500Y-59617525D01*
X220022984Y-59477515D01*
X220016321Y-59465975D01*
X219950511Y-59351988D01*
X219950506Y-59351982D01*
X219867819Y-59269295D01*
X219834334Y-59207972D01*
X219831500Y-59181614D01*
X219831500Y-58880899D01*
X219851185Y-58813860D01*
X219867819Y-58793218D01*
X220051886Y-58609151D01*
X220474474Y-58186563D01*
X220474475Y-58186562D01*
X220523910Y-58100938D01*
X220549500Y-58005435D01*
X220549500Y-52614565D01*
X220549500Y-52614564D01*
X220523911Y-52519063D01*
X220474475Y-52433437D01*
X219917321Y-51876284D01*
X219883837Y-51814962D01*
X219887071Y-51750289D01*
X219933402Y-51607701D01*
X219960500Y-51436611D01*
X219960500Y-51263389D01*
X219933402Y-51092299D01*
X219879873Y-50927555D01*
X219801232Y-50773212D01*
X219699414Y-50633072D01*
X219576928Y-50510586D01*
X219436788Y-50408768D01*
X219282445Y-50330127D01*
X219117701Y-50276598D01*
X219117699Y-50276597D01*
X219117698Y-50276597D01*
X218986271Y-50255781D01*
X218946611Y-50249500D01*
X218773389Y-50249500D01*
X218741192Y-50254599D01*
X218602301Y-50276597D01*
X218602297Y-50276598D01*
X218533788Y-50298858D01*
X218463947Y-50300853D01*
X218404114Y-50264772D01*
X218373287Y-50202071D01*
X218381252Y-50132657D01*
X218407785Y-50093251D01*
X218559220Y-49941816D01*
X218620541Y-49908334D01*
X218646899Y-49905500D01*
X220519101Y-49905500D01*
X220586140Y-49925185D01*
X220606782Y-49941819D01*
X220868487Y-50203524D01*
X220901972Y-50264847D01*
X220896988Y-50334539D01*
X220855116Y-50390472D01*
X220837107Y-50401686D01*
X220823217Y-50408764D01*
X220766912Y-50449671D01*
X220683072Y-50510586D01*
X220683070Y-50510588D01*
X220683069Y-50510588D01*
X220560588Y-50633069D01*
X220560588Y-50633070D01*
X220560586Y-50633072D01*
X220516859Y-50693256D01*
X220458768Y-50773211D01*
X220380128Y-50927552D01*
X220326597Y-51092302D01*
X220299500Y-51263389D01*
X220299500Y-51436611D01*
X220326598Y-51607701D01*
X220380127Y-51772445D01*
X220458768Y-51926788D01*
X220560586Y-52066928D01*
X220683072Y-52189414D01*
X220823212Y-52291232D01*
X220977555Y-52369873D01*
X221142299Y-52423402D01*
X221313389Y-52450500D01*
X221313390Y-52450500D01*
X221486610Y-52450500D01*
X221486611Y-52450500D01*
X221657701Y-52423402D01*
X221822445Y-52369873D01*
X221976788Y-52291232D01*
X222116928Y-52189414D01*
X222239414Y-52066928D01*
X222341232Y-51926788D01*
X222419873Y-51772445D01*
X222473402Y-51607701D01*
X222500500Y-51436611D01*
X222500500Y-51263389D01*
X222839500Y-51263389D01*
X222839500Y-51436611D01*
X222866598Y-51607701D01*
X222920127Y-51772445D01*
X222998768Y-51926788D01*
X223100586Y-52066928D01*
X223223072Y-52189414D01*
X223363212Y-52291232D01*
X223517555Y-52369873D01*
X223682299Y-52423402D01*
X223853389Y-52450500D01*
X223853390Y-52450500D01*
X224026610Y-52450500D01*
X224026611Y-52450500D01*
X224197701Y-52423402D01*
X224362445Y-52369873D01*
X224516788Y-52291232D01*
X224656928Y-52189414D01*
X224779414Y-52066928D01*
X224881232Y-51926788D01*
X224959873Y-51772445D01*
X225013402Y-51607701D01*
X225040500Y-51436611D01*
X225040500Y-51263389D01*
X227919500Y-51263389D01*
X227919500Y-51436611D01*
X227946598Y-51607701D01*
X228000127Y-51772445D01*
X228078768Y-51926788D01*
X228180586Y-52066928D01*
X228303072Y-52189414D01*
X228443212Y-52291232D01*
X228597555Y-52369873D01*
X228762299Y-52423402D01*
X228933389Y-52450500D01*
X228933390Y-52450500D01*
X229106610Y-52450500D01*
X229106611Y-52450500D01*
X229277701Y-52423402D01*
X229442445Y-52369873D01*
X229596788Y-52291232D01*
X229736928Y-52189414D01*
X229859414Y-52066928D01*
X229961232Y-51926788D01*
X230039873Y-51772445D01*
X230093402Y-51607701D01*
X230120500Y-51436611D01*
X230120500Y-51263389D01*
X230459500Y-51263389D01*
X230459500Y-51436611D01*
X230486598Y-51607701D01*
X230540127Y-51772445D01*
X230618768Y-51926788D01*
X230720586Y-52066928D01*
X230843072Y-52189414D01*
X230983212Y-52291232D01*
X231137555Y-52369873D01*
X231302299Y-52423402D01*
X231473389Y-52450500D01*
X231473390Y-52450500D01*
X231646610Y-52450500D01*
X231646611Y-52450500D01*
X231817701Y-52423402D01*
X231982445Y-52369873D01*
X232136788Y-52291232D01*
X232276928Y-52189414D01*
X232399414Y-52066928D01*
X232501232Y-51926788D01*
X232579873Y-51772445D01*
X232633402Y-51607701D01*
X232660500Y-51436611D01*
X232660500Y-51263389D01*
X235539500Y-51263389D01*
X235539500Y-51436611D01*
X235566598Y-51607701D01*
X235620127Y-51772445D01*
X235698768Y-51926788D01*
X235800586Y-52066928D01*
X235923072Y-52189414D01*
X236063212Y-52291232D01*
X236217555Y-52369873D01*
X236382299Y-52423402D01*
X236553389Y-52450500D01*
X236553390Y-52450500D01*
X236726610Y-52450500D01*
X236726611Y-52450500D01*
X236897701Y-52423402D01*
X237062445Y-52369873D01*
X237216788Y-52291232D01*
X237356928Y-52189414D01*
X237479414Y-52066928D01*
X237581232Y-51926788D01*
X237659873Y-51772445D01*
X237713402Y-51607701D01*
X237740500Y-51436611D01*
X237740500Y-51263389D01*
X238079500Y-51263389D01*
X238079500Y-51436611D01*
X238106598Y-51607701D01*
X238160127Y-51772445D01*
X238238768Y-51926788D01*
X238340586Y-52066928D01*
X238463072Y-52189414D01*
X238603212Y-52291232D01*
X238757555Y-52369873D01*
X238922299Y-52423402D01*
X239093389Y-52450500D01*
X239093390Y-52450500D01*
X239266610Y-52450500D01*
X239266611Y-52450500D01*
X239437701Y-52423402D01*
X239602445Y-52369873D01*
X239756788Y-52291232D01*
X239896928Y-52189414D01*
X240019414Y-52066928D01*
X240121232Y-51926788D01*
X240199873Y-51772445D01*
X240253402Y-51607701D01*
X240280500Y-51436611D01*
X240280500Y-51263389D01*
X240619500Y-51263389D01*
X240619500Y-51436611D01*
X240646598Y-51607701D01*
X240700127Y-51772445D01*
X240778768Y-51926788D01*
X240880586Y-52066928D01*
X241003072Y-52189414D01*
X241143212Y-52291232D01*
X241297555Y-52369873D01*
X241462299Y-52423402D01*
X241633389Y-52450500D01*
X241633390Y-52450500D01*
X241806610Y-52450500D01*
X241806611Y-52450500D01*
X241977701Y-52423402D01*
X242142445Y-52369873D01*
X242296788Y-52291232D01*
X242436928Y-52189414D01*
X242559414Y-52066928D01*
X242661232Y-51926788D01*
X242739873Y-51772445D01*
X242793402Y-51607701D01*
X242820500Y-51436611D01*
X242820500Y-51263389D01*
X243159500Y-51263389D01*
X243159500Y-51436611D01*
X243186598Y-51607701D01*
X243240127Y-51772445D01*
X243318768Y-51926788D01*
X243420586Y-52066928D01*
X243543072Y-52189414D01*
X243683212Y-52291232D01*
X243837555Y-52369873D01*
X244002299Y-52423402D01*
X244173389Y-52450500D01*
X244173390Y-52450500D01*
X244346610Y-52450500D01*
X244346611Y-52450500D01*
X244517701Y-52423402D01*
X244682445Y-52369873D01*
X244836788Y-52291232D01*
X244976928Y-52189414D01*
X245099414Y-52066928D01*
X245201232Y-51926788D01*
X245279873Y-51772445D01*
X245333402Y-51607701D01*
X245360500Y-51436611D01*
X245360500Y-51263389D01*
X248239500Y-51263389D01*
X248239500Y-51436611D01*
X248266598Y-51607701D01*
X248320127Y-51772445D01*
X248398768Y-51926788D01*
X248500586Y-52066928D01*
X248623072Y-52189414D01*
X248763212Y-52291232D01*
X248917555Y-52369873D01*
X249082299Y-52423402D01*
X249253389Y-52450500D01*
X249253390Y-52450500D01*
X249426610Y-52450500D01*
X249426611Y-52450500D01*
X249597701Y-52423402D01*
X249762445Y-52369873D01*
X249916788Y-52291232D01*
X250056928Y-52189414D01*
X250179414Y-52066928D01*
X250281232Y-51926788D01*
X250359873Y-51772445D01*
X250413402Y-51607701D01*
X250440500Y-51436611D01*
X250440500Y-51263389D01*
X253319500Y-51263389D01*
X253319500Y-51436611D01*
X253346598Y-51607701D01*
X253400127Y-51772445D01*
X253478768Y-51926788D01*
X253580586Y-52066928D01*
X253703072Y-52189414D01*
X253843212Y-52291232D01*
X253997555Y-52369873D01*
X254162299Y-52423402D01*
X254333389Y-52450500D01*
X254333390Y-52450500D01*
X254506610Y-52450500D01*
X254506611Y-52450500D01*
X254677701Y-52423402D01*
X254842445Y-52369873D01*
X254996788Y-52291232D01*
X255136928Y-52189414D01*
X255259414Y-52066928D01*
X255361232Y-51926788D01*
X255439873Y-51772445D01*
X255493402Y-51607701D01*
X255520500Y-51436611D01*
X255520500Y-51263389D01*
X255859500Y-51263389D01*
X255859500Y-51436611D01*
X255886598Y-51607701D01*
X255940127Y-51772445D01*
X256018768Y-51926788D01*
X256120586Y-52066928D01*
X256243072Y-52189414D01*
X256383212Y-52291232D01*
X256537555Y-52369873D01*
X256702299Y-52423402D01*
X256873389Y-52450500D01*
X256873390Y-52450500D01*
X257046610Y-52450500D01*
X257046611Y-52450500D01*
X257217701Y-52423402D01*
X257382445Y-52369873D01*
X257536788Y-52291232D01*
X257676928Y-52189414D01*
X257799414Y-52066928D01*
X257901232Y-51926788D01*
X257979873Y-51772445D01*
X258033402Y-51607701D01*
X258060500Y-51436611D01*
X258060500Y-51263389D01*
X258399500Y-51263389D01*
X258399500Y-51436611D01*
X258426598Y-51607701D01*
X258480127Y-51772445D01*
X258558768Y-51926788D01*
X258660586Y-52066928D01*
X258783072Y-52189414D01*
X258923212Y-52291232D01*
X259077555Y-52369873D01*
X259242299Y-52423402D01*
X259413389Y-52450500D01*
X259413390Y-52450500D01*
X259586610Y-52450500D01*
X259586611Y-52450500D01*
X259757701Y-52423402D01*
X259922445Y-52369873D01*
X260076788Y-52291232D01*
X260216928Y-52189414D01*
X260339414Y-52066928D01*
X260441232Y-51926788D01*
X260519873Y-51772445D01*
X260573402Y-51607701D01*
X260600500Y-51436611D01*
X260600500Y-51263389D01*
X260573402Y-51092299D01*
X260519873Y-50927555D01*
X260441232Y-50773212D01*
X260339414Y-50633072D01*
X260216928Y-50510586D01*
X260076788Y-50408768D01*
X259922445Y-50330127D01*
X259757701Y-50276598D01*
X259757699Y-50276597D01*
X259757698Y-50276597D01*
X259626271Y-50255781D01*
X259586611Y-50249500D01*
X259413389Y-50249500D01*
X259373728Y-50255781D01*
X259242302Y-50276597D01*
X259077552Y-50330128D01*
X258923211Y-50408768D01*
X258843256Y-50466859D01*
X258783072Y-50510586D01*
X258783070Y-50510588D01*
X258783069Y-50510588D01*
X258660588Y-50633069D01*
X258660588Y-50633070D01*
X258660586Y-50633072D01*
X258616859Y-50693256D01*
X258558768Y-50773211D01*
X258480128Y-50927552D01*
X258426597Y-51092302D01*
X258399500Y-51263389D01*
X258060500Y-51263389D01*
X258033402Y-51092299D01*
X257979873Y-50927555D01*
X257901232Y-50773212D01*
X257799414Y-50633072D01*
X257676928Y-50510586D01*
X257536788Y-50408768D01*
X257382445Y-50330127D01*
X257217701Y-50276598D01*
X257217699Y-50276597D01*
X257217698Y-50276597D01*
X257086271Y-50255781D01*
X257046611Y-50249500D01*
X256873389Y-50249500D01*
X256833728Y-50255781D01*
X256702302Y-50276597D01*
X256537552Y-50330128D01*
X256383211Y-50408768D01*
X256303256Y-50466859D01*
X256243072Y-50510586D01*
X256243070Y-50510588D01*
X256243069Y-50510588D01*
X256120588Y-50633069D01*
X256120588Y-50633070D01*
X256120586Y-50633072D01*
X256076859Y-50693256D01*
X256018768Y-50773211D01*
X255940128Y-50927552D01*
X255886597Y-51092302D01*
X255859500Y-51263389D01*
X255520500Y-51263389D01*
X255493402Y-51092299D01*
X255439873Y-50927555D01*
X255361232Y-50773212D01*
X255259414Y-50633072D01*
X255136928Y-50510586D01*
X254996788Y-50408768D01*
X254842445Y-50330127D01*
X254677701Y-50276598D01*
X254677699Y-50276597D01*
X254677698Y-50276597D01*
X254546271Y-50255781D01*
X254506611Y-50249500D01*
X254333389Y-50249500D01*
X254293728Y-50255781D01*
X254162302Y-50276597D01*
X253997552Y-50330128D01*
X253843211Y-50408768D01*
X253763256Y-50466859D01*
X253703072Y-50510586D01*
X253703070Y-50510588D01*
X253703069Y-50510588D01*
X253580588Y-50633069D01*
X253580588Y-50633070D01*
X253580586Y-50633072D01*
X253536859Y-50693256D01*
X253478768Y-50773211D01*
X253400128Y-50927552D01*
X253346597Y-51092302D01*
X253319500Y-51263389D01*
X250440500Y-51263389D01*
X250413402Y-51092299D01*
X250359873Y-50927555D01*
X250281232Y-50773212D01*
X250179414Y-50633072D01*
X250056928Y-50510586D01*
X249916788Y-50408768D01*
X249762445Y-50330127D01*
X249597701Y-50276598D01*
X249597699Y-50276597D01*
X249597698Y-50276597D01*
X249466271Y-50255781D01*
X249426611Y-50249500D01*
X249253389Y-50249500D01*
X249213728Y-50255781D01*
X249082302Y-50276597D01*
X248917552Y-50330128D01*
X248763211Y-50408768D01*
X248683256Y-50466859D01*
X248623072Y-50510586D01*
X248623070Y-50510588D01*
X248623069Y-50510588D01*
X248500588Y-50633069D01*
X248500588Y-50633070D01*
X248500586Y-50633072D01*
X248456859Y-50693256D01*
X248398768Y-50773211D01*
X248320128Y-50927552D01*
X248266597Y-51092302D01*
X248239500Y-51263389D01*
X245360500Y-51263389D01*
X245333402Y-51092299D01*
X245279873Y-50927555D01*
X245201232Y-50773212D01*
X245099414Y-50633072D01*
X244976928Y-50510586D01*
X244836788Y-50408768D01*
X244682445Y-50330127D01*
X244517701Y-50276598D01*
X244517699Y-50276597D01*
X244517698Y-50276597D01*
X244386271Y-50255781D01*
X244346611Y-50249500D01*
X244173389Y-50249500D01*
X244133728Y-50255781D01*
X244002302Y-50276597D01*
X243837552Y-50330128D01*
X243683211Y-50408768D01*
X243603256Y-50466859D01*
X243543072Y-50510586D01*
X243543070Y-50510588D01*
X243543069Y-50510588D01*
X243420588Y-50633069D01*
X243420588Y-50633070D01*
X243420586Y-50633072D01*
X243376859Y-50693256D01*
X243318768Y-50773211D01*
X243240128Y-50927552D01*
X243186597Y-51092302D01*
X243159500Y-51263389D01*
X242820500Y-51263389D01*
X242793402Y-51092299D01*
X242739873Y-50927555D01*
X242661232Y-50773212D01*
X242559414Y-50633072D01*
X242436928Y-50510586D01*
X242296788Y-50408768D01*
X242142445Y-50330127D01*
X241977701Y-50276598D01*
X241977699Y-50276597D01*
X241977698Y-50276597D01*
X241846271Y-50255781D01*
X241806611Y-50249500D01*
X241633389Y-50249500D01*
X241593728Y-50255781D01*
X241462302Y-50276597D01*
X241297552Y-50330128D01*
X241143211Y-50408768D01*
X241063256Y-50466859D01*
X241003072Y-50510586D01*
X241003070Y-50510588D01*
X241003069Y-50510588D01*
X240880588Y-50633069D01*
X240880588Y-50633070D01*
X240880586Y-50633072D01*
X240836859Y-50693256D01*
X240778768Y-50773211D01*
X240700128Y-50927552D01*
X240646597Y-51092302D01*
X240619500Y-51263389D01*
X240280500Y-51263389D01*
X240253402Y-51092299D01*
X240199873Y-50927555D01*
X240121232Y-50773212D01*
X240019414Y-50633072D01*
X239896928Y-50510586D01*
X239756788Y-50408768D01*
X239602445Y-50330127D01*
X239437701Y-50276598D01*
X239437699Y-50276597D01*
X239437698Y-50276597D01*
X239306271Y-50255781D01*
X239266611Y-50249500D01*
X239093389Y-50249500D01*
X239053728Y-50255781D01*
X238922302Y-50276597D01*
X238757552Y-50330128D01*
X238603211Y-50408768D01*
X238523256Y-50466859D01*
X238463072Y-50510586D01*
X238463070Y-50510588D01*
X238463069Y-50510588D01*
X238340588Y-50633069D01*
X238340588Y-50633070D01*
X238340586Y-50633072D01*
X238296859Y-50693256D01*
X238238768Y-50773211D01*
X238160128Y-50927552D01*
X238106597Y-51092302D01*
X238079500Y-51263389D01*
X237740500Y-51263389D01*
X237713402Y-51092299D01*
X237659873Y-50927555D01*
X237581232Y-50773212D01*
X237479414Y-50633072D01*
X237356928Y-50510586D01*
X237216788Y-50408768D01*
X237062445Y-50330127D01*
X236897701Y-50276598D01*
X236897699Y-50276597D01*
X236897698Y-50276597D01*
X236766271Y-50255781D01*
X236726611Y-50249500D01*
X236553389Y-50249500D01*
X236513728Y-50255781D01*
X236382302Y-50276597D01*
X236217552Y-50330128D01*
X236063211Y-50408768D01*
X235983256Y-50466859D01*
X235923072Y-50510586D01*
X235923070Y-50510588D01*
X235923069Y-50510588D01*
X235800588Y-50633069D01*
X235800588Y-50633070D01*
X235800586Y-50633072D01*
X235756859Y-50693256D01*
X235698768Y-50773211D01*
X235620128Y-50927552D01*
X235566597Y-51092302D01*
X235539500Y-51263389D01*
X232660500Y-51263389D01*
X232633402Y-51092299D01*
X232579873Y-50927555D01*
X232501232Y-50773212D01*
X232399414Y-50633072D01*
X232276928Y-50510586D01*
X232136788Y-50408768D01*
X231982445Y-50330127D01*
X231817701Y-50276598D01*
X231817699Y-50276597D01*
X231817698Y-50276597D01*
X231686271Y-50255781D01*
X231646611Y-50249500D01*
X231473389Y-50249500D01*
X231433728Y-50255781D01*
X231302302Y-50276597D01*
X231137552Y-50330128D01*
X230983211Y-50408768D01*
X230903256Y-50466859D01*
X230843072Y-50510586D01*
X230843070Y-50510588D01*
X230843069Y-50510588D01*
X230720588Y-50633069D01*
X230720588Y-50633070D01*
X230720586Y-50633072D01*
X230676859Y-50693256D01*
X230618768Y-50773211D01*
X230540128Y-50927552D01*
X230486597Y-51092302D01*
X230459500Y-51263389D01*
X230120500Y-51263389D01*
X230093402Y-51092299D01*
X230039873Y-50927555D01*
X229961232Y-50773212D01*
X229859414Y-50633072D01*
X229736928Y-50510586D01*
X229596788Y-50408768D01*
X229442445Y-50330127D01*
X229277701Y-50276598D01*
X229277699Y-50276597D01*
X229277698Y-50276597D01*
X229146271Y-50255781D01*
X229106611Y-50249500D01*
X228933389Y-50249500D01*
X228893728Y-50255781D01*
X228762302Y-50276597D01*
X228597552Y-50330128D01*
X228443211Y-50408768D01*
X228363256Y-50466859D01*
X228303072Y-50510586D01*
X228303070Y-50510588D01*
X228303069Y-50510588D01*
X228180588Y-50633069D01*
X228180588Y-50633070D01*
X228180586Y-50633072D01*
X228136859Y-50693256D01*
X228078768Y-50773211D01*
X228000128Y-50927552D01*
X227946597Y-51092302D01*
X227919500Y-51263389D01*
X225040500Y-51263389D01*
X225013402Y-51092299D01*
X224959873Y-50927555D01*
X224881232Y-50773212D01*
X224779414Y-50633072D01*
X224656928Y-50510586D01*
X224516788Y-50408768D01*
X224362445Y-50330127D01*
X224197701Y-50276598D01*
X224197699Y-50276597D01*
X224197698Y-50276597D01*
X224066271Y-50255781D01*
X224026611Y-50249500D01*
X223853389Y-50249500D01*
X223813728Y-50255781D01*
X223682302Y-50276597D01*
X223517552Y-50330128D01*
X223363211Y-50408768D01*
X223283256Y-50466859D01*
X223223072Y-50510586D01*
X223223070Y-50510588D01*
X223223069Y-50510588D01*
X223100588Y-50633069D01*
X223100588Y-50633070D01*
X223100586Y-50633072D01*
X223056859Y-50693256D01*
X222998768Y-50773211D01*
X222920128Y-50927552D01*
X222866597Y-51092302D01*
X222839500Y-51263389D01*
X222500500Y-51263389D01*
X222473402Y-51092299D01*
X222419873Y-50927555D01*
X222341232Y-50773212D01*
X222239414Y-50633072D01*
X222116928Y-50510586D01*
X221976788Y-50408768D01*
X221940880Y-50390472D01*
X221843205Y-50340704D01*
X221792409Y-50292729D01*
X221775500Y-50230219D01*
X221775500Y-50154567D01*
X221775500Y-50154565D01*
X221749910Y-50059062D01*
X221700475Y-49973438D01*
X221630562Y-49903525D01*
X220956563Y-49229526D01*
X220956562Y-49229525D01*
X220870938Y-49180090D01*
X220823186Y-49167295D01*
X220823184Y-49167294D01*
X220823182Y-49167293D01*
X220775436Y-49154500D01*
X220775435Y-49154500D01*
X218489436Y-49154500D01*
X218390564Y-49154500D01*
X218342812Y-49167295D01*
X218342811Y-49167294D01*
X218295063Y-49180089D01*
X218295062Y-49180089D01*
X218209435Y-49229527D01*
X217245526Y-50193436D01*
X217196091Y-50279059D01*
X217196091Y-50279060D01*
X217196090Y-50279062D01*
X217170500Y-50374565D01*
X217170500Y-50374567D01*
X217170500Y-52904267D01*
X217150815Y-52971306D01*
X217098011Y-53017061D01*
X217028853Y-53027005D01*
X216973615Y-53004585D01*
X216896792Y-52948770D01*
X216742447Y-52870128D01*
X216742446Y-52870127D01*
X216742445Y-52870127D01*
X216577701Y-52816598D01*
X216577699Y-52816597D01*
X216577698Y-52816597D01*
X216446271Y-52795781D01*
X216406611Y-52789500D01*
X216233389Y-52789500D01*
X216193728Y-52795781D01*
X216062302Y-52816597D01*
X215897552Y-52870128D01*
X215743211Y-52948768D01*
X215712191Y-52971306D01*
X215603072Y-53050586D01*
X215603070Y-53050588D01*
X215603069Y-53050588D01*
X215480588Y-53173069D01*
X215480588Y-53173070D01*
X215480586Y-53173072D01*
X215436859Y-53233256D01*
X215378768Y-53313211D01*
X215300128Y-53467552D01*
X215246597Y-53632302D01*
X215238050Y-53686267D01*
X215219500Y-53803389D01*
X215219500Y-53976611D01*
X215246598Y-54147701D01*
X215300127Y-54312445D01*
X215378768Y-54466788D01*
X215480586Y-54606928D01*
X215603072Y-54729414D01*
X215743212Y-54831232D01*
X215897555Y-54909873D01*
X216062299Y-54963402D01*
X216233389Y-54990500D01*
X216233390Y-54990500D01*
X216406610Y-54990500D01*
X216406611Y-54990500D01*
X216577701Y-54963402D01*
X216742445Y-54909873D01*
X216896788Y-54831232D01*
X216973615Y-54775413D01*
X217039420Y-54751934D01*
X217107474Y-54767759D01*
X217156169Y-54817865D01*
X217170500Y-54875732D01*
X217170500Y-63777435D01*
X217196090Y-63872938D01*
X217202161Y-63883453D01*
X217245526Y-63958563D01*
X217245528Y-63958565D01*
X219729782Y-66442819D01*
X219763267Y-66504142D01*
X219758283Y-66573834D01*
X219716411Y-66629767D01*
X219650947Y-66654184D01*
X219642101Y-66654500D01*
X210633997Y-66654500D01*
X210579687Y-66660338D01*
X210528181Y-66671543D01*
X210528172Y-66671546D01*
X210501807Y-66678779D01*
X210501796Y-66678783D01*
X210415181Y-66728105D01*
X210415173Y-66728111D01*
X210362371Y-66773863D01*
X210330743Y-66806640D01*
X210284534Y-66894977D01*
X210284533Y-66894977D01*
X210264851Y-66962009D01*
X210264848Y-66962021D01*
X210254500Y-67033998D01*
X208720500Y-67033998D01*
X208720500Y-66693651D01*
X208740185Y-66626612D01*
X208756819Y-66605970D01*
X210165970Y-65196819D01*
X210227293Y-65163334D01*
X210253651Y-65160500D01*
X210735500Y-65160500D01*
X210802539Y-65180185D01*
X210848294Y-65232989D01*
X210859500Y-65284500D01*
X210859500Y-65507863D01*
X210859501Y-65507882D01*
X210865908Y-65567481D01*
X210916202Y-65702327D01*
X210916203Y-65702328D01*
X210916204Y-65702330D01*
X211002454Y-65817546D01*
X211117670Y-65903796D01*
X211117671Y-65903796D01*
X211117672Y-65903797D01*
X211252518Y-65954091D01*
X211252517Y-65954091D01*
X211259445Y-65954835D01*
X211312128Y-65960500D01*
X211312137Y-65960500D01*
X213707863Y-65960500D01*
X213707872Y-65960500D01*
X213767482Y-65954091D01*
X213902330Y-65903796D01*
X214017546Y-65817546D01*
X214103796Y-65702330D01*
X214154091Y-65567482D01*
X214160500Y-65507872D01*
X214160500Y-63112128D01*
X214154091Y-63052518D01*
X214103796Y-62917670D01*
X214017546Y-62802454D01*
X213902330Y-62716204D01*
X213902328Y-62716203D01*
X213902327Y-62716202D01*
X213767481Y-62665908D01*
X213767482Y-62665908D01*
X213707882Y-62659501D01*
X213707880Y-62659500D01*
X213707872Y-62659500D01*
X211312128Y-62659500D01*
X211312120Y-62659500D01*
X211312117Y-62659501D01*
X211252518Y-62665908D01*
X211117672Y-62716202D01*
X211117670Y-62716204D01*
X211002454Y-62802454D01*
X210916204Y-62917670D01*
X210916202Y-62917672D01*
X210865908Y-63052518D01*
X210859501Y-63112117D01*
X210859500Y-63112136D01*
X210859500Y-63335500D01*
X210839815Y-63402539D01*
X210787011Y-63448294D01*
X210735500Y-63459500D01*
X209766228Y-63459500D01*
X209601925Y-63492182D01*
X209601913Y-63492185D01*
X209556583Y-63510962D01*
X209447143Y-63556292D01*
X209447130Y-63556299D01*
X209307838Y-63649372D01*
X209307834Y-63649375D01*
X207475681Y-65481529D01*
X207414358Y-65515014D01*
X207344666Y-65510030D01*
X207288733Y-65468158D01*
X207264316Y-65402694D01*
X207264000Y-65393848D01*
X207264000Y-53242135D01*
X210139500Y-53242135D01*
X210139500Y-54537870D01*
X210139501Y-54537876D01*
X210145908Y-54597483D01*
X210196202Y-54732328D01*
X210196206Y-54732335D01*
X210282452Y-54847544D01*
X210282455Y-54847547D01*
X210397664Y-54933793D01*
X210397671Y-54933797D01*
X210532517Y-54984091D01*
X210532516Y-54984091D01*
X210539444Y-54984835D01*
X210592127Y-54990500D01*
X211887872Y-54990499D01*
X211947483Y-54984091D01*
X212082331Y-54933796D01*
X212197546Y-54847546D01*
X212283796Y-54732331D01*
X212334091Y-54597483D01*
X212340500Y-54537873D01*
X212340499Y-53803389D01*
X212679500Y-53803389D01*
X212679500Y-53976611D01*
X212706598Y-54147701D01*
X212760127Y-54312445D01*
X212838768Y-54466788D01*
X212940586Y-54606928D01*
X213063072Y-54729414D01*
X213203212Y-54831232D01*
X213357555Y-54909873D01*
X213522299Y-54963402D01*
X213693389Y-54990500D01*
X213693390Y-54990500D01*
X213866610Y-54990500D01*
X213866611Y-54990500D01*
X214037701Y-54963402D01*
X214202445Y-54909873D01*
X214356788Y-54831232D01*
X214496928Y-54729414D01*
X214619414Y-54606928D01*
X214721232Y-54466788D01*
X214799873Y-54312445D01*
X214853402Y-54147701D01*
X214880500Y-53976611D01*
X214880500Y-53803389D01*
X214853402Y-53632299D01*
X214799873Y-53467555D01*
X214721232Y-53313212D01*
X214619414Y-53173072D01*
X214496928Y-53050586D01*
X214356788Y-52948768D01*
X214202445Y-52870127D01*
X214037701Y-52816598D01*
X214037699Y-52816597D01*
X214037698Y-52816597D01*
X213906271Y-52795781D01*
X213866611Y-52789500D01*
X213693389Y-52789500D01*
X213653728Y-52795781D01*
X213522302Y-52816597D01*
X213357552Y-52870128D01*
X213203211Y-52948768D01*
X213172191Y-52971306D01*
X213063072Y-53050586D01*
X213063070Y-53050588D01*
X213063069Y-53050588D01*
X212940588Y-53173069D01*
X212940588Y-53173070D01*
X212940586Y-53173072D01*
X212896859Y-53233256D01*
X212838768Y-53313211D01*
X212760128Y-53467552D01*
X212706597Y-53632302D01*
X212698050Y-53686267D01*
X212679500Y-53803389D01*
X212340499Y-53803389D01*
X212340499Y-53242128D01*
X212334091Y-53182517D01*
X212330568Y-53173072D01*
X212283797Y-53047671D01*
X212283793Y-53047664D01*
X212197547Y-52932455D01*
X212197544Y-52932452D01*
X212082335Y-52846206D01*
X212082328Y-52846202D01*
X211947482Y-52795908D01*
X211947483Y-52795908D01*
X211887883Y-52789501D01*
X211887881Y-52789500D01*
X211887873Y-52789500D01*
X211887864Y-52789500D01*
X210592129Y-52789500D01*
X210592123Y-52789501D01*
X210532516Y-52795908D01*
X210397671Y-52846202D01*
X210397664Y-52846206D01*
X210282455Y-52932452D01*
X210282452Y-52932455D01*
X210196206Y-53047664D01*
X210196202Y-53047671D01*
X210145908Y-53182517D01*
X210139501Y-53242116D01*
X210139501Y-53242123D01*
X210139500Y-53242135D01*
X207264000Y-53242135D01*
X207264000Y-51263389D01*
X210139500Y-51263389D01*
X210139500Y-51436611D01*
X210166598Y-51607701D01*
X210220127Y-51772445D01*
X210298768Y-51926788D01*
X210400586Y-52066928D01*
X210523072Y-52189414D01*
X210663212Y-52291232D01*
X210817555Y-52369873D01*
X210982299Y-52423402D01*
X211153389Y-52450500D01*
X211153390Y-52450500D01*
X211326610Y-52450500D01*
X211326611Y-52450500D01*
X211497701Y-52423402D01*
X211662445Y-52369873D01*
X211816788Y-52291232D01*
X211956928Y-52189414D01*
X212079414Y-52066928D01*
X212181232Y-51926788D01*
X212259873Y-51772445D01*
X212313402Y-51607701D01*
X212340500Y-51436611D01*
X212340500Y-51263389D01*
X212679500Y-51263389D01*
X212679500Y-51436611D01*
X212706598Y-51607701D01*
X212760127Y-51772445D01*
X212838768Y-51926788D01*
X212940586Y-52066928D01*
X213063072Y-52189414D01*
X213203212Y-52291232D01*
X213357555Y-52369873D01*
X213522299Y-52423402D01*
X213693389Y-52450500D01*
X213693390Y-52450500D01*
X213866610Y-52450500D01*
X213866611Y-52450500D01*
X214037701Y-52423402D01*
X214202445Y-52369873D01*
X214356788Y-52291232D01*
X214496928Y-52189414D01*
X214619414Y-52066928D01*
X214721232Y-51926788D01*
X214799873Y-51772445D01*
X214853402Y-51607701D01*
X214880500Y-51436611D01*
X214880500Y-51263389D01*
X214853402Y-51092299D01*
X214799873Y-50927555D01*
X214721232Y-50773212D01*
X214619414Y-50633072D01*
X214496928Y-50510586D01*
X214356788Y-50408768D01*
X214202445Y-50330127D01*
X214037701Y-50276598D01*
X214037699Y-50276597D01*
X214037698Y-50276597D01*
X213906271Y-50255781D01*
X213866611Y-50249500D01*
X213693389Y-50249500D01*
X213653728Y-50255781D01*
X213522302Y-50276597D01*
X213357552Y-50330128D01*
X213203211Y-50408768D01*
X213123256Y-50466859D01*
X213063072Y-50510586D01*
X213063070Y-50510588D01*
X213063069Y-50510588D01*
X212940588Y-50633069D01*
X212940588Y-50633070D01*
X212940586Y-50633072D01*
X212896859Y-50693256D01*
X212838768Y-50773211D01*
X212760128Y-50927552D01*
X212706597Y-51092302D01*
X212679500Y-51263389D01*
X212340500Y-51263389D01*
X212313402Y-51092299D01*
X212259873Y-50927555D01*
X212181232Y-50773212D01*
X212079414Y-50633072D01*
X211956928Y-50510586D01*
X211816788Y-50408768D01*
X211662445Y-50330127D01*
X211497701Y-50276598D01*
X211497699Y-50276597D01*
X211497698Y-50276597D01*
X211366271Y-50255781D01*
X211326611Y-50249500D01*
X211153389Y-50249500D01*
X211113728Y-50255781D01*
X210982302Y-50276597D01*
X210817552Y-50330128D01*
X210663211Y-50408768D01*
X210583256Y-50466859D01*
X210523072Y-50510586D01*
X210523070Y-50510588D01*
X210523069Y-50510588D01*
X210400588Y-50633069D01*
X210400588Y-50633070D01*
X210400586Y-50633072D01*
X210356859Y-50693256D01*
X210298768Y-50773211D01*
X210220128Y-50927552D01*
X210166597Y-51092302D01*
X210139500Y-51263389D01*
X207264000Y-51263389D01*
X207264000Y-48892000D01*
X207283685Y-48824961D01*
X207336489Y-48779206D01*
X207388000Y-48768000D01*
X263782000Y-48768000D01*
X263849039Y-48787685D01*
G37*
%TD.AperFunction*%
%TD*%
M02*
