%TF.GenerationSoftware,KiCad,Pcbnew,9.0.5*%
%TF.CreationDate,2026-04-07T16:58:08+01:00*%
%TF.ProjectId,Unibots_PCB,556e6962-6f74-4735-9f50-43422e6b6963,rev?*%
%TF.SameCoordinates,Original*%
%TF.FileFunction,Paste,Top*%
%TF.FilePolarity,Positive*%
%FSLAX46Y46*%
G04 Gerber Fmt 4.6, Leading zero omitted, Abs format (unit mm)*
G04 Created by KiCad (PCBNEW 9.0.5) date 2026-04-07 16:58:08*
%MOMM*%
%LPD*%
G01*
G04 APERTURE LIST*
G04 Aperture macros list*
%AMRoundRect*
0 Rectangle with rounded corners*
0 $1 Rounding radius*
0 $2 $3 $4 $5 $6 $7 $8 $9 X,Y pos of 4 corners*
0 Add a 4 corners polygon primitive as box body*
4,1,4,$2,$3,$4,$5,$6,$7,$8,$9,$2,$3,0*
0 Add four circle primitives for the rounded corners*
1,1,$1+$1,$2,$3*
1,1,$1+$1,$4,$5*
1,1,$1+$1,$6,$7*
1,1,$1+$1,$8,$9*
0 Add four rect primitives between the rounded corners*
20,1,$1+$1,$2,$3,$4,$5,0*
20,1,$1+$1,$4,$5,$6,$7,0*
20,1,$1+$1,$6,$7,$8,$9,0*
20,1,$1+$1,$8,$9,$2,$3,0*%
G04 Aperture macros list end*
%ADD10RoundRect,0.250000X0.450000X-0.350000X0.450000X0.350000X-0.450000X0.350000X-0.450000X-0.350000X0*%
%ADD11RoundRect,0.250000X-0.450000X0.350000X-0.450000X-0.350000X0.450000X-0.350000X0.450000X0.350000X0*%
%ADD12RoundRect,0.250000X0.412500X0.650000X-0.412500X0.650000X-0.412500X-0.650000X0.412500X-0.650000X0*%
%ADD13R,1.505000X0.802000*%
%ADD14R,1.567800X2.101200*%
%ADD15RoundRect,0.250000X0.475000X-0.337500X0.475000X0.337500X-0.475000X0.337500X-0.475000X-0.337500X0*%
%ADD16RoundRect,0.250000X0.337500X0.475000X-0.337500X0.475000X-0.337500X-0.475000X0.337500X-0.475000X0*%
%ADD17RoundRect,0.250000X-0.340000X-2.100000X0.340000X-2.100000X0.340000X2.100000X-0.340000X2.100000X0*%
%ADD18RoundRect,0.100000X0.100000X-0.850000X0.100000X0.850000X-0.100000X0.850000X-0.100000X-0.850000X0*%
%ADD19RoundRect,0.250000X-0.337500X-0.475000X0.337500X-0.475000X0.337500X0.475000X-0.337500X0.475000X0*%
%ADD20RoundRect,0.250000X-0.475000X0.337500X-0.475000X-0.337500X0.475000X-0.337500X0.475000X0.337500X0*%
%ADD21RoundRect,0.250000X0.350000X0.450000X-0.350000X0.450000X-0.350000X-0.450000X0.350000X-0.450000X0*%
%ADD22RoundRect,0.375000X0.375000X-0.625000X0.375000X0.625000X-0.375000X0.625000X-0.375000X-0.625000X0*%
%ADD23RoundRect,0.500000X1.400000X-0.500000X1.400000X0.500000X-1.400000X0.500000X-1.400000X-0.500000X0*%
%ADD24RoundRect,0.250000X-0.350000X-0.450000X0.350000X-0.450000X0.350000X0.450000X-0.350000X0.450000X0*%
%ADD25RoundRect,0.250000X-1.125000X1.275000X-1.125000X-1.275000X1.125000X-1.275000X1.125000X1.275000X0*%
%ADD26RoundRect,0.250000X-0.350000X0.850000X-0.350000X-0.850000X0.350000X-0.850000X0.350000X0.850000X0*%
G04 APERTURE END LIST*
D10*
%TO.C,R3*%
X259080000Y-87070000D03*
X259080000Y-85070000D03*
%TD*%
D11*
%TO.C,R14*%
X262200000Y-64670000D03*
X262200000Y-66670000D03*
%TD*%
D10*
%TO.C,R18*%
X230124000Y-113522000D03*
X230124000Y-111522000D03*
%TD*%
D12*
%TO.C,C15*%
X248035000Y-70680000D03*
X244910000Y-70680000D03*
%TD*%
D13*
%TO.C,U4*%
X230775000Y-65175000D03*
X230775000Y-66445000D03*
X230775000Y-67715000D03*
X230775000Y-68985000D03*
X235770000Y-68985000D03*
X235770000Y-67715000D03*
X235770000Y-66445000D03*
X235770000Y-65175000D03*
D14*
X233272500Y-67080000D03*
%TD*%
D15*
%TO.C,C11*%
X227517500Y-70280000D03*
X227517500Y-68205000D03*
%TD*%
D16*
%TO.C,C7*%
X220287500Y-97940000D03*
X218212500Y-97940000D03*
%TD*%
D17*
%TO.C,L1*%
X238817500Y-62422500D03*
X242127500Y-62422500D03*
%TD*%
D18*
%TO.C,U1*%
X226975000Y-131388026D03*
X227625000Y-131388026D03*
X228275000Y-131388026D03*
X228925000Y-131388026D03*
X229575000Y-131388026D03*
X230225000Y-131388026D03*
X230875000Y-131388026D03*
X231525000Y-131388026D03*
X232175000Y-131388026D03*
X232825000Y-131388026D03*
X233475000Y-131388026D03*
X234125000Y-131388026D03*
X234125000Y-124388026D03*
X233475000Y-124388026D03*
X232825000Y-124388026D03*
X232175000Y-124388026D03*
X231525000Y-124388026D03*
X230875000Y-124388026D03*
X230225000Y-124388026D03*
X229575000Y-124388026D03*
X228925000Y-124388026D03*
X228275000Y-124388026D03*
X227625000Y-124388026D03*
X226975000Y-124388026D03*
%TD*%
D16*
%TO.C,C3*%
X229387500Y-121305526D03*
X227312500Y-121305526D03*
%TD*%
D11*
%TO.C,R4*%
X261480000Y-85070000D03*
X261480000Y-87070000D03*
%TD*%
D12*
%TO.C,C23*%
X248035000Y-64422500D03*
X244910000Y-64422500D03*
%TD*%
D11*
%TO.C,R6*%
X230770000Y-85240000D03*
X230770000Y-87240000D03*
%TD*%
D12*
%TO.C,C14*%
X248035000Y-67580000D03*
X244910000Y-67580000D03*
%TD*%
D19*
%TO.C,C4*%
X250232500Y-122115526D03*
X252307500Y-122115526D03*
%TD*%
D15*
%TO.C,C6*%
X256180000Y-127443026D03*
X256180000Y-125368026D03*
%TD*%
%TO.C,C1*%
X236310000Y-126905526D03*
X236310000Y-124830526D03*
%TD*%
%TO.C,C2*%
X224340000Y-126663026D03*
X224340000Y-124588026D03*
%TD*%
D12*
%TO.C,C22*%
X248035000Y-61722500D03*
X244910000Y-61722500D03*
%TD*%
D20*
%TO.C,C8*%
X218382500Y-101005000D03*
X218382500Y-103080000D03*
%TD*%
D10*
%TO.C,R13*%
X262260000Y-62520000D03*
X262260000Y-60520000D03*
%TD*%
D21*
%TO.C,R16*%
X226800000Y-103950000D03*
X224800000Y-103950000D03*
%TD*%
%TO.C,R15*%
X222730000Y-103960000D03*
X220730000Y-103960000D03*
%TD*%
D11*
%TO.C,R1*%
X261400000Y-80770000D03*
X261400000Y-82770000D03*
%TD*%
D10*
%TO.C,R2*%
X259000000Y-82770000D03*
X259000000Y-80770000D03*
%TD*%
D22*
%TO.C,U5*%
X210800000Y-103190000D03*
X213100000Y-103190000D03*
D23*
X213100000Y-96890000D03*
D22*
X215400000Y-103190000D03*
%TD*%
D11*
%TO.C,R7*%
X230710000Y-80770000D03*
X230710000Y-82770000D03*
%TD*%
D24*
%TO.C,R19*%
X220488000Y-59944000D03*
X222488000Y-59944000D03*
%TD*%
D25*
%TO.C,Q2*%
X223010000Y-80210000D03*
X219960000Y-80210000D03*
X223010000Y-83560000D03*
X219960000Y-83560000D03*
D26*
X223765000Y-75585000D03*
X221485000Y-75585000D03*
X219205000Y-75585000D03*
%TD*%
D24*
%TO.C,R10*%
X229972500Y-71622500D03*
X231972500Y-71622500D03*
%TD*%
D10*
%TO.C,R8*%
X228310000Y-82770000D03*
X228310000Y-80770000D03*
%TD*%
D15*
%TO.C,C5*%
X244630000Y-126795526D03*
X244630000Y-124720526D03*
%TD*%
D16*
%TO.C,C13*%
X235810000Y-62980000D03*
X233735000Y-62980000D03*
%TD*%
D10*
%TO.C,R5*%
X228370000Y-87240000D03*
X228370000Y-85240000D03*
%TD*%
D16*
%TO.C,C10*%
X229555000Y-62412500D03*
X227480000Y-62412500D03*
%TD*%
D19*
%TO.C,C9*%
X209982500Y-86550000D03*
X212057500Y-86550000D03*
%TD*%
D16*
%TO.C,C12*%
X240010000Y-67680000D03*
X237935000Y-67680000D03*
%TD*%
D21*
%TO.C,R9*%
X223810000Y-72610000D03*
X221810000Y-72610000D03*
%TD*%
%TO.C,R12*%
X235872500Y-71622500D03*
X233872500Y-71622500D03*
%TD*%
%TO.C,R11*%
X241972500Y-71480000D03*
X239972500Y-71480000D03*
%TD*%
D18*
%TO.C,U3*%
X246850000Y-131495526D03*
X247500000Y-131495526D03*
X248150000Y-131495526D03*
X248800000Y-131495526D03*
X249450000Y-131495526D03*
X250100000Y-131495526D03*
X250750000Y-131495526D03*
X251400000Y-131495526D03*
X252050000Y-131495526D03*
X252700000Y-131495526D03*
X253350000Y-131495526D03*
X254000000Y-131495526D03*
X254000000Y-124495526D03*
X253350000Y-124495526D03*
X252700000Y-124495526D03*
X252050000Y-124495526D03*
X251400000Y-124495526D03*
X250750000Y-124495526D03*
X250100000Y-124495526D03*
X249450000Y-124495526D03*
X248800000Y-124495526D03*
X248150000Y-124495526D03*
X247500000Y-124495526D03*
X246850000Y-124495526D03*
%TD*%
M02*
